<svg width="6" height="6" viewBox="0 0 6 6" fill="none" xmlns="http://www.w3.org/2000/svg">
<path d="M3 3.63878L0.764258 5.87452C0.680608 5.95817 0.574144 6 0.444867 6C0.315589 6 0.209125 5.95817 0.125475 5.87452C0.0418249 5.79087 0 5.68441 0 5.55513C0 5.42586 0.0418249 5.31939 0.125475 5.23574L2.36122 3L0.125475 0.764258C0.0418249 0.680608 0 0.574144 0 0.444867C0 0.315589 0.0418249 0.209125 0.125475 0.125475C0.209125 0.0418249 0.315589 0 0.444867 0C0.574144 0 0.680608 0.0418249 0.764258 0.125475L3 2.36122L5.23574 0.125475C5.31939 0.0418249 5.42586 0 5.55513 0C5.68441 0 5.79087 0.0418249 5.87452 0.125475C5.95817 0.209125 6 0.315589 6 0.444867C6 0.574144 5.95817 0.680608 5.87452 0.764258L3.63878 3L5.87452 5.23574C5.95817 5.31939 6 5.42586 6 5.55513C6 5.68441 5.95817 5.79087 5.87452 5.87452C5.79087 5.95817 5.68441 6 5.55513 6C5.42586 6 5.31939 5.95817 5.23574 5.87452L3 3.63878Z" fill="#004C83"/>
</svg>
