<svg width="214" height="192" viewBox="0 0 214 192" fill="none" xmlns="http://www.w3.org/2000/svg">
<path d="M94.1519 93.284C94.1519 93.284 86.6057 78.2694 83.4939 75.8578C80.382 73.4461 81.549 75.1576 77.9704 80.9145C74.3918 86.6714 71.9023 97.7184 71.9023 97.7184C71.9023 97.7184 56.9654 102.853 54.1648 109.232C51.3641 115.611 44.0513 128.137 45.4516 141.362C46.852 154.587 53.7758 171.313 66.301 180.026C78.8261 188.74 93.8407 191.54 113.679 189.751C133.517 188.039 151.643 182.438 159.656 177.226C167.669 172.014 175.76 153.109 175.915 145.174C176.071 137.239 173.27 119.423 169.77 114.911C166.269 110.399 159.889 106.043 156.622 103.009C153.355 99.9745 148.22 95.6957 143.319 95.7735C143.319 95.7735 141.452 82.5482 138.729 80.2921C136.006 78.0361 134.217 74.9242 133.205 75.6244C132.194 76.3245 119.047 93.5174 119.047 93.5174L94.1519 93.284Z" fill="#FFF9DF"/>
<path d="M173.115 141.596C171.481 141.673 170.081 141.751 168.603 141.907C168.214 141.907 167.747 142.062 167.358 142.062C166.736 142.062 166.191 141.751 166.113 141.207C166.035 140.74 166.424 140.273 167.047 140.117C167.747 139.962 168.447 139.884 169.07 139.728C170.314 139.495 171.559 139.34 172.804 139.106C172.959 139.106 173.115 138.795 173.115 138.639C173.115 138.25 173.115 137.939 173.037 137.55C172.959 136.305 173.037 135.061 172.882 133.816C172.726 132.182 172.57 130.549 172.259 128.837C172.026 127.515 171.559 126.348 171.248 125.103C171.014 124.247 170.625 123.391 170.314 122.613C170.159 122.302 170.159 121.913 170.081 121.602C170.081 121.524 170.081 121.369 170.003 121.291C168.758 119.268 168.136 116.934 167.047 114.756C166.424 113.589 165.88 112.422 164.868 111.489C163.935 110.633 163.313 109.466 162.535 108.455C162.068 107.91 161.523 107.443 161.057 106.976C160.045 106.121 159.034 105.343 158.022 104.487C157.4 104.02 156.778 103.476 156.078 103.087C155.144 102.464 154.21 101.997 153.277 101.375C152.421 100.831 151.643 100.208 150.787 99.7414C149.309 98.9634 147.831 98.1855 146.275 97.5631C145.731 97.3297 144.953 97.4075 144.33 97.4075C143.708 97.4075 143.241 97.2519 143.163 96.7851C143.086 96.3962 143.397 95.9294 143.941 95.7738C145.731 95.0736 147.364 95.5404 148.998 96.3184C150.321 97.0185 151.643 97.6409 152.888 98.4189C153.744 98.8856 154.522 99.4302 155.377 99.897C156.856 100.831 158.334 101.764 159.89 102.775C160.045 102.853 160.123 102.931 160.201 103.009C161.368 104.02 162.457 105.032 163.624 106.043C164.48 106.821 165.335 107.521 166.035 108.377C166.813 109.232 167.358 110.322 167.98 111.255C168.758 112.578 169.614 113.9 170.314 115.223C170.859 116.234 171.248 117.401 171.715 118.49C171.948 119.113 172.104 119.735 172.337 120.28C172.57 120.902 173.037 121.446 173.27 122.069C173.659 123.002 173.893 123.936 174.204 124.947C174.515 125.881 174.826 126.892 174.982 127.826C175.215 128.915 175.293 130.004 175.449 131.093C175.527 131.327 175.527 131.638 175.604 131.871C175.604 132.027 175.682 132.104 175.682 132.182C175.527 133.738 176.149 135.294 175.76 136.85C175.682 137.317 175.682 137.784 175.682 138.328C176.46 138.25 177.238 138.25 177.938 138.095C179.261 137.784 180.583 137.628 181.906 137.55C182.061 137.55 182.217 137.55 182.295 137.472C183.306 137.006 184.473 137.083 185.484 136.928C186.262 136.85 187.04 136.694 187.896 136.694C188.674 136.694 189.53 136.694 190.152 137.317C190.541 137.706 190.541 138.017 190.152 138.25C189.608 138.562 189.063 138.795 188.518 138.873C187.274 139.106 186.029 139.34 184.706 139.495C183.54 139.651 182.373 139.573 181.283 139.884C180.039 140.273 178.716 140.117 177.471 140.429C176.927 140.584 176.382 140.74 175.682 140.895C175.682 141.829 175.682 142.763 175.682 143.696C175.682 144.241 175.527 144.707 175.449 145.252C175.293 146.108 175.06 146.964 174.982 147.819C174.826 148.986 174.826 150.153 174.749 151.32C174.749 151.476 174.671 151.631 174.671 151.787C174.36 152.565 174.36 152.643 175.215 152.798C175.916 152.954 176.616 153.109 177.394 153.265C177.549 153.265 177.627 153.265 177.783 153.343C179.572 153.887 181.283 154.432 183.073 154.977C183.384 155.054 183.695 155.21 183.928 155.365C184.94 155.832 186.029 156.221 187.04 156.766C187.741 157.155 188.441 157.622 189.063 158.088C189.452 158.4 189.219 158.711 188.83 158.788C187.974 158.788 187.04 158.788 186.262 158.711C185.173 158.555 184.162 158.166 183.151 157.933C182.606 157.777 182.139 157.622 181.595 157.466C180.739 157.233 179.961 156.921 179.105 156.61C178.094 156.299 177.082 155.91 176.149 155.677C175.604 155.521 175.06 155.365 174.515 155.288C174.36 155.288 174.126 155.521 174.126 155.677C173.893 156.688 173.737 157.699 173.582 158.711C173.582 158.866 173.504 159.022 173.504 159.1C172.648 161.2 171.948 163.301 170.781 165.246C170.314 166.024 170.081 166.957 169.536 167.735C168.68 168.98 167.825 170.069 166.891 171.236C166.035 172.325 165.102 173.336 164.168 174.348C163.079 175.515 161.912 176.682 160.823 177.771C160.279 178.237 159.656 178.626 159.112 179.093C158.645 179.482 158.256 180.027 157.711 180.26C156.856 180.649 156.155 181.349 155.3 181.816C153.588 182.75 151.799 183.45 150.009 184.306C149.309 184.695 148.687 185.161 147.987 185.55C147.364 185.861 146.664 186.173 145.964 186.406C145.108 186.717 144.253 187.106 143.319 187.34C142.697 187.573 141.997 187.573 141.374 187.806C140.363 188.118 139.351 188.507 138.262 188.74C137.251 188.973 136.162 189.207 135.073 189.362C134.528 189.44 133.984 189.44 133.439 189.518C132.817 189.596 132.272 189.751 131.727 189.829C131.261 189.907 130.794 190.062 130.327 190.14C129.549 190.218 128.849 190.374 128.071 190.451C127.604 190.529 127.06 190.451 126.593 190.451C125.893 190.451 125.115 190.451 124.415 190.451C123.948 190.451 123.481 190.451 123.092 190.451C122.548 190.451 121.925 190.529 121.381 190.529C120.291 190.529 119.28 190.529 118.191 190.607C117.802 190.607 117.491 190.763 117.102 190.84C116.713 190.918 116.324 190.84 115.935 190.918C115.468 190.918 115.079 190.996 114.612 191.074C114.223 191.074 113.912 191.152 113.523 191.152C113.056 191.152 112.512 191.074 112.045 191.152C110.489 191.229 109.011 191.385 107.455 191.463C106.522 191.541 105.588 191.618 104.654 191.618C103.799 191.618 102.865 191.618 102.009 191.618C101.698 191.618 101.387 191.696 101.076 191.618C100.22 191.541 99.3644 191.463 98.4308 191.385C98.1196 191.385 97.8084 191.307 97.4972 191.307C96.9527 191.229 96.4081 191.152 95.8635 191.152C95.6302 191.152 95.3967 191.152 95.2411 191.074C94.3854 190.918 93.5296 190.685 92.5183 190.451C92.0515 190.84 91.3514 190.918 90.4956 190.84C89.4843 190.763 88.4729 190.84 87.4616 190.685C86.3724 190.529 85.3611 190.296 84.2719 189.985C82.9494 189.596 81.7047 189.207 80.3821 188.74C79.3708 188.351 78.3594 187.962 77.3481 187.573C76.9591 187.417 76.5701 187.262 76.1811 187.106C74.7808 186.406 73.3805 185.706 71.9802 184.928C70.8133 184.228 69.6463 183.45 68.5572 182.672C67.6236 182.049 66.6901 181.427 65.7565 180.727C64.1228 179.404 62.4891 178.16 60.9332 176.759C59.6106 175.592 58.4437 174.348 57.2767 173.103C56.3432 172.092 55.5652 171.002 54.7095 169.913C54.0871 169.135 53.4648 168.28 52.9202 167.424C52.1422 166.179 51.5198 164.934 50.8975 163.69C50.5863 163.067 50.3529 162.445 50.0417 161.745C49.4972 162.056 49.0304 162.367 48.5636 162.678C47.3967 163.301 46.3075 164.001 45.1406 164.468C44.6738 164.701 43.9737 164.468 43.4291 164.39C43.0401 164.312 42.9623 164.001 43.2735 163.767C43.7403 163.378 44.207 162.989 44.6738 162.678C45.2962 162.289 45.9963 161.9 46.6187 161.511C47.3967 160.967 48.1746 160.344 48.9526 159.8C49.0304 159.722 49.1082 159.489 49.1082 159.333C48.8748 158.477 48.4858 157.622 48.2524 156.766C47.9413 155.832 47.63 154.899 47.3967 153.887C47.0077 152.487 46.6965 151.164 46.4631 149.764C46.3853 149.375 46.3075 149.22 45.8407 149.22C45.1406 149.297 44.4404 149.297 43.7403 149.297C42.1066 149.297 40.4728 149.297 38.9169 149.064C37.5944 148.908 36.3496 148.442 35.1049 147.975C34.7159 147.819 34.4047 147.352 34.1713 146.964C33.938 146.497 34.4047 145.952 34.9493 146.03C35.2605 146.108 35.5717 146.108 35.8051 146.341C36.7386 146.964 37.8278 147.119 38.9169 147.197C39.6949 147.275 40.4728 147.508 41.2508 147.508C42.1066 147.586 43.0401 147.508 43.8958 147.43C44.5182 147.43 45.2184 147.43 45.9186 147.43C45.8408 146.652 45.7629 146.108 45.6074 145.485C45.4518 144.318 45.1406 143.229 45.0628 142.062C44.9072 140.117 44.9072 138.173 44.9072 136.228C44.9072 134.827 45.0628 133.349 45.2184 131.949C45.374 130.549 45.5296 129.148 45.8407 127.748C46.1519 126.348 46.6187 124.947 47.0077 123.469C47.2411 122.769 47.4745 122.147 47.7079 121.446C48.019 120.591 48.408 119.735 48.7192 118.879C49.186 117.868 49.5749 116.856 50.1195 115.923C50.8975 114.523 51.7533 113.2 52.5312 111.8C52.998 111.022 53.387 110.166 53.8538 109.466C54.4761 108.61 55.2541 107.832 55.8764 106.976C56.9656 105.498 58.1325 104.254 59.6106 103.242C61.0887 102.231 62.5669 101.22 64.2784 100.597C65.6787 100.13 66.9235 99.3524 68.3238 98.73C69.1795 98.3411 70.0353 98.0299 70.891 97.7187C71.1244 97.6409 71.4356 97.8743 71.669 97.9521C71.5134 98.1855 71.5134 98.4967 71.28 98.5745C70.5021 99.0412 69.7241 99.3524 69.024 99.7414C68.0126 100.286 67.079 100.753 66.0677 101.297C64.5896 102.153 63.1892 102.931 61.7111 103.787C61.5555 103.865 61.4777 103.942 61.3999 104.02C59.9996 105.343 58.5993 106.665 57.199 108.066C56.5766 108.688 56.1876 109.466 55.7208 110.166C55.0985 111.1 54.4761 111.955 53.9315 112.889C53.1536 114.211 52.4534 115.612 51.831 116.934C51.0531 118.568 50.3529 120.202 49.7305 121.835C49.186 123.158 48.8748 124.558 48.408 125.881C48.0969 126.814 47.8635 127.826 47.6301 128.759C47.4745 129.382 47.3967 130.082 47.3189 130.704C47.1633 132.027 46.9299 133.349 46.8521 134.75C46.7743 135.839 46.8521 137.006 46.8521 138.095C46.8521 138.562 46.7743 138.951 46.8521 139.417C46.9299 140.429 46.9299 141.518 47.0855 142.529C47.2411 144.007 47.4745 145.485 47.7079 146.964C48.9526 146.886 50.1195 146.73 51.2864 146.652C52.4534 146.575 53.5426 146.808 54.7095 147.119C52.609 147.897 50.4307 148.364 48.0968 148.753C48.8748 152.02 49.4194 155.288 50.9753 158.555C53.1536 156.532 55.9542 155.677 58.4437 154.51C57.7435 155.21 57.0434 155.988 56.2654 156.688C54.7873 158.011 53.3869 159.333 51.831 160.733C52.22 161.589 52.7646 162.601 53.2313 163.534C53.3869 163.923 53.6203 164.312 53.7759 164.623C54.1649 165.401 54.5539 166.179 55.0985 166.801C56.032 168.046 56.9656 169.291 57.9769 170.458C58.6771 171.314 59.3772 172.247 60.1552 173.025C61.2443 174.114 62.3335 175.126 63.4226 176.059C64.434 176.993 65.5231 177.848 66.6901 178.626C68.0904 179.638 69.4907 180.571 70.891 181.505C72.2914 182.361 73.6917 183.216 75.1698 183.994C76.1812 184.539 77.2703 184.928 78.3595 185.395C79.682 185.939 80.9267 186.484 82.2493 186.873C84.1164 187.417 85.9057 187.884 87.7728 188.273C88.6285 188.507 89.4843 188.662 90.34 188.818C90.8068 188.896 91.2736 188.818 91.7403 188.896C92.1293 188.896 92.4405 188.973 92.7517 189.207C93.1407 189.44 93.5297 189.362 93.9187 189.207C94.3854 189.129 94.8522 189.129 95.3967 189.051C95.7079 189.051 96.0191 189.051 96.3303 189.051C96.4859 189.051 96.6415 188.973 96.7971 188.973C98.4308 189.051 99.9867 189.207 101.62 189.207C102.476 189.207 103.332 189.129 104.188 189.051C104.81 189.051 105.432 188.973 106.055 188.973C107.066 188.896 108.078 188.818 109.089 188.74C110.256 188.662 111.423 188.662 112.59 188.584C112.823 188.584 113.056 188.429 113.29 188.351C113.679 188.273 113.99 188.273 114.379 188.273C114.768 188.273 115.157 188.195 115.624 188.195C116.168 188.195 116.635 188.118 117.18 188.118C117.569 188.118 117.88 188.195 118.269 188.04C119.669 187.651 121.147 187.806 122.548 187.884C122.625 187.884 122.781 187.884 122.859 187.884C123.792 187.806 124.804 187.806 125.659 187.651C127.137 187.34 128.693 187.651 130.172 187.028C130.483 186.951 130.794 186.873 131.105 186.873C132.272 186.951 133.283 186.639 134.373 186.328C135.773 185.939 137.251 185.55 138.651 185.239C139.274 185.084 139.896 185.006 140.518 184.85C140.985 184.695 141.452 184.461 141.919 184.306C142.385 184.15 142.93 183.994 143.397 183.839C144.719 183.372 146.042 182.983 147.287 182.516C148.065 182.205 148.765 181.66 149.465 181.272C150.243 180.883 151.021 180.416 151.799 180.027C152.421 179.638 153.044 179.327 153.744 178.938C154.055 178.782 154.366 178.626 154.677 178.471C154.833 178.393 154.988 178.315 155.144 178.237C155.766 177.693 156.389 177.226 157.011 176.682C157.4 176.37 157.789 176.137 158.1 175.826C158.645 175.281 159.189 174.737 159.734 174.27C160.123 173.881 160.59 173.492 161.057 173.025C161.834 172.169 162.69 171.314 163.468 170.458C164.324 169.447 165.102 168.357 165.88 167.19C166.891 165.712 167.903 164.234 168.836 162.756C169.225 162.056 169.303 161.122 169.692 160.422C170.236 159.411 170.314 158.322 170.625 157.233C170.937 156.377 171.092 155.521 171.403 154.665C171.481 154.354 171.481 154.121 171.092 153.965C170.703 153.732 170.47 153.421 170.548 152.954C170.625 152.487 170.937 152.254 171.403 152.176C171.87 152.098 171.948 151.865 171.792 151.476C171.715 151.242 171.715 151.009 171.792 150.776C172.337 149.297 172.337 147.741 172.57 146.263C172.726 145.563 172.648 144.785 172.648 144.007C172.648 143.774 172.726 143.541 172.726 143.307C172.804 142.918 172.959 142.296 173.115 141.596Z" fill="#333161"/>
<path d="M118.736 93.8293C118.58 92.2734 119.125 91.0287 119.98 89.7839C120.68 88.7726 121.303 87.7613 121.925 86.7499C122.392 86.1275 122.936 85.5052 123.403 84.8828C124.103 83.9493 124.804 82.9379 125.582 82.0044C126.126 81.3042 126.593 80.604 127.137 79.9817C127.915 79.0481 128.693 78.1146 129.471 77.181C130.016 76.4809 130.405 75.7029 130.872 75.0805C131.105 74.7693 131.494 74.536 131.883 74.4582C133.206 74.3026 134.372 74.6915 135.228 75.7807C135.928 76.6364 136.706 77.4144 137.329 78.348C137.796 79.0481 138.107 79.8261 138.418 80.5262C138.418 80.604 138.418 80.6818 138.496 80.6818C139.118 81.3042 139.274 82.16 139.507 83.0157C139.818 83.8715 140.285 84.7272 140.518 85.583C140.907 86.9055 141.219 88.228 141.53 89.5506C141.763 90.3285 141.997 91.1843 142.152 91.9622C142.152 92.1178 142.308 92.1956 142.308 92.3512C142.463 93.2848 142.619 94.2961 142.852 95.2297C142.93 95.4631 142.93 95.6965 143.008 95.852C143.163 96.63 142.774 97.2524 142.074 97.4857C141.374 97.6413 140.674 97.3302 140.441 96.5522C140.207 95.7742 139.818 94.9963 139.818 94.0627C139.818 93.207 139.429 92.3512 139.274 91.4955C138.962 90.2507 138.651 89.006 138.34 87.7613C138.184 87.2945 138.029 86.9055 137.873 86.4387C137.64 85.6608 137.407 84.8828 137.095 84.1049C136.629 83.0935 136.084 82.1599 135.617 81.1486C135.384 80.6818 135.15 80.2151 134.917 79.6705C134.528 78.5035 133.75 77.6478 132.894 76.8698C132.583 76.6364 132.35 76.5586 132.116 76.8698C131.416 77.8034 130.638 78.8147 129.938 79.7483C129.549 80.2929 129.082 80.8374 128.616 81.382C127.682 82.5489 126.749 83.7159 125.815 84.8828C124.881 86.0498 123.948 87.2167 123.17 88.4614C122.314 89.7062 121.536 91.0287 120.758 92.3512C120.525 92.818 120.447 93.3626 120.214 93.8293C120.136 93.9849 119.902 94.1405 119.747 94.2183C119.358 94.3739 118.891 94.4517 118.424 94.5295C116.713 94.9963 115.079 95.3853 113.29 95.2297C112.745 95.1519 112.201 95.3075 111.656 95.3075C110.334 95.3075 108.933 95.3853 107.611 95.3853C106.133 95.3853 104.654 95.3853 103.176 95.3853C102.554 95.3853 101.854 95.4631 101.231 95.4631C99.8311 95.4631 98.353 95.4631 96.9526 95.4631C95.4745 95.5409 93.9964 95.6187 92.5183 95.7742C91.6625 95.852 91.1958 95.5408 91.0402 94.3739C90.9624 93.6737 90.5734 93.207 90.34 92.6624C89.6398 91.1843 89.0953 89.7062 88.4729 88.228C88.0839 87.1389 87.6949 86.1275 87.2282 85.0384C86.6058 83.6381 85.8279 82.3155 85.3611 80.8374C84.9721 79.8261 84.1941 79.2037 83.8052 78.1924C83.3384 77.0254 82.4826 76.1697 81.6268 75.3139C81.1601 74.8471 80.6155 74.9249 80.2265 75.5473C79.7597 76.3253 79.5264 77.181 78.9818 77.8812C77.9705 79.2815 77.737 80.993 76.9591 82.5489C76.4145 83.5603 76.1811 84.7272 75.87 85.8164C75.4032 87.4501 74.9364 89.1616 74.5474 90.8731C74.1584 92.429 74.0029 94.0627 73.6917 95.6186C73.4583 96.63 73.6917 97.5636 73.7695 98.5749C73.7695 98.7305 73.7695 98.9639 73.7695 99.1973C73.6917 99.664 73.2249 99.8196 72.9137 99.5084C72.2914 98.8861 71.9023 98.1081 71.9023 97.1746C71.9801 96.0076 71.9802 94.8407 72.2135 93.6737C72.5247 91.8844 72.7581 90.0951 73.2249 88.3058C73.7695 86.2053 74.4696 84.1826 75.092 82.0822C75.481 80.6818 76.1811 79.3593 76.8813 78.0368C77.1925 77.4144 77.3481 76.792 77.6593 76.1697C77.8926 75.7029 78.2038 75.2361 78.515 74.7693C78.8262 74.3026 79.1374 73.8358 79.5264 73.5246C80.4599 72.5911 82.327 72.5133 83.3384 73.6802C83.7273 74.0692 84.1163 74.4582 84.4275 74.8471C84.7387 75.2361 84.9721 75.6251 85.2055 76.0141C85.2833 76.1697 85.4389 76.3253 85.5945 76.4808C86.2168 77.1032 86.8392 77.7256 86.9948 78.6591C86.9948 78.7369 86.9948 78.8925 87.0725 78.9703C88.1617 80.0595 88.4729 81.5376 89.0953 82.8601C89.562 83.7937 90.1066 84.805 90.5734 85.8164C91.1957 87.2945 91.7403 88.7726 92.4405 90.2507C92.9073 91.3399 92.9851 92.5846 93.9186 93.4404C94.0742 93.596 94.3076 93.6737 94.4632 93.6737C95.7079 93.5182 97.0304 93.3626 98.2752 93.2848C99.4421 93.207 100.687 93.1292 101.854 93.1292C103.254 93.1292 104.577 93.207 105.977 93.2848C107.455 93.2848 108.933 93.2848 110.411 93.207C111.034 93.207 111.734 93.207 112.356 93.207C113.679 93.207 115.001 93.207 116.324 93.2848C117.024 93.5182 117.88 93.6738 118.736 93.8293Z" fill="#333161"/>
<path d="M110.567 141.829C109.945 142.529 109.478 143.385 108.778 143.93C108 144.552 107.533 145.33 106.833 146.03C106.288 146.575 105.588 146.886 105.043 147.353C104.421 147.819 103.877 148.208 103.254 148.675C102.632 149.064 102.009 149.609 101.387 149.92C100.22 150.465 99.0532 151.009 97.8862 151.398C96.8749 151.709 95.7858 151.943 94.6966 152.098C94.2298 152.176 93.6853 152.176 93.1407 152.254C91.8182 152.332 90.4178 152.332 89.0953 152.332C88.4729 152.332 87.8505 152.176 87.2282 152.098C87.1504 152.098 86.9948 152.02 86.917 152.02C85.8279 152.098 84.8165 151.709 83.8052 151.398C83.105 151.165 82.4048 150.854 81.7047 150.542C81.0823 150.231 80.46 149.92 79.9154 149.531C79.5264 149.22 79.293 148.753 79.1374 148.364C78.6706 147.275 78.9818 145.33 79.9154 144.552C80.3044 144.241 80.8489 144.241 81.3935 144.085C81.3935 144.085 81.6269 144.474 81.5491 144.552C81.4713 144.863 81.2379 145.174 81.0823 145.486C80.8489 146.03 80.6933 146.497 80.6155 147.042C80.6155 147.197 80.6155 147.353 80.7711 147.508C81.5491 148.208 82.4826 148.831 83.5718 148.986C84.5831 149.142 85.5944 149.453 86.6836 149.687C86.8392 149.764 87.0726 149.842 87.2282 149.842C88.5507 149.92 89.8733 149.92 91.1958 149.92C91.8182 149.92 92.5183 149.764 93.1407 149.687C93.9964 149.609 94.7744 149.531 95.6301 149.453C95.9413 149.453 96.1747 149.375 96.4081 149.22C97.7306 148.597 99.1309 148.053 100.453 147.43C101.309 146.964 102.243 146.497 103.021 145.952C103.488 145.641 103.721 145.097 104.188 144.785C104.732 144.319 105.355 143.852 105.899 143.385C105.977 143.307 106.133 143.23 106.133 143.152C106.677 142.374 107.222 141.674 107.688 140.818C108.389 139.651 109.011 138.484 109.089 137.006C109.089 136.461 109.244 135.839 109.322 135.372C108.466 135.294 107.533 135.217 106.599 134.983C105.666 134.75 104.11 133.349 104.577 132.182C104.732 131.716 105.043 131.482 105.51 131.171C106.522 130.393 107.688 130.627 108.855 130.627C109.789 130.627 110.645 130.471 111.501 130.938C112.278 131.327 112.745 131.949 113.056 132.805C113.29 133.427 113.056 133.894 112.512 134.283C112.201 134.516 111.812 134.75 111.423 134.983C112.512 135.683 112.123 136.772 112.045 137.706C111.967 138.717 112.278 139.651 112.59 140.507C112.745 140.818 112.901 141.129 113.056 141.44C113.29 141.751 113.523 142.14 113.834 142.452C114.612 143.152 115.39 143.852 116.246 144.552C116.557 144.863 116.868 145.097 117.257 145.33C118.269 145.875 119.202 146.341 120.214 146.808C121.303 147.353 122.314 147.819 123.403 148.286C123.637 148.442 123.948 148.52 124.259 148.597C125.348 148.753 126.437 148.831 127.526 148.986C127.993 149.064 128.46 149.142 128.927 149.22C130.483 149.375 132.039 148.986 133.595 148.753C134.45 148.597 135.228 148.52 136.084 148.364C136.317 148.286 136.551 148.131 136.784 148.053C137.484 147.819 138.185 147.586 138.962 147.353C140.129 147.042 140.985 146.419 141.608 145.33C142.23 144.241 142.774 144.007 143.475 144.241C144.175 144.474 144.486 145.019 144.408 146.186C144.408 146.653 144.097 147.042 143.941 147.508C143.864 147.742 143.708 147.975 143.475 148.208C143.163 148.52 142.852 148.986 142.463 149.142C141.374 149.609 140.285 149.92 139.196 150.387C138.573 150.62 137.951 151.009 137.251 151.32C137.095 151.398 136.94 151.476 136.784 151.476C135.617 151.631 134.373 151.631 133.206 151.865C131.65 152.254 130.172 151.631 128.616 151.943C126.826 152.254 125.193 151.554 123.559 151.087C122.548 150.776 121.614 150.465 120.68 150.153C119.902 149.842 119.202 149.531 118.502 149.22C117.102 148.597 115.857 147.819 114.69 146.808C113.368 145.719 112.278 144.552 111.423 143.074C111.189 142.607 110.8 142.218 110.567 141.829Z" fill="#333161"/>
<path d="M124.726 124.015C124.959 123.937 125.115 123.937 125.348 123.859C125.815 123.782 126.282 123.626 126.748 123.704C127.76 123.782 128.771 123.859 129.783 124.015C131.727 124.326 133.75 124.637 135.695 125.026C137.251 125.338 138.729 125.804 140.285 126.193C141.063 126.427 141.763 126.738 142.463 127.127C143.319 127.594 143.941 128.294 144.097 129.305C144.175 129.772 144.019 130.161 143.552 130.316C143.086 130.472 142.774 130.239 142.541 129.85C142.23 129.305 141.607 129.227 141.141 129.15C140.285 128.994 139.351 128.994 138.496 128.838C137.484 128.683 136.395 128.449 135.384 128.294C134.528 128.138 133.595 128.216 132.661 128.06C132.039 127.983 131.416 127.827 130.794 127.749C130.094 127.594 129.471 127.36 128.771 127.282C128.382 127.205 127.915 127.36 127.449 127.282C126.048 127.127 124.648 126.971 123.248 126.816C122.781 126.738 122.314 126.738 121.847 126.582C121.614 126.504 121.303 126.193 121.303 126.038C121.303 125.804 121.536 125.571 121.692 125.338C121.77 125.26 121.847 125.182 121.925 125.182C122.703 124.949 123.403 124.715 123.948 124.093C124.103 123.937 124.415 123.937 124.648 123.859C124.648 123.937 124.726 123.937 124.726 124.015Z" fill="#333161"/>
<path d="M77.8926 131.405C77.4258 131.327 77.0368 131.327 76.8034 131.172C76.4145 130.86 76.6479 130.471 76.8034 130.082C77.1924 129.227 77.8148 128.604 78.7483 128.293C80.1487 127.826 81.549 127.204 83.0271 126.815C84.3497 126.426 85.75 126.27 87.1503 126.115C88.2394 125.959 89.3286 125.881 90.4177 125.804C90.9623 125.804 91.5068 125.804 92.1292 125.804C92.8294 125.804 93.5295 125.726 94.2297 125.881C94.6965 125.959 95.0855 126.27 95.4745 126.504C95.6301 126.582 95.7078 127.048 95.63 127.204C95.5522 127.437 95.2411 127.593 95.0077 127.593C94.6187 127.593 94.3853 127.749 94.2297 128.138C94.1519 128.449 93.7629 128.76 93.4517 128.915C92.9072 129.071 92.2848 129.149 91.6624 129.149C90.1065 129.071 88.5506 129.149 87.0725 129.693C86.2945 130.005 85.361 129.927 84.583 130.16C83.7273 130.316 82.9493 130.627 82.1713 130.938C81.0822 131.327 79.993 131.716 78.9039 132.027C78.2037 132.105 78.0482 131.872 77.8926 131.405Z" fill="#333161"/>
<path d="M38.7613 72.6691C37.5944 73.1359 36.6608 72.7469 35.7273 72.2801C34.1713 71.5022 32.9266 70.3352 31.6819 69.0905C31.1373 68.5459 30.5149 67.9236 30.0482 67.3012C29.737 66.9122 29.348 66.4454 29.1146 65.9787C28.181 64.5005 27.2475 63.0224 26.3917 61.5443C26.0028 60.8442 25.8472 59.9884 25.7694 59.1326C25.6916 58.8992 26.0028 58.4325 26.2362 58.3547C26.4696 58.2769 26.9363 58.4325 27.0919 58.5881C27.5587 59.2882 28.0255 59.9884 28.4145 60.6886C29.1146 62.0111 29.737 63.3336 30.7483 64.4228C31.5263 65.2785 32.2264 66.2899 33.0044 67.2234C33.4712 67.8458 34.0157 68.3904 34.5603 68.9349C35.805 70.0241 37.1276 71.1132 38.3723 72.2023C38.5279 72.3579 38.6057 72.5135 38.7613 72.6691Z" fill="#333161"/>
<path d="M176.927 73.0577C176.304 73.0577 175.76 72.4354 175.993 71.813C176.538 70.4905 177.082 69.0902 177.783 67.8454C178.405 66.6785 179.105 65.5893 179.805 64.5002C180.272 63.8 180.661 63.0998 181.128 62.4775C181.75 61.5439 182.373 60.6104 183.073 59.6768C183.462 59.2101 183.928 58.8211 184.317 58.4321C184.706 58.1209 185.018 57.7319 185.407 57.4985C185.64 57.343 186.029 57.2652 186.185 57.4207C186.34 57.4985 186.418 57.9653 186.34 58.1987C185.951 59.0545 185.562 59.988 185.018 60.766C184.24 62.0107 183.306 63.0999 182.528 64.3446C181.672 65.5115 180.894 66.7563 180.116 68.001C179.494 68.9345 178.872 69.8681 178.327 70.8795C178.016 71.3462 177.783 71.8908 177.705 72.4354C177.627 72.9799 177.238 72.9021 176.927 73.0577Z" fill="#333161"/>
<path d="M10.2101 79.3594C10.7547 79.4372 11.2993 79.5928 11.8439 79.5928C13.7888 79.7483 15.578 80.4485 17.2118 81.5377C18.3009 82.2378 19.3901 82.8602 20.4792 83.5603C21.1794 84.0271 21.8017 84.5717 22.4241 85.0385C23.2021 85.583 23.9022 86.0498 24.6802 86.5944C25.0692 86.8278 25.5359 87.0612 25.9249 87.2946C26.0027 87.3724 26.1583 87.5279 26.1583 87.5279C26.0805 87.6057 26.0027 87.7613 25.8471 87.7613C24.6802 87.9947 23.591 87.9169 22.5797 87.139C22.0351 86.75 21.3349 86.5166 20.7126 86.2054C19.9346 85.7386 19.2345 85.2719 18.4565 84.8051C17.7564 84.4161 17.0562 83.9493 16.356 83.5603C15.4225 83.0936 14.4889 82.7046 13.5553 82.3156C12.7774 82.0044 11.9994 81.6155 11.1437 81.3821C10.6769 81.2265 10.2101 81.1487 9.74337 80.9931C9.27659 80.8375 8.88761 80.6041 8.96541 79.9817C9.19879 79.3594 9.74335 79.3594 10.2101 79.3594Z" fill="#333161"/>
<path d="M17.0562 100.831C16.356 100.831 15.6559 100.986 15.0335 100.831C13.711 100.52 12.3885 100.131 11.0659 99.6639C9.6656 99.1194 8.34306 98.4192 7.02053 97.7968C6.00918 97.2523 4.92002 96.7855 3.98647 96.1631C2.81953 95.463 1.73042 94.685 0.563478 93.9071C0.485682 93.8293 0.407849 93.7514 0.330053 93.6736C0.0966648 93.3625 -0.136713 93.0513 0.0966744 92.7401C0.330062 92.5067 0.796847 92.4289 1.03023 92.5067C1.6526 92.7401 2.19716 93.1291 2.81953 93.3625C3.83088 93.907 4.84223 94.4516 5.93137 94.9962C7.3317 95.7741 8.73204 96.5521 10.1324 97.2523C11.5327 97.9524 13.0886 98.497 14.4889 99.1194C15.3447 99.5083 16.2004 100.053 17.0562 100.52C17.0562 100.598 17.0562 100.753 17.0562 100.831Z" fill="#333161"/>
<path d="M191.708 81.4592C191.241 81.3814 190.852 81.3036 190.697 80.759C190.541 80.2145 190.774 79.9033 191.241 79.6699C192.642 78.8919 194.042 78.114 195.287 76.947C196.376 75.9357 197.465 74.9244 198.632 74.0686C199.565 73.3684 200.577 72.7461 201.588 72.2015C201.744 72.1237 202.21 72.1237 202.366 72.2793C202.522 72.4349 202.444 72.9017 202.366 73.0572C201.277 74.302 200.421 75.7801 199.021 76.7137C198.71 76.9471 198.476 77.1804 198.165 77.4916C196.92 78.8142 195.442 79.8255 193.886 80.6813C193.264 81.148 192.408 81.2258 191.708 81.4592Z" fill="#333161"/>
<path d="M213.724 98.7302C213.647 98.9636 213.647 98.9636 213.647 98.9636C212.402 99.4304 211.235 99.8971 209.99 100.208C209.134 100.442 208.279 100.208 207.345 100.286C205.867 100.364 204.467 100.519 202.988 100.675C202.444 100.753 201.822 100.831 201.277 100.831C200.577 100.908 199.954 100.442 199.954 99.8971C199.954 99.3525 200.499 98.808 201.121 98.6524C202.444 98.419 203.766 98.1078 205.167 97.8744C206.023 97.7966 206.8 97.8744 207.656 97.8744C208.123 97.8744 208.59 97.7966 209.057 97.8744C209.679 97.9522 210.301 98.03 210.924 98.1856C211.935 98.5746 212.713 99.1192 213.724 98.7302Z" fill="#333161"/>
<path d="M37.4842 34.5821C37.4842 34.5821 27.0146 39.3631 20.8071 34.7335C14.5995 30.104 8.25739 26.8157 10.4046 22.8382C12.5518 18.8607 15.3543 17.2427 18.6444 17.3438C21.9647 17.3223 27.6398 20.6797 27.6398 20.6797C27.6398 20.6797 27.9469 12.8154 30.7148 8.16367C33.5584 3.46819 39.5606 2.31945 41.2021 5.16258C42.8435 8.00571 46.056 17.4182 44.3361 23.3603C42.5405 29.3462 37.4842 34.5821 37.4842 34.5821Z" fill="#E8380D"/>
<path d="M26.6197 17.6885C26.6499 17.5658 26.68 17.4431 26.5888 17.2851C26.1916 15.1978 26.674 13.2345 27.4446 11.4207C27.9432 10.1851 28.563 8.98481 29.2587 7.74077C29.8183 6.78588 30.5448 5.9452 31.1956 5.14826C31.8163 4.47403 32.4825 3.87877 33.1943 3.36249C33.6032 3.02113 34.1033 2.83773 34.6033 2.65432C36.5881 1.71901 38.4832 1.67789 40.3805 3.21499C40.5475 3.32921 40.7144 3.44342 40.8512 3.68035C42.325 5.88319 43.8745 8.0423 44.4696 10.6472C44.7292 11.9715 44.9131 13.3396 45.1271 14.5849C45.158 14.9883 45.2647 15.3479 45.2956 15.7513C45.464 16.9176 45.5869 18.005 45.3611 19.1883C45.1803 19.9246 45.3178 20.6876 45.2582 21.4591C45.1539 22.6777 44.9738 23.94 44.748 25.1233C44.6127 25.9385 44.523 26.8327 44.312 27.6917C43.9047 29.0852 43.4517 30.3997 42.9532 31.6352C42.6965 32.4152 42.3186 33.1599 41.895 33.8257C41.5016 34.3687 40.9868 34.8765 40.3353 35.1474C39.5323 35.5057 38.6064 34.7766 38.6505 33.8035C38.6953 33.3564 38.7402 32.9093 38.9064 32.4974C39.2086 31.7964 39.6321 31.1307 39.9343 30.4297C40.3726 29.4396 40.841 28.3267 41.1579 27.3013C41.3543 26.7668 41.4594 26.0743 41.6557 25.5397C42.1991 23.8571 42.2572 22.0334 42.3608 20.2888C42.4343 18.6668 42.4622 16.9659 42.3687 15.2298C42.3062 13.897 41.9708 12.6164 41.8325 11.3273C41.7846 9.67012 40.7366 8.37974 40.1887 6.90596C39.8232 5.74808 37.8957 4.33371 36.8647 4.29716C36.6676 4.30564 36.3948 4.35785 36.1675 4.48904C34.471 5.57382 32.9871 6.8518 31.898 8.63888C31.4745 9.30463 30.8538 9.97886 30.5516 10.6798C29.9927 12.1608 29.4339 13.6418 29.1633 15.2722C28.9075 16.5782 28.7428 18.0422 29.3209 19.3933C29.6709 20.3495 30.2482 21.1745 30.7498 22.0432C31.0234 22.5171 31.3271 22.8682 31.525 23.3858C31.8596 24.1403 31.5574 24.8413 30.997 25.2702C30.3911 25.62 29.5571 25.575 29.1166 24.9869C28.8585 24.7147 28.6305 24.3198 28.4481 24.0039C27.8252 23.1 27.3839 21.9858 26.5794 21.292C25.213 19.9749 23.6348 18.9906 21.7699 18.909C20.6175 18.8372 19.4652 18.7654 18.3283 18.8953C16.57 19.1734 14.6749 19.2145 13.1453 20.4135C12.9938 20.5009 12.7666 20.6321 12.6151 20.7196C11.5848 21.2091 10.859 22.5759 11.604 24.0412C12.349 25.5065 13.1698 26.928 14.3236 28.052C15.4319 29.0969 16.5858 30.2209 17.9816 30.8892C19.0891 31.4081 20.1363 32.1724 21.2137 32.814C21.335 32.8492 21.3806 32.9282 21.5019 32.9635C23.5802 33.7643 25.6283 34.6879 27.7212 35.1643C29.3744 35.5788 31.0422 35.6689 32.6939 35.0312C32.9211 34.9 33.1483 34.7688 33.3756 34.6376C34.3301 34.1918 35.3148 33.6233 36.2693 33.1775C36.4208 33.0901 36.6634 33.1606 36.9061 33.2311C36.8458 33.4765 36.9069 33.7571 36.801 33.9236C35.8936 35.5005 34.6067 36.77 32.7425 37.2145C32.0453 37.4064 31.2872 37.3176 30.5444 37.4305C28.7861 37.7085 27.1175 37.0924 25.4643 36.6779C23.8568 36.3425 22.4154 35.5951 21.0041 34.7251C20.2151 34.233 19.3657 33.9862 18.5008 33.5378C17.5904 33.0105 16.7557 32.4394 15.921 31.8683C15.7541 31.754 15.6629 31.5961 15.496 31.4819C13.5082 30.3129 11.9594 28.6799 10.5922 26.8366C9.17949 24.9145 8.50948 22.8794 9.64338 20.6452C9.91545 20.0669 10.3545 19.6028 10.7935 19.1388C11.8531 18.0005 13.1864 17.336 14.7476 17.0665C14.9447 17.058 15.1719 16.9268 15.3991 16.7956C15.9749 16.5685 16.5051 16.2623 17.2332 16.4738C17.4758 16.5443 17.8244 16.4484 18.0972 16.3962C19.7945 15.8374 21.4933 16.3309 23.2523 16.5789C24.1774 16.7819 25.3607 17.257 26.6197 17.6885Z" fill="#333161"/>
<path d="M82.0315 50.9309C82.0315 50.9309 76.0315 51.5528 73.7235 48.2144C71.4155 44.876 68.8161 42.1813 70.5483 40.5653C72.2806 38.9493 73.9433 38.6148 75.5604 39.2158C77.213 39.7609 79.4695 42.3784 79.4695 42.3784C79.4695 42.3784 80.9385 38.524 83.0918 36.677C85.2901 34.821 88.4634 35.2552 88.8027 36.942C89.142 38.6289 89.1619 43.8413 87.313 46.5046C85.4192 49.1769 82.0315 50.9309 82.0315 50.9309Z" fill="#E8380D"/>
<path d="M79.4636 40.7222C79.4991 40.6663 79.5346 40.6104 79.5158 40.5167C79.6679 39.4136 80.2361 38.5192 80.9225 37.7474C81.3769 37.2172 81.8857 36.7248 82.4394 36.2234C82.8772 35.8429 83.3788 35.547 83.8354 35.2601C84.2565 35.0291 84.687 34.845 85.127 34.7078C85.3872 34.6067 85.6662 34.5993 85.9453 34.5919C87.0876 34.4597 88.0357 34.7565 88.7207 35.8375C88.7845 35.9221 88.8483 36.0068 88.8765 36.1474C89.2398 37.4881 89.6479 38.8198 89.5074 40.2132C89.4146 40.9143 89.277 41.6246 89.1748 42.2789C89.1226 42.4844 89.1154 42.6809 89.0632 42.8864C88.9516 43.4938 88.8306 44.0544 88.5204 44.6044C88.3073 44.9397 88.2479 45.3417 88.0892 45.7149C87.8334 46.3026 87.5326 46.8994 87.2224 47.4493C87.0188 47.8315 86.8246 48.2606 86.576 48.6519C86.1404 49.2758 85.6954 49.8528 85.241 50.383C84.9829 50.7274 84.6706 51.034 84.3488 51.2938C84.0625 51.4976 83.7218 51.6636 83.3529 51.6891C82.8941 51.7326 82.5563 51.2156 82.7411 50.7396C82.8382 50.5251 82.9353 50.3105 83.0868 50.1338C83.3542 49.8362 83.676 49.5765 83.9435 49.2789C84.3269 48.8606 84.7458 48.3863 85.0748 47.9301C85.2618 47.6974 85.43 47.3711 85.6169 47.1385C86.1685 46.3938 86.5026 45.4978 86.8461 44.6486C87.1541 43.8554 87.4527 43.0153 87.6969 42.1374C87.8889 41.465 87.9367 40.7729 88.0838 40.1095C88.3375 39.2784 88.033 38.4621 88.0076 37.6385C88.0199 37.0022 87.2993 35.9771 86.7934 35.7864C86.6941 35.7576 86.5498 35.7379 86.415 35.765C85.3909 36.0198 84.4399 36.4061 83.5999 37.1113C83.2781 37.371 82.857 37.602 82.5896 37.8996C82.0641 38.5415 81.5386 39.1835 81.1313 39.948C80.7856 40.5538 80.4588 41.2533 80.5197 42.0211C80.5335 42.5546 80.6821 43.061 80.7858 43.5764C80.8424 43.8575 80.9344 44.0827 80.9461 44.3729C80.9859 44.8037 80.7185 45.1012 80.3684 45.2204C80.0089 45.2927 79.6023 45.1308 79.4819 44.7649C79.3993 44.5866 79.3522 44.3523 79.3145 44.1648C79.1564 43.6116 79.1238 42.9844 78.8403 42.5052C78.3822 41.6223 77.7632 40.8693 76.8506 40.5166C76.2903 40.288 75.73 40.0594 75.1436 39.9336C74.2238 39.7774 73.2757 39.4806 72.3154 39.82C72.2255 39.8381 72.0907 39.8652 72.0008 39.8833C71.4072 39.954 70.8179 40.5113 70.9426 41.3637C71.0674 42.2162 71.237 43.0596 71.6219 43.8109C71.9974 44.5154 72.3824 45.2668 72.9637 45.8324C73.4269 46.2755 73.819 46.8304 74.2467 47.3294C74.3011 47.3672 74.3105 47.414 74.3649 47.4518C75.263 48.1975 76.1256 48.999 77.0852 49.586C77.8369 50.0686 78.6502 50.3925 79.5772 50.3523C79.712 50.3251 79.8468 50.298 79.9817 50.2709C80.5303 50.2093 81.1145 50.0918 81.6632 50.0301C81.7531 50.0121 81.8618 50.0877 81.9706 50.1633C81.8995 50.2751 81.8829 50.4247 81.8024 50.4897C81.0878 51.1209 80.2361 51.536 79.2359 51.4447C78.8575 51.4233 78.4958 51.2523 78.1081 51.1841C77.1883 51.0278 76.4627 50.4425 75.711 49.9599C74.9688 49.5242 74.378 48.9118 73.8228 48.2434C73.5132 47.8669 73.1327 47.6022 72.7782 47.2347C72.4143 46.8204 72.0954 46.397 71.7765 45.9737C71.7127 45.889 71.6938 45.7953 71.63 45.7106C70.8385 44.7973 70.3426 43.727 69.9722 42.5827C69.5923 41.3916 69.6002 40.2687 70.5374 39.3489C70.7693 39.1072 71.065 38.9503 71.3607 38.7933C72.0775 38.4053 72.8509 38.2985 73.6714 38.426C73.7707 38.4547 73.9055 38.4276 74.0403 38.4005C74.3643 38.3841 74.6789 38.3208 75.0051 38.5477C75.1138 38.6233 75.303 38.634 75.4472 38.6538C76.3837 38.6604 77.1448 39.1898 77.9769 39.6075C78.4024 39.8631 78.9105 40.2972 79.4636 40.7222Z" fill="#333161"/>
</svg>
