<svg width="149" height="105" viewBox="0 0 149 105" fill="none" xmlns="http://www.w3.org/2000/svg">
<path d="M70.1785 17.1707C70.1785 17.1707 63.8311 16.5644 62.1352 12.6238C60.4394 8.68312 58.3074 5.34873 60.4394 4.03518C62.5713 2.72164 64.3641 2.72164 65.9146 3.68154C67.5135 4.59092 69.3063 7.77374 69.3063 7.77374C69.3063 7.77374 71.6321 4.0857 74.2485 2.62059C76.9135 1.15548 80.1114 2.26695 80.1114 4.0857C80.1114 5.90446 79.0454 11.3102 76.5743 13.6847C74.0547 16.0592 70.1785 17.1707 70.1785 17.1707Z" fill="#FF9DAA"/>
<path d="M64.0249 102.046C64.0249 102.046 50.1189 100.328 45.9519 95.68C41.7849 91.0321 36.4066 82.1404 36.1643 76.8862C35.9221 71.632 35.7767 61.4268 38.6354 57.0819C41.4942 52.7371 45.4674 48.3923 47.9385 46.6746C50.4096 44.9064 51.5725 43.3402 51.5725 43.3402C51.5725 43.3402 54.1405 37.0756 54.7704 34.1959C55.4003 31.3162 57.6291 28.6891 57.6291 28.6891L65.1394 40.7637L81.6135 38.8439C81.6135 38.8439 83.8908 33.6907 86.6526 31.0636C89.4144 28.4365 89.4144 28.4365 89.4144 28.4365L95.7618 41.0163C95.7618 41.0163 106.955 46.1694 109.474 48.4428C111.994 50.7668 117.808 66.1252 115.046 77.4419C112.284 88.7586 109.183 92.8003 105.307 94.8717C101.431 96.8925 88.7361 103.864 84.7629 103.561C80.7413 103.208 68.7734 104.37 64.0249 102.046Z" fill="#FFF9DF"/>
<path d="M48.2776 88.1524C54.1113 88.1524 58.8404 84.081 58.8404 79.0586C58.8404 74.0363 54.1113 69.9648 48.2776 69.9648C42.4439 69.9648 37.7148 74.0363 37.7148 79.0586C37.7148 84.081 42.4439 88.1524 48.2776 88.1524Z" fill="#FFD3D6"/>
<path d="M103.514 88.1524C109.348 88.1524 114.077 84.081 114.077 79.0586C114.077 74.0363 109.348 69.9648 103.514 69.9648C97.6807 69.9648 92.9516 74.0363 92.9516 79.0586C92.9516 84.081 97.6807 88.1524 103.514 88.1524Z" fill="#FFD3D6"/>
<path d="M59.9063 54.2021C59.3734 54.3537 54.7219 55.2631 54.2373 56.4756C53.7043 57.6881 52.5415 63.7506 53.6074 65.6704C54.6249 67.5397 58.0167 68.247 59.9548 67.4387C61.8929 66.6303 64.4609 63.8011 64.4609 61.5277C64.4609 59.2543 63.0558 56.2735 62.5228 55.4652C61.9898 54.6063 59.9063 54.2021 59.9063 54.2021Z" fill="white"/>
<path d="M86.8949 52.6862C86.8949 52.6862 84.7146 52.1305 83.5517 54.7071C82.3888 57.2836 80.6929 60.618 82.3888 63.7503C84.0846 66.8321 87.5733 67.6404 90.1413 66.4279C92.7093 65.2154 94.4052 64.8113 93.4846 62.1336C92.564 59.456 92.1763 55.2628 91.1588 54.3029C90.1413 53.343 86.8949 52.6862 86.8949 52.6862Z" fill="white"/>
<path d="M71.5351 69.8125L68.095 76.8854C68.095 76.8854 70.4207 86.6865 73.3279 87.5454C76.2836 88.4042 77.931 80.8766 77.931 80.8766L77.3011 78.5021L71.5351 69.8125Z" fill="white"/>
<path d="M114.319 74.2587C114.416 73.9051 114.513 73.5009 114.562 73.1472C114.61 72.8441 114.61 72.4905 114.659 72.1368C114.659 71.1769 114.707 70.2675 114.707 69.3076C114.707 68.4993 114.562 67.691 114.513 66.8826C114.465 66.4279 114.513 66.0238 114.465 65.5691C114.368 64.7607 114.319 64.0029 114.223 63.1946C114.174 62.6389 114.077 62.0326 113.98 61.4769C113.98 61.3253 113.98 61.1738 113.932 61.0222C113.786 60.3654 113.738 59.6581 113.544 59.0014C113.253 57.9909 112.963 56.93 112.575 55.9196C112.236 55.1112 111.848 54.3029 111.412 53.5451C110.492 52.08 109.426 50.7159 108.311 49.4024C107.681 48.6951 106.955 48.0888 106.228 47.432C105.598 46.8763 104.968 46.3711 104.29 45.8659C103.805 45.5122 103.224 45.2091 102.691 44.8555C102.351 44.6534 101.964 44.4513 101.625 44.2492C100.462 43.643 99.2989 42.9862 98.0876 42.3799C97.6515 42.1778 97.167 41.9758 96.7309 41.8242C96.3917 41.6726 96.1979 41.319 96.3433 41.0159C96.4886 40.6622 96.8278 40.5612 97.167 40.7127C98.136 41.1169 99.1536 41.42 100.074 41.8747C100.946 42.3294 101.915 42.5315 102.739 43.1883C103.127 43.5419 103.708 43.6935 104.144 43.9461C104.58 44.1987 104.968 44.4513 105.356 44.7039C105.84 45.007 106.325 45.3607 106.761 45.6638C107.003 45.8659 107.245 46.068 107.536 46.2701C108.844 47.3815 109.959 48.6445 111.025 49.9581C111.655 50.7159 112.188 51.6253 112.72 52.4336C113.06 52.9388 113.399 53.3935 113.641 53.9492C113.883 54.4039 113.98 54.9091 114.223 55.4144C114.707 56.4753 114.949 57.6373 115.192 58.7487C115.337 59.4055 115.531 60.1128 115.676 60.7696C115.773 61.1232 115.773 61.5274 115.821 61.9316C115.967 62.8915 116.112 63.8514 116.258 64.8618C116.5 66.4279 116.597 68.0446 116.548 69.6613C116.5 70.3686 116.597 71.0254 116.548 71.7327C116.548 72.0863 116.451 72.4905 116.403 72.8441C116.354 73.2483 116.451 73.703 116.354 74.0566C116.064 75.1176 116.112 76.2795 115.725 77.3405C115.434 78.1993 115.385 79.1592 115.192 80.0686C115.192 80.1697 115.143 80.3212 115.095 80.4223C114.562 81.5843 114.416 82.8978 113.883 84.0598C113.593 84.666 113.302 85.2723 113.011 85.8785C112.72 86.5353 112.478 87.1921 112.187 87.7983C111.897 88.3541 111.509 88.8593 111.218 89.415C111.17 89.4655 111.122 89.4655 111.122 89.5161C110.879 90.2234 110.346 90.7286 109.91 91.3348C109.813 91.4864 109.716 91.6885 109.571 91.7895C108.796 92.6484 108.021 93.4567 107.245 94.3156C107.051 94.5176 106.761 94.6692 106.518 94.8208C105.84 95.2249 105.113 95.6291 104.387 96.0333C104.193 96.1343 103.999 96.1848 103.805 96.2354C103.66 96.2859 103.466 96.3364 103.321 96.3869C102.788 96.5385 102.303 96.7911 101.867 97.2458C101.625 97.5489 101.14 97.5489 100.753 97.7005C100.413 97.852 100.026 97.9531 99.6866 98.1551C99.0082 98.5593 98.3783 99.0645 97.5546 99.0645C97.5062 99.0645 97.4093 99.1151 97.3608 99.1151C96.7309 99.4687 96.0526 99.8729 95.4227 100.227C95.1804 100.328 94.8897 100.378 94.6474 100.429C94.5505 100.429 94.4051 100.429 94.3082 100.479C93.5814 100.782 92.9031 101.035 92.1763 101.338C92.0794 101.389 92.0309 101.389 91.934 101.389C91.1588 101.439 90.4804 101.742 89.8506 102.146C89.6567 102.247 89.4629 102.247 89.2691 102.348C88.9299 102.449 88.5908 102.55 88.2031 102.652C87.767 102.803 87.331 103.005 86.8464 103.106C86.1196 103.258 85.3444 103.359 84.6176 103.51C84.4722 103.51 84.3753 103.561 84.23 103.611C83.697 103.712 83.164 103.814 82.631 103.864C82.0011 103.915 81.3228 103.864 80.6929 103.864C80.4991 103.864 80.2568 103.915 80.063 103.915C79.8207 103.915 79.5785 103.915 79.3362 103.915C79.1424 103.915 78.9001 103.864 78.7063 103.915C77.8826 104.066 77.1073 104.268 76.2836 104.369C75.7022 104.47 75.0723 104.47 74.4909 104.42C73.4733 104.369 72.4074 104.319 71.3899 104.218C70.5662 104.117 69.7424 103.915 68.9187 103.712C67.9012 103.46 66.9322 103.106 65.9631 102.803C64.8971 102.449 64.0734 101.742 63.6858 100.58C63.6373 100.429 63.6858 100.125 63.8312 100.024C63.9281 99.9234 64.2672 99.9739 64.3641 100.075C64.8487 100.53 65.3332 100.934 65.9631 101.136C66.6414 101.338 67.3198 101.54 67.9981 101.742C68.9187 101.995 69.7909 102.247 70.7115 102.348C71.6806 102.449 72.6496 102.753 73.6672 102.601C73.9579 102.55 74.297 102.652 74.6362 102.601C75.7022 102.449 76.7197 102.298 77.7372 102.146C77.9311 102.146 78.1249 102.146 78.3187 102.146C78.6094 102.096 78.9486 102.045 79.2393 101.995C79.4331 101.944 79.5785 101.894 79.7723 101.894C80.1599 101.894 80.596 101.894 80.9836 101.894C81.6619 101.894 82.3403 101.944 82.9702 101.944C83.4547 101.944 83.9392 101.843 84.4238 101.692C85.1021 101.54 85.732 101.338 86.4104 101.186C87.0403 101.035 87.6217 100.833 88.2516 100.631C88.3969 100.58 88.4939 100.53 88.6392 100.479C88.7846 100.429 88.9299 100.277 89.0753 100.277C89.6567 100.328 90.0928 100.024 90.5774 99.8224C91.3041 99.5697 92.0309 99.3677 92.7577 99.0645C93.1454 98.913 93.4845 98.7614 93.9206 98.7614C94.1144 98.7614 94.2598 98.5088 94.4536 98.4583C95.2289 98.1046 95.9557 97.8015 96.7309 97.4984C97.3608 97.1953 98.0391 96.9427 98.669 96.589C98.9113 96.4374 99.1051 96.1848 99.3474 96.0333C99.5412 95.8817 99.735 95.7302 99.9288 95.5786C100.123 95.427 100.365 95.2249 100.607 95.0734C100.801 94.9723 100.995 94.8208 101.237 94.7702C101.915 94.7197 102.497 94.4671 103.078 94.164C103.175 94.1135 103.272 94.063 103.369 94.0124C104.193 93.8103 104.92 93.3557 105.549 92.7494C105.695 92.5978 105.937 92.4968 106.082 92.3452C106.712 91.8905 107.342 91.4359 107.827 90.7791C108.021 90.5265 108.214 90.3244 108.408 90.0718L108.457 90.0213C108.844 89.415 109.232 88.8088 109.571 88.2025C110.104 87.3437 110.589 86.4343 111.073 85.5754C111.218 85.3228 111.267 85.0702 111.412 84.8176C111.558 84.3629 111.751 83.9587 111.897 83.5041C112.091 82.9483 112.284 82.3926 112.478 81.8369C112.575 81.5843 112.672 81.3317 112.72 81.1296C112.817 80.8264 112.866 80.5233 112.963 80.2202C113.011 79.9676 113.06 79.6645 113.157 79.4624C113.447 78.9066 113.544 78.3004 113.641 77.6941C113.738 77.1384 113.835 76.5321 113.98 75.9764C114.029 75.6228 114.174 75.3196 114.223 74.966C114.271 74.7639 114.319 74.5618 114.319 74.3597C114.368 74.3092 114.368 74.2587 114.319 74.2587Z" fill="#333161"/>
<path d="M57.9198 100.227C57.6291 100.277 57.3868 100.277 57.0961 100.328C56.127 100.479 55.2064 100.479 54.2374 100.328C53.3167 100.126 52.4446 99.8226 51.5724 99.3679C51.5724 99.3679 51.5724 99.3679 51.524 99.3679C50.3126 99.2669 49.5858 98.2564 48.6168 97.7512C48.0353 97.4986 47.5508 97.0944 47.0178 96.7408C46.9209 96.6903 46.824 96.6398 46.7271 96.5387C45.758 95.5283 44.789 94.5179 43.9168 93.4569C43.3354 92.8002 42.8993 92.0423 42.3663 91.335C42.2694 91.234 42.221 91.0824 42.124 91.0319C41.7849 90.8298 41.591 90.4762 41.4457 90.072C41.2034 89.5668 40.9127 89.1121 40.622 88.6574C40.5735 88.6069 40.5735 88.5564 40.5251 88.5564C40.2828 88.0007 40.0405 87.4449 39.7498 86.9397C39.556 86.5861 39.3622 86.2324 39.1684 85.8788C38.9746 85.5251 38.8292 85.121 38.6839 84.7673C38.6354 84.6663 38.6354 84.6158 38.587 84.5147C38.2478 83.7569 37.9086 82.9991 37.6179 82.2413C37.4725 81.8876 37.4241 81.4834 37.3272 81.1298C37.1333 80.5235 36.8426 79.9173 36.6488 79.311C36.5519 79.0584 36.5035 78.7553 36.455 78.5027C36.3581 78.048 36.2612 77.5933 36.1158 77.1386C36.1158 77.0881 36.1158 77.0376 36.1158 76.9871C35.7282 76.0272 35.6313 75.0168 35.4859 74.0063C35.4375 73.6527 35.3406 73.299 35.2921 72.9454C35.2437 72.5412 35.2921 72.1876 35.2921 71.7834C35.2921 71.4803 35.2437 71.1772 35.2437 70.874C35.2437 70.8235 35.1952 70.8235 35.1952 70.773C35.1952 70.1162 35.1952 69.4089 35.1952 68.7522C35.1952 68.5501 35.1468 68.3985 35.1468 68.1964C35.1468 67.4386 35.1952 66.6808 35.1952 65.923C35.1952 65.6198 35.1952 65.3672 35.1952 65.0641C35.1468 63.7506 35.4375 62.4875 35.7282 61.2245C35.922 60.3657 36.0674 59.4563 36.3097 58.5974C36.455 57.9912 36.7457 57.4354 37.0365 56.8797C37.4725 55.9703 37.9086 55.1115 38.3447 54.2021C38.3931 54.1516 38.3931 54.101 38.4416 54.0505C38.8777 53.4948 39.3137 52.9391 39.7498 52.3833C39.8952 52.1812 40.0406 51.9792 40.1859 51.7771C40.2828 51.676 40.3313 51.5245 40.4282 51.4234C40.8158 50.9687 41.2519 50.5141 41.688 50.0594C42.0756 49.6552 42.4632 49.3015 42.8993 48.9479C44.0137 47.988 45.1281 46.9776 46.291 46.1187C47.0178 45.563 47.7931 44.9567 48.8106 44.9567C49.1982 44.9567 49.5858 44.8052 49.925 44.7041C50.1673 44.6536 50.3611 44.6536 50.458 44.9062C50.5549 45.2093 50.3611 45.3104 50.1188 45.4619C49.392 45.9166 48.6168 46.2703 47.89 46.7755C47.0663 47.3312 46.3395 48.0385 45.5642 48.6448C45.3704 48.7963 45.1281 48.9479 44.9343 49.15C44.3529 49.7562 43.7714 50.3625 43.1416 50.9687C42.8508 51.2213 42.5601 51.4739 42.3179 51.7266C41.7849 52.3328 41.2034 52.9896 40.7189 53.6464C40.4282 54.0505 40.1859 54.5052 39.9437 54.9094C39.7498 55.2125 39.5076 55.5156 39.3137 55.8188C39.0715 56.2735 38.7808 56.6776 38.587 57.1828C38.3447 57.7386 38.1993 58.3448 38.054 58.9005C38.0055 59.0016 37.9571 59.1026 37.9571 59.2037C37.8602 59.6078 37.7148 59.9615 37.6179 60.3657C37.4725 60.8203 37.3272 61.3256 37.2303 61.7802C37.1334 62.5886 37.0849 63.4474 37.0365 64.2558C37.0365 64.5084 36.9395 64.761 36.9395 65.0136C36.8911 65.9735 36.8426 66.9334 36.8426 67.8933C36.8426 68.7016 36.9395 69.51 36.9395 70.3183C36.9395 70.5709 36.8911 70.874 36.9395 71.1266C37.1334 72.2886 37.3272 73.5011 37.521 74.6631C37.6179 75.2694 37.6663 75.8251 37.8117 76.4313C38.0055 77.1386 38.2478 77.7954 38.4416 78.5027C38.587 79.0079 38.7323 79.5131 38.8777 80.0183C38.9746 80.2709 39.0715 80.5741 39.1684 80.8267C39.2653 81.0793 39.4107 81.3319 39.5076 81.5845C39.9436 82.5949 40.2344 83.6558 40.7673 84.6157C41.155 85.323 41.4457 86.0809 41.7849 86.8387C41.8333 86.9902 41.9787 87.1418 42.0756 87.2934C42.1725 87.4449 42.3179 87.546 42.3663 87.6975C42.5117 88.3038 42.8993 88.7585 43.2869 89.2132C43.4323 89.4153 43.5292 89.7184 43.6745 89.971C43.723 90.072 43.723 90.1731 43.7715 90.2236C44.2075 90.7793 44.6436 91.3856 45.1281 91.9413C45.4189 92.2949 45.7096 92.6486 46.0487 93.0022C46.5333 93.5075 46.9694 94.0632 47.4539 94.5684C47.5024 94.6189 47.5508 94.6694 47.5993 94.72C48.423 95.0736 48.956 95.7809 49.6343 96.3366C50.2157 96.7913 50.7487 97.2965 51.524 97.3976C51.6693 97.3976 51.8147 97.4986 51.8631 97.5997C52.2992 98.1554 52.9776 98.1554 53.559 98.408C53.9951 98.6101 54.4312 98.7616 54.9157 98.9132C55.7394 99.1658 56.5631 99.4689 57.4353 99.671C57.726 99.7721 58.0167 99.7215 58.3074 99.7721C58.5012 99.7721 58.792 99.7721 58.792 100.075C58.792 100.378 58.5497 100.378 58.3074 100.378C58.1136 100.277 58.0167 100.277 57.9198 100.227Z" fill="#333161"/>
<path d="M71.196 67.4383C70.4692 67.4383 69.9846 66.9331 69.597 66.3774C69.2094 65.8216 69.2094 64.9628 69.5486 64.3565C69.8393 63.8513 70.3723 63.8513 70.8084 63.7503C71.2929 63.6492 71.8259 63.7503 72.3104 63.8008H72.3589C72.9888 64.205 73.6671 64.2555 74.3455 64.4576C74.83 64.6091 74.9269 65.3164 74.6362 65.7711C74.5393 65.9227 74.4908 66.1248 74.4423 66.2763C74.3939 66.8826 73.9094 67.1857 73.4733 67.4888C73.2795 67.5899 73.0372 67.6404 72.7465 67.7414C72.8434 68.0446 72.9403 68.3477 73.0372 68.6508C73.0857 68.8024 73.1341 69.0045 73.1826 69.156C73.2795 69.5097 73.2795 69.8633 73.4248 70.1664C73.9094 71.1263 74.3939 72.0862 74.8784 72.9956C74.9753 73.1977 75.1692 73.3493 75.2661 73.5008C75.5568 73.9555 75.8475 74.4102 76.1867 74.8649C76.332 75.0165 76.5258 75.1175 76.6712 75.2691C76.9619 75.5217 77.2526 75.7743 77.5434 75.9764C77.7372 76.1279 77.9794 76.2795 78.1733 76.4816C78.5609 76.8352 78.9485 77.1889 79.3846 77.492C79.5299 77.593 79.6753 77.7446 79.8207 77.7446C80.4506 77.7446 81.0804 77.7446 81.6619 77.7446C81.7103 77.7446 81.7588 77.7446 81.7588 77.7446C82.1949 77.9467 82.4371 77.6941 82.5825 77.3404C82.8248 76.8857 83.067 76.4816 83.2124 76.0269C83.3577 75.5722 83.7454 75.2691 84.1815 75.4206C84.6175 75.5217 84.8598 76.0269 84.7144 76.4816C84.5206 77.0373 84.2299 77.593 84.0361 78.1993C83.7938 78.9571 83.1639 79.1592 82.5825 79.4118C81.4196 79.8665 80.2567 79.5633 79.0454 79.4118C79.0454 79.4623 79.0454 79.5128 79.0454 79.6139C79.0454 80.6748 78.8031 81.6347 78.2702 82.5946C78.0763 82.9483 77.931 83.403 77.7856 83.7566C77.7372 83.8576 77.7372 83.9587 77.6887 84.0597C77.1557 84.767 76.6227 85.4743 76.0898 86.1311C75.799 86.4847 75.4114 86.7373 75.0238 87.0405C74.5393 87.4446 73.9094 87.4952 73.3279 87.4952C73.0372 87.4952 72.7949 87.2931 72.5527 87.192C71.3413 86.7373 70.7115 85.7774 70.2269 84.6155C69.9362 83.8576 69.6455 83.1503 69.3548 82.3925C69.1609 81.8873 69.0156 81.3821 68.9187 80.8769C68.7249 80.0686 68.4826 79.2602 68.2888 78.4014C68.1919 77.8962 68.1919 77.3404 68.095 76.7847C67.7558 77.0373 67.4166 77.2394 67.0775 77.4415C66.5445 77.7446 66.0115 78.0982 65.4785 78.3508C65.0909 78.5529 64.6548 78.7045 64.1703 78.6035C63.7342 78.5024 63.3466 78.5529 62.9105 78.4519C61.6507 78.1993 60.9724 77.2394 60.5363 76.0774C60.3909 75.7238 60.4878 75.2185 60.5363 74.8144C60.5847 74.6628 60.8754 74.4607 61.0208 74.4607C61.1662 74.4607 61.3115 74.7639 61.4569 74.9154C61.4569 74.9659 61.4569 75.0165 61.4569 75.067C61.2631 76.1279 61.7961 76.5826 62.6682 77.0878C63.7826 77.7446 64.8971 77.3404 65.8661 76.7342C66.6898 76.1784 67.4651 75.5722 68.1919 74.8144C68.7733 74.1576 69.2579 73.3493 69.7424 72.642C69.8878 72.3894 70.0331 72.1368 70.13 71.8336C70.2269 71.3284 70.2754 70.8737 70.3238 70.3685C70.3723 70.0149 70.3723 69.6107 70.4207 69.2571C70.4692 68.9034 70.4692 68.5498 70.6145 68.2466C70.663 68.0951 70.9537 67.8425 71.196 67.4383ZM71.6805 69.7623C71.6321 69.7623 71.6321 69.7623 71.5836 69.8128C71.5836 69.8633 71.5352 69.8633 71.5352 69.9138C71.5352 70.0149 71.5352 70.1159 71.5352 70.217C71.6805 71.3284 71.3413 72.3894 70.8084 73.2987C70.3238 74.1071 69.7424 74.8144 69.2579 75.5722C69.2094 75.6732 69.1609 75.7743 69.1609 75.8753C69.2579 76.5826 69.3063 77.2899 69.5001 77.9972C69.6455 78.6034 69.8877 79.2097 70.0816 79.816C70.3723 80.7253 70.663 81.6347 70.9537 82.5441C71.0991 82.8977 71.2444 83.2009 71.4383 83.5545C71.7774 84.2113 72.1166 84.8681 72.5042 85.5248C72.698 85.828 72.9403 85.929 73.2795 85.929C73.8609 85.929 74.2485 85.5754 74.6362 85.2722C75.5083 84.5144 76.0413 83.504 76.6712 82.5946C76.7681 82.4431 76.9135 82.1904 76.9135 81.9884C77.0588 81.18 77.2526 80.3212 77.3495 79.5128C77.398 79.2097 77.398 78.8055 77.3011 78.5529C77.0588 78.0477 76.865 77.492 76.2351 77.3404C76.1382 77.2899 75.9929 77.1889 75.8959 77.0878C75.5568 76.7342 75.1692 76.33 74.83 75.9764C74.5877 75.7237 74.2485 75.5722 74.1032 75.2691C73.6187 74.5112 73.2795 73.7029 72.7949 72.8946C72.3589 72.1873 72.0681 71.4295 71.8743 70.6211C71.8259 70.2675 71.729 70.0149 71.6805 69.7623ZM70.5176 65.2154C70.5176 65.2659 70.5176 65.3164 70.5176 65.3669C71.0506 66.0237 71.7774 66.1248 72.6011 66.1248C72.1651 65.8721 71.6805 65.6701 71.7774 64.9122C71.2929 65.0638 70.9053 65.1143 70.5176 65.2154Z" fill="#333161"/>
<path d="M69.6455 6.05545C69.6939 6.00493 69.7424 5.95441 69.7424 5.85337C70.13 4.7419 70.9053 3.93357 71.7774 3.2768C72.3589 2.82211 72.9888 2.41794 73.6671 2.01377C74.2001 1.71064 74.7815 1.50856 75.3145 1.30647C75.7991 1.15491 76.2836 1.05387 76.7681 1.00335C77.0588 0.952827 77.3496 1.00335 77.6403 1.05387C78.8516 1.15491 79.7722 1.66012 80.2568 2.92315C80.3052 3.02419 80.3537 3.12523 80.3537 3.2768C80.4506 4.74191 80.5959 6.20701 80.1599 7.6216C79.9176 8.3289 79.6269 9.03619 79.3846 9.69296C79.2877 9.89505 79.2392 10.0971 79.1423 10.2992C78.9001 10.9055 78.6578 11.4612 78.2217 11.9664C77.931 12.2695 77.7856 12.6737 77.5434 13.0274C77.1557 13.5831 76.7197 14.1388 76.2836 14.644C75.9929 14.9977 75.7021 15.4018 75.363 15.7555C74.7815 16.3112 74.2001 16.8164 73.6187 17.2711C73.2795 17.5742 72.8919 17.8269 72.5042 18.0289C72.1651 18.1805 71.7774 18.2815 71.3898 18.231C70.9053 18.1805 70.663 17.5742 70.9537 17.1196C71.0991 16.9175 71.2445 16.7154 71.4383 16.5638C71.7774 16.3112 72.1651 16.1091 72.5042 15.8565C72.9888 15.5029 73.5218 15.0987 73.9578 14.6945C74.2001 14.4925 74.4424 14.1893 74.6846 13.9873C75.4114 13.3305 75.9444 12.4716 76.4774 11.6633C76.9619 10.9055 77.4465 10.0971 77.8825 9.23828C78.2217 8.58151 78.4155 7.87421 78.7063 7.21744C79.1423 6.4091 78.997 5.49972 79.1423 4.64086C79.2877 3.98409 78.7547 2.77159 78.2702 2.46846C78.1733 2.41794 78.0279 2.36741 77.8825 2.36741C76.7681 2.41794 75.7021 2.62002 74.6846 3.17575C74.297 3.37784 73.8125 3.5294 73.4733 3.78201C72.795 4.33774 72.1166 4.89347 71.5352 5.60076C71.0506 6.15649 70.5661 6.81327 70.4692 7.6216C70.3723 8.17733 70.4207 8.73307 70.4207 9.2888C70.4207 9.59193 70.4692 9.84453 70.4207 10.1477C70.3723 10.6023 70.0331 10.8549 69.6455 10.9055C69.2579 10.9055 68.8702 10.6529 68.8218 10.2487C68.7733 10.0466 68.7733 9.79401 68.7733 9.59192C68.7249 8.98567 68.8218 8.3289 68.628 7.77317C68.3373 6.76275 67.8527 5.85337 66.9806 5.29764C66.4476 4.94399 65.9146 4.59034 65.3332 4.33774C64.4125 3.98409 63.4919 3.47888 62.426 3.63044C62.3291 3.63044 62.1837 3.63044 62.0868 3.63044C61.4569 3.57992 60.7301 4.03461 60.6816 4.94399C60.6332 5.85337 60.6332 6.76275 60.8755 7.6216C61.1177 8.42994 61.36 9.2888 61.8445 9.99609C62.2321 10.5518 62.5229 11.2086 62.862 11.8149C62.9105 11.8654 62.9105 11.9159 62.959 11.9664C63.7342 12.9263 64.461 13.9367 65.3332 14.7451C66.0115 15.4018 66.7868 15.9071 67.7558 16.0586C67.9012 16.0586 68.0465 16.0586 68.1919 16.0586C68.7733 16.1091 69.4032 16.1091 69.9847 16.1597C70.0816 16.1597 70.1785 16.2607 70.2754 16.3617C70.1785 16.4628 70.13 16.6143 70.0331 16.6649C69.161 17.1701 68.1919 17.4227 67.1744 17.1196C66.7867 17.0185 66.4476 16.7659 66.06 16.6143C65.1393 16.2607 64.5094 15.5029 63.8311 14.8461C63.1528 14.2399 62.6682 13.482 62.2322 12.6737C61.9899 12.219 61.6507 11.8654 61.36 11.4107C61.0693 10.9055 60.827 10.4003 60.5847 9.89505C60.5363 9.79401 60.5363 9.69297 60.4878 9.59192C59.8579 8.48046 59.5672 7.26796 59.4219 6.00493C59.2765 4.69139 59.5188 3.5294 60.6816 2.77158C60.9724 2.5695 61.3115 2.46846 61.6507 2.36741C62.4744 2.11481 63.2981 2.16533 64.1218 2.46846C64.2187 2.51898 64.3641 2.51898 64.5094 2.51898C64.8486 2.5695 65.1878 2.5695 65.4785 2.87263C65.5754 2.97367 65.7692 3.02419 65.9146 3.07471C66.8837 3.27679 67.562 3.98409 68.3372 4.59034C68.7249 4.94399 69.161 5.49972 69.6455 6.05545Z" fill="#333161"/>
<path d="M81.3228 39.5006C80.7898 40.2079 80.1599 40.41 79.4331 40.4605C78.5125 40.511 77.6404 40.6626 76.7198 40.7131C76.6228 40.7131 76.4775 40.7636 76.3806 40.7636C75.5084 40.7636 74.6847 40.7636 73.8126 40.7636C72.9889 40.7636 72.1651 40.7636 71.3414 40.7636C70.6146 40.7636 69.8878 40.7131 69.161 40.7131C68.192 40.7131 67.2229 40.7636 66.3023 40.7636C65.9147 40.7636 65.4786 40.7636 65.091 40.6626C64.8972 40.6121 64.7033 40.41 64.5095 40.2584C64.3642 40.1574 64.1704 40.0058 64.0735 39.8542C63.5405 39.1469 62.9106 38.5912 62.5714 37.7324C62.3776 37.1766 62.0384 36.6714 61.7477 36.1157C61.6993 36.0146 61.6508 35.9136 61.6023 35.8126C61.3116 35.0547 61.0694 34.3475 60.7302 33.6402C60.5364 33.1855 60.2457 32.8318 60.0518 32.4276C59.9065 32.1245 59.8096 31.8214 59.6642 31.5183C59.5673 31.3162 59.4704 31.1141 59.3735 30.9625C58.9859 30.4573 58.5498 29.9521 58.1137 29.4974C57.7745 29.0933 57.0962 29.0427 56.7086 29.3964C56.4663 29.649 56.3209 29.9521 56.1271 30.2552C55.9333 30.5584 55.788 30.912 55.6426 31.2151C55.5941 31.3162 55.5457 31.3667 55.4972 31.4678C55.2065 32.3266 54.9158 33.236 54.6251 34.0948C54.4797 34.5495 54.3828 34.9537 54.2375 35.4084C53.8983 36.5199 53.6076 37.6818 53.2199 38.7933C52.8808 39.8037 52.6385 40.8647 52.59 41.9256C52.5416 42.3803 52.5416 42.835 52.4931 43.2897C52.4931 43.6433 52.2509 43.997 51.9601 43.997C51.6694 43.997 51.3787 43.6938 51.3787 43.2897C51.3302 42.4308 51.2818 41.5214 51.2818 40.6626C51.2818 40.3089 51.3302 39.9048 51.4272 39.5511C51.7179 38.3891 52.057 37.2777 52.3962 36.1157C52.59 35.4084 52.8808 34.7516 53.123 34.0443C53.2199 33.6907 53.3168 33.337 53.4137 32.9834C53.656 32.2761 53.9467 31.6193 54.2375 30.912C54.2859 30.7605 54.2859 30.5584 54.3343 30.4068C54.722 29.3964 55.2065 28.4365 56.0787 27.8808C56.5632 27.5776 57.1446 27.4261 57.7261 27.6281C58.4044 27.8808 59.0343 28.2849 59.5673 28.8407C59.9065 29.1943 60.2456 29.5479 60.4395 30.0532C60.5364 30.3563 60.8755 30.5584 61.0693 30.8615C61.3601 31.3162 61.6023 31.8214 61.8446 32.2761C61.99 32.5792 62.0869 32.8823 62.1838 33.1855C62.4745 34.1454 63.1528 34.8527 63.3951 35.8126C63.492 36.2167 63.7827 36.6209 63.9765 37.0251C64.1219 37.3787 64.2673 37.7324 64.4611 38.0355C64.7033 38.4397 64.9941 38.8438 65.2848 39.1975C65.3332 39.2985 65.4786 39.349 65.5755 39.349C65.9631 39.349 66.3508 39.2985 66.7384 39.248C67.6105 39.1975 68.5312 39.1469 69.4033 39.0964C69.9363 39.0459 70.4693 39.0459 70.9538 39.0459C71.826 39.0459 72.6497 39.0459 73.5218 39.0459C74.3455 39.0459 75.1693 38.9954 75.993 38.9954C76.962 38.9954 77.9795 38.9449 78.9486 38.9449C79.2393 38.9449 79.5785 38.9449 79.8692 38.9954C80.4507 39.1469 80.8867 39.349 81.3228 39.5006Z" fill="#333161"/>
<path d="M89.2206 28.5881C88.6391 28.7902 88.2031 29.1438 87.8639 29.5985C87.4763 30.1037 87.0402 30.5079 86.6041 31.0131C86.4103 31.2657 86.2165 31.5183 86.0227 31.7709C85.732 32.1751 85.4412 32.5793 85.1505 32.9834C85.0052 33.135 84.9082 33.3371 84.8113 33.5392C84.4722 34.0444 84.0845 34.5496 83.7454 35.0548C83.4062 35.56 83.067 36.0652 82.8248 36.621C82.534 37.3282 82.3402 38.0861 82.098 38.8439C82.0495 38.9954 81.9526 39.0965 81.8557 39.1975C81.7588 39.0965 81.6134 38.9954 81.565 38.8439C81.4196 38.2376 81.2743 37.5809 81.1289 36.9241C81.0805 36.6715 81.1289 36.3684 81.2743 36.1663C81.565 35.6105 81.8557 35.1053 82.1949 34.6001C82.4371 34.2465 82.6794 33.8423 82.9217 33.4887C83.3093 32.9834 83.6485 32.4782 84.0361 31.973C84.4722 31.4173 84.8598 30.9121 85.2959 30.3563C85.4412 30.1543 85.5866 29.9522 85.732 29.7501C86.2649 28.8912 87.0402 28.3355 87.7185 27.6787C88.3969 27.0725 89.2206 26.9714 89.9958 27.4261C90.4804 27.7293 90.868 28.1334 91.1587 28.6386C91.5463 29.3459 91.9824 30.0027 92.2247 30.71C92.4185 31.3668 92.903 31.872 93.0484 32.5287C93.1938 33.0845 93.4845 33.5897 93.6783 34.1454C93.7267 34.2465 93.7267 34.3475 93.7752 34.4485C93.9206 34.8022 94.1144 35.2064 94.2113 35.56C94.4051 36.0652 94.5505 36.5704 94.6958 37.0756C94.8896 37.7829 95.0834 38.4902 95.2772 39.1975C95.3257 39.4501 95.4226 39.7027 95.4711 39.9553C95.5195 40.2585 95.568 40.5616 95.6164 40.8142C95.7133 41.3194 95.5195 41.7741 95.035 41.9257C94.5989 42.0267 94.2113 41.7236 94.0659 41.2689C93.969 40.9658 93.8237 40.6626 93.7268 40.3595C93.6298 40.0564 93.5814 39.7027 93.4845 39.3996C93.1453 38.4397 92.8546 37.4798 92.5154 36.5704C92.5154 36.5199 92.467 36.5199 92.467 36.4694C92.5154 35.8631 92.2731 35.3074 91.9824 34.8022C91.7402 34.3475 91.6433 33.8423 91.401 33.3876C91.1587 32.9834 91.0618 32.5288 90.9165 32.0741C90.7711 31.5689 90.4804 31.1647 90.2381 30.71C89.8989 30.0532 89.5598 29.3459 89.2206 28.5881Z" fill="#333161"/>
<path d="M0.599663 38.793C1.03574 38.9951 1.42337 39.0961 1.81099 39.2982C2.97387 39.8539 4.1852 40.4096 5.34808 40.9654C5.97797 41.2685 6.70477 41.4706 7.33466 41.7232C7.9161 41.9758 8.49754 42.3294 9.07898 42.582C9.70887 42.8347 10.3388 43.0367 10.9687 43.2893C11.0171 43.2893 11.0656 43.2893 11.114 43.3399C11.647 43.5925 12.2284 43.8956 12.7614 44.0977C13.246 44.2998 13.7305 44.4513 14.215 44.6029C15.0387 44.906 15.8624 45.2091 16.6861 45.5628C16.9769 45.6638 17.2676 45.8154 17.4614 46.068C17.6067 46.2196 17.7037 46.5227 17.6068 46.7248C17.5583 46.8763 17.2676 47.0784 17.0738 47.0784C16.1047 47.0279 15.2325 46.7753 14.3604 46.3711C14.1181 46.2701 13.8759 46.2701 13.6336 46.169C12.9552 45.9164 12.2769 45.7143 11.647 45.4617C11.0656 45.2091 10.581 44.906 9.99959 44.6534C9.32125 44.3503 8.64291 44.0977 7.96456 43.8451C7.14086 43.5419 6.26869 43.2388 5.44499 42.8347C4.13675 42.1779 2.87697 41.4201 1.56873 40.7128C1.0842 40.4602 0.648111 40.1065 0.260485 39.7529C0.163578 39.6518 0.115134 39.3992 0.163587 39.2477C0.260494 38.995 0.454304 38.9445 0.599663 38.793Z" fill="#333161"/>
<path d="M142.519 30.0532C142.471 30.1542 142.374 30.3058 142.229 30.4574C141.986 30.71 141.792 30.9626 141.55 31.1647C141.114 31.5688 140.63 31.973 140.145 32.3266C139.661 32.7308 139.128 33.0845 138.595 33.4381C138.207 33.7412 137.771 33.9938 137.383 34.2464C136.85 34.6001 136.317 34.9537 135.833 35.3579C135.397 35.661 134.961 35.9642 134.524 36.2168C133.701 36.722 132.877 37.1767 132.005 37.6314C131.569 37.8334 131.133 38.0355 130.648 38.1871C130.503 38.2376 130.309 38.1366 130.164 38.1366C130.164 37.985 130.212 37.7829 130.212 37.6314C130.212 37.5808 130.309 37.4798 130.357 37.4293C130.939 36.9241 131.472 36.3683 132.102 35.9136C132.877 35.3074 133.749 34.8022 134.524 34.297C135.251 33.7918 135.978 33.2865 136.705 32.7813C137.432 32.2761 138.158 31.8214 138.885 31.3162C139.37 31.0131 139.854 30.6595 140.339 30.3058C140.775 30.0027 141.211 29.7501 141.647 29.4975C142.132 29.3459 142.519 29.548 142.519 30.0532Z" fill="#333161"/>
<path d="M111.315 15.8064C111.315 15.7558 111.315 15.7053 111.315 15.7053C111.557 14.8465 111.751 13.9876 111.994 13.1793C112.187 12.472 112.43 11.8152 112.672 11.1079C112.914 10.4511 113.156 9.79436 113.447 9.13759C113.786 8.27873 114.126 7.41987 114.465 6.61154C114.658 6.05581 115.143 5.90424 115.579 5.65164C115.628 5.60112 115.87 5.75268 115.87 5.85372C116.064 6.45997 116.015 7.06623 115.724 7.67248C115.191 8.88498 114.755 10.0975 114.271 11.3605C114.077 11.8152 113.883 12.2699 113.738 12.7246C113.544 13.2803 113.399 13.8866 113.205 14.4928C113.108 14.7454 113.011 15.0486 112.914 15.3012C112.914 15.3517 112.866 15.4022 112.817 15.5032C112.672 16.1095 112.575 16.6652 112.478 17.2715C112.43 17.5746 112.333 17.7262 112.042 17.7767C111.751 17.7767 111.557 17.6756 111.509 17.3725C111.461 16.8168 111.364 16.3116 111.315 15.8064C111.267 15.8064 111.267 15.8064 111.315 15.8064Z" fill="#333161"/>
<path d="M120.231 20.1005C120.473 19.5448 120.715 18.888 121.006 18.3828C121.345 17.7766 121.781 17.2714 122.169 16.7156C122.508 16.2104 122.799 15.6042 123.186 15.099C123.622 14.4927 124.155 13.937 124.64 13.3812C124.979 12.9266 125.367 12.5224 125.706 12.0677C126.094 11.512 126.675 11.3099 127.208 11.0068C127.45 10.9057 127.644 11.0573 127.596 11.3604C127.45 12.0172 127.305 12.6234 126.82 13.1286C126.336 13.6844 125.997 14.3411 125.512 14.8969C125.076 15.4526 124.592 16.0083 124.155 16.5641C124.107 16.6651 124.01 16.7662 123.962 16.8672C123.913 16.9682 123.865 17.1198 123.768 17.2208C123.235 17.8776 122.75 18.5849 122.217 19.2417C121.83 19.6964 121.394 20.1005 120.958 20.5047C120.861 20.6058 120.618 20.6563 120.521 20.6058C120.425 20.5552 120.376 20.3026 120.231 20.1005Z" fill="#333161"/>
<path d="M18.6727 31.7705C18.3819 31.619 18.0912 31.5685 17.8974 31.3664C17.4129 31.0127 16.9768 30.6086 16.4923 30.2044C16.3469 30.1034 16.2015 29.9518 16.0562 29.8002C15.2809 29.295 14.7479 28.5372 14.1181 27.8299C13.6335 27.2742 13.149 26.769 12.6645 26.2132C11.8408 25.2533 10.9201 24.344 10.4356 23.0809C10.3872 22.9799 10.3387 22.9294 10.3387 22.8283C10.3387 22.7273 10.3387 22.5757 10.3872 22.5252C10.4356 22.4747 10.581 22.4747 10.6779 22.5252C11.017 22.7273 11.3562 22.8788 11.5985 23.1315C12.3253 23.7882 13.0521 24.546 13.7304 25.2533C14.0212 25.5565 14.3119 25.8596 14.6026 26.1627C14.9902 26.5669 15.3778 27.0216 15.7655 27.4257C16.0077 27.7289 16.2985 27.9815 16.5892 28.2846C16.6376 28.3351 16.6861 28.3351 16.6861 28.3856C17.2675 29.3455 18.2366 29.9013 18.9634 30.7096C19.1087 30.8612 19.2541 31.1643 19.2056 31.4169C19.2056 31.5179 18.8665 31.619 18.6727 31.7705Z" fill="#333161"/>
<path d="M144.748 51.9287C143.682 51.9287 142.616 51.9287 141.55 51.9287C141.259 51.9287 140.969 51.8276 140.678 51.7771C139.903 51.7266 139.127 51.6761 138.401 51.575C138.061 51.5245 137.771 51.3729 137.48 51.2214C137.189 51.0193 137.286 50.5646 137.674 50.3625C138.207 50.1099 138.74 50.1604 139.273 50.1604C140 50.2109 140.726 50.2109 141.405 50.2109C141.695 50.2109 141.938 50.2615 142.228 50.2615C143.246 50.2109 144.263 50.1604 145.281 50.1604C145.766 50.1604 146.25 50.1099 146.686 50.2615C147.122 50.3625 147.51 50.6656 147.849 50.9182C148.14 51.1708 147.994 51.575 147.607 51.6761C147.268 51.7771 146.928 51.8276 146.589 51.8276C146.008 51.8276 145.378 51.8276 144.796 51.8276C144.748 51.8781 144.748 51.9287 144.748 51.9287Z" fill="#333161"/>
<path d="M22.6943 26.1119C22.5974 26.0109 22.5005 26.0109 22.5005 25.9604C21.9191 25.152 21.2892 24.3437 20.7077 23.4848C20.2716 22.8281 19.884 22.0702 19.4479 21.363C19.2541 21.0598 19.0119 20.8072 18.8181 20.5041C18.4789 19.9989 18.1882 19.4432 17.849 18.9379C17.7036 18.7359 17.5583 18.4832 17.4129 18.2812C17.1706 17.877 16.9284 17.4728 16.6861 17.0181C16.3469 16.3614 15.9593 15.7551 15.717 15.0478C15.5232 14.5931 15.4748 14.0879 15.3779 13.5827C15.3779 13.4817 15.4748 13.3301 15.5717 13.2796C15.6686 13.2291 15.8624 13.2796 15.9109 13.3806C16.25 13.8353 16.5407 14.29 16.8315 14.7447C17.1706 15.2499 17.5098 15.7551 17.8005 16.2603C18.0913 16.715 18.3335 17.2202 18.5758 17.6749C18.6242 17.776 18.6727 17.9275 18.7696 18.0286C19.4479 18.7864 19.7871 19.6958 20.2716 20.5546C20.6108 21.2114 21.0469 21.7671 21.3861 22.3734C21.8221 23.1817 22.2582 23.99 22.452 24.9499C22.452 25.3541 22.549 25.7078 22.6943 26.1119Z" fill="#333161"/>
<path d="M46.388 84.0597C45.7581 84.0597 45.4674 83.5545 45.6127 83.0998C45.9034 82.1905 46.2911 81.3821 46.7756 80.5738C47.0663 80.018 47.2601 79.4118 47.5508 78.8055C47.89 78.0983 48.2292 77.391 48.5684 76.6331C48.8591 75.9764 49.1498 75.3701 49.489 74.7133C49.5859 74.4607 49.7797 74.2587 49.9251 74.0566C50.1189 73.8545 50.3611 73.7534 50.6518 73.905C50.8941 74.1071 50.9426 74.3597 50.7972 74.6628C50.458 75.5217 50.0704 76.3805 49.7312 77.2899C49.5374 77.7951 49.3921 78.3003 49.1983 78.755C49.0529 79.0581 48.8591 79.3613 48.7137 79.6139C48.6168 79.7654 48.5684 79.917 48.4715 80.0686C48.0838 80.8769 47.7447 81.7358 47.357 82.5441C47.2117 82.8977 47.0663 83.2514 46.824 83.5545C46.6787 83.8576 46.4849 83.9587 46.388 84.0597Z" fill="#333161"/>
<path d="M10.581 55.2123C10.2418 55.2628 9.95109 55.4144 9.61192 55.4144C8.4975 55.3133 7.43152 55.1112 6.36555 54.7576C5.78411 54.5555 5.15422 54.505 4.52433 54.3534C3.84598 54.2019 3.21609 53.9998 2.53774 53.8482C2.15012 53.7472 1.71404 53.6967 1.32641 53.5451C0.938786 53.3935 0.50271 53.1914 0.163537 52.9388C0.0181774 52.8378 -0.0302847 52.4842 0.0181686 52.2821C0.0666218 51.9789 0.35735 51.8779 0.64807 51.9284C1.61713 52.1305 2.5862 52.3326 3.50681 52.5347C4.33051 52.7368 5.15422 52.8883 5.97793 53.1409C6.75318 53.3935 7.52843 53.6461 8.35213 53.9493C8.78821 54.1008 9.27274 54.2524 9.70882 54.4545C9.99954 54.606 10.2418 54.8081 10.5325 55.0102C10.6294 55.1112 10.581 55.1618 10.581 55.2123Z" fill="#333161"/>
<path d="M99.6381 75.1183C99.6381 75.2193 99.6381 75.3203 99.5896 75.3709C99.3958 76.0782 99.1536 76.7855 99.0082 77.5433C98.8144 78.4526 98.6206 79.362 98.4268 80.2714C98.3298 80.625 98.1845 80.9282 98.136 81.2818C97.9907 81.9386 97.8938 82.6459 97.7969 83.3027C97.7969 83.3532 97.7969 83.4037 97.7969 83.4037C97.7484 83.8584 97.4092 84.3131 97.0216 84.2626C96.634 84.212 96.2948 83.7068 96.3433 83.2521C96.4402 82.7469 96.5855 82.1912 96.634 81.686C96.7309 81.1808 96.7309 80.7261 96.8278 80.2209C96.9247 79.7157 97.0701 79.261 97.2154 78.7558C97.4092 77.998 97.6031 77.2907 97.8453 76.5834C97.9422 76.2802 98.0876 76.0276 98.2329 75.7245C98.2814 75.5729 98.3783 75.4214 98.4268 75.2698C98.5237 75.1183 98.5721 74.8657 98.669 74.7646C98.8628 74.6636 99.1051 74.5625 99.2989 74.613C99.4443 74.6636 99.5412 74.9667 99.6865 75.1183C99.6865 75.0677 99.6865 75.0677 99.6381 75.1183Z" fill="#333161"/>
<path d="M103.321 75.6227C103.175 76.532 103.078 77.3909 102.691 78.1992C102.545 78.5024 102.545 78.856 102.448 79.2097C102.4 79.3107 102.4 79.4623 102.4 79.5633C102.109 80.4727 101.818 81.3821 101.528 82.2914C101.285 82.9482 101.043 83.605 100.753 84.2112C100.607 84.5144 100.365 84.6659 100.026 84.5649C99.6865 84.4638 99.4927 84.1607 99.5896 83.8071C99.6865 83.3019 99.7834 82.7966 99.9288 82.342C100.268 81.2305 100.607 80.1696 100.946 79.1086V79.0581C101.576 77.9971 101.528 76.6331 102.448 75.7237C102.545 75.6227 102.691 75.4711 102.788 75.37C102.933 75.269 103.078 75.2185 103.224 75.168C103.272 75.3195 103.272 75.4711 103.321 75.6227Z" fill="#333161"/>
<path d="M43.19 79.1596C43.3353 78.5533 43.4322 77.9976 43.626 77.3913C43.9168 76.3809 44.2559 75.3705 44.6436 74.4106C44.7889 74.1075 45.0796 73.8549 45.3704 73.6023C45.5642 73.4002 45.8549 73.3496 46.0972 73.5012C46.3879 73.7033 46.3394 74.0064 46.2425 74.259C46.0972 74.6632 45.8549 75.0674 45.7095 75.5221C45.4673 76.4314 45.225 77.3408 44.9827 78.2502C44.8374 78.7049 44.692 79.1596 44.5951 79.6648C44.4982 80.0184 44.4013 80.4226 44.3044 80.7762C44.2559 80.9783 44.159 81.2309 44.0621 81.433C43.9168 81.6856 43.7229 81.7867 43.4322 81.7361C43.1415 81.6856 42.9477 81.4835 42.9477 81.1804C42.9961 80.7257 43.0446 80.2205 43.1415 79.7658C43.19 79.5637 43.2384 79.3617 43.2869 79.1596C43.2384 79.1596 43.2384 79.1596 43.19 79.1596Z" fill="#333161"/>
<path d="M143.488 59.8096C142.568 59.7591 141.841 59.7591 141.163 59.658C140.193 59.5065 139.321 59.0518 138.546 58.496C138.352 58.3445 138.158 58.1424 138.013 57.9403C137.965 57.8898 137.916 57.7382 137.965 57.6877C138.013 57.6372 138.11 57.5361 138.207 57.5361C139.079 57.6372 139.951 57.8393 140.872 57.8898C141.599 57.9403 142.325 58.294 143.101 58.0919C143.246 58.0413 143.391 58.0919 143.537 58.0919C144.167 58.0919 144.797 58.1424 145.475 58.1424C145.863 58.1424 146.105 58.3445 146.153 58.6476C146.202 59.0012 146.008 59.2539 145.669 59.3549C144.845 59.5065 144.07 59.658 143.488 59.8096Z" fill="#333161"/>
<path d="M50.894 82.4935C51.0394 81.483 51.0394 80.4726 51.5724 79.5632C51.8147 79.1085 51.9115 78.6033 52.1054 78.0981C52.3961 77.3908 52.6384 76.7341 52.9775 76.0773C53.1229 75.8247 53.4136 75.6226 53.6559 75.4205C53.7528 75.3195 53.995 75.3195 54.1404 75.4205C54.2373 75.5216 54.3342 75.7236 54.3342 75.8752C54.2858 76.532 54.092 77.1382 53.7528 77.694C53.559 78.0476 53.4136 78.4518 53.3167 78.8559C53.0744 79.7653 52.8322 80.6747 52.5899 81.5335C52.4445 81.9882 52.2023 82.4429 52.0085 82.8976C51.8631 83.1502 51.7177 83.4534 51.3786 83.3523C51.0394 83.2513 50.9909 82.9481 50.9425 82.645C50.894 82.645 50.894 82.5945 50.894 82.4935Z" fill="#333161"/>
<path d="M104.774 82.3929C105.016 81.3825 105.21 80.3721 105.452 79.3616C105.549 78.9575 105.695 78.5028 105.743 78.0986C105.792 77.4418 106.179 76.9871 106.518 76.4819C106.615 76.3304 106.664 76.1788 106.712 76.0273C106.858 75.6231 107.197 75.4715 107.536 75.6231C107.875 75.7746 107.972 76.1788 107.875 76.5325C107.73 76.9366 107.681 77.3913 107.536 77.846C107.439 78.1997 107.294 78.6038 107.197 78.9575C107.003 79.7153 106.858 80.4731 106.664 81.2309C106.518 81.7361 106.422 82.2919 106.228 82.7971C106.131 83.1507 105.743 83.3023 105.404 83.2012C105.016 83.1002 104.823 82.7466 104.774 82.3929Z" fill="#333161"/>
<path d="M88.9299 52.2819C88.7845 51.9282 89.0752 51.4735 89.5113 51.322C90.2865 51.0694 91.0618 51.2714 91.4979 51.9787C91.934 52.686 92.4185 53.4439 92.7577 54.2017C93.0968 55.0605 93.2906 56.0204 93.5329 56.8793C93.6783 57.3845 93.8236 57.8392 93.9205 58.3444C93.969 58.8496 93.969 59.4053 93.969 59.9105C93.969 60.1631 93.969 60.3652 93.969 60.6178C93.969 60.9715 93.9205 61.2746 93.9205 61.6283C93.8721 61.9314 93.8721 62.285 93.7752 62.5882C93.6783 62.9923 93.5814 63.3965 93.436 63.8007C93.1937 64.609 92.7092 65.2153 92.1762 65.8215C91.6917 66.3772 91.2556 66.9835 90.6257 67.2866C89.9958 67.5897 89.4144 67.9434 88.6876 67.9939C87.3309 68.1455 86.1196 67.7918 85.0051 67.034C84.4722 66.6804 84.0361 66.1751 83.6 65.6699C83.2124 65.2152 82.8732 64.71 82.6309 64.1543C82.1948 63.0934 81.7588 61.9819 81.8072 60.7694C81.8557 59.86 81.8072 58.9506 81.8072 57.9907C81.8072 57.6371 81.9526 57.2329 82.1464 56.9298C82.6309 56.0204 82.8247 54.9595 83.6 54.2017C84.2299 53.6459 84.8113 53.0397 85.4412 52.4839C85.7804 52.1808 86.168 51.9787 86.5556 51.7767C87.0402 51.524 87.5247 51.6756 87.9608 51.7767C88.3 52.0293 88.5907 52.1808 88.9299 52.2819ZM90.3834 64.0533C90.0443 63.9017 89.8505 64.0027 89.6567 64.2553C89.4144 64.5585 89.1237 64.8111 88.6876 64.8111C88.3969 64.8111 88.1546 64.8616 87.8639 64.8616C87.2824 64.9121 86.7979 64.8616 86.2165 64.5585C85.2959 64.1038 84.8113 63.2955 84.3268 62.4366C84.0845 61.9819 83.9392 61.4767 83.8423 60.921C83.6969 60.3147 83.6 59.6579 83.5031 59.0517C83.5031 59.0012 83.5031 58.9506 83.5031 58.9506C83.5031 58.5465 83.5031 58.1423 83.5031 57.7381C83.4546 57.9402 83.4546 58.1928 83.4062 58.3949C83.1155 59.2032 83.1639 60.0621 83.2608 60.921C83.3093 61.5777 83.6 62.184 83.7938 62.7902C83.9392 63.1439 84.0845 63.4975 84.3268 63.8007C84.7144 64.3564 85.1021 64.9121 85.4897 65.4173C85.4897 65.4679 85.5381 65.4679 85.5866 65.4679C85.8288 65.6194 86.0227 65.7205 86.2649 65.872C86.6041 66.0236 86.9433 66.2257 87.2824 66.3267C87.6216 66.4278 87.9608 66.3267 88.2515 66.3772C88.8329 66.4783 89.3659 66.3772 89.802 65.9731C90.2866 65.6194 90.7226 65.2153 91.2072 64.8111C91.6917 65.1142 92.0793 65.0637 92.3216 64.6595C92.4669 64.4574 92.6123 64.3059 92.8061 64.1543C93.0484 63.9522 93.0968 63.8007 92.903 63.5481C92.7092 63.2955 92.467 63.0428 92.2731 62.8408C92.0309 62.5882 91.7401 62.4366 91.4494 62.6387C90.868 62.8913 90.335 63.1944 90.3834 64.0533ZM85.635 61.6283C85.8773 61.8809 86.1196 62.184 86.3134 62.4366C86.6526 62.8408 87.1371 62.8913 87.5732 62.9923C88.2515 63.1439 88.9299 63.1944 89.6082 63.2449C89.9474 63.2449 90.1896 63.0428 90.335 62.7397C90.4804 62.3355 90.6742 61.8809 90.7226 61.4262C90.8195 60.9715 90.868 60.5168 90.4804 60.1631C90.0927 59.8095 89.6082 59.6074 89.4144 59.0517C89.4144 59.0012 89.3175 58.9506 89.2206 58.9001C88.9783 58.7991 88.736 58.7486 88.4938 58.698C87.9123 58.597 87.4278 58.9001 87.3794 59.5064C87.3309 59.9611 87.4278 60.3652 87.4763 60.8199C87.2824 60.9715 86.9433 61.123 86.7979 61.3757C86.6526 61.6283 86.6526 61.9819 86.6041 62.3861C86.2649 61.8809 85.9742 61.4767 85.7319 60.9715C85.4897 60.5168 85.1021 60.3652 84.666 60.3147C84.3268 60.2642 84.0361 60.5673 84.0845 60.9715C84.2299 61.8303 84.9082 62.1335 85.635 61.6283ZM84.4722 56.273C84.4722 56.9298 85.0051 57.7381 85.635 58.0413C86.168 58.2433 87.0886 58.0413 87.4763 57.6371C87.7185 57.334 87.8154 57.0308 87.7185 56.6772C87.6216 56.2225 86.6041 55.6163 86.168 55.6668C85.8773 55.7173 85.5866 55.6668 85.2959 55.6668C84.8598 55.5152 84.4722 55.8183 84.4722 56.273ZM89.9474 52.8376C89.7051 52.9892 89.5113 53.1407 89.3659 53.1407C89.0268 53.1912 88.6391 53.1912 88.2515 53.0902C87.3309 52.8881 86.6041 53.3428 85.9258 53.9491C85.7319 54.1006 85.5866 54.2522 85.4412 54.4037C85.635 54.5553 85.8289 54.6058 85.9742 54.7574C86.1196 54.909 86.2165 54.8584 86.4103 54.8079C87.0886 54.5553 87.6216 53.8985 88.3969 53.9996C88.4453 53.9996 88.4938 53.8985 88.5907 53.8985C89.0752 53.4438 89.6567 53.2418 90.335 53.4439C90.4804 53.4944 90.6257 53.5449 90.8195 53.5954C90.6257 52.9892 90.1896 52.9892 89.9474 52.8376ZM89.8989 55.5152C89.9474 55.6163 89.9958 55.6668 90.0443 55.7678C90.2381 56.2225 90.4804 56.6772 90.5773 57.1824C90.6742 57.7887 90.7226 57.9402 91.3041 58.0918C91.5463 57.0308 90.7226 55.3131 89.8989 55.5152ZM85.199 58.6475C85.1505 58.6475 85.102 58.698 85.0536 58.698C85.4412 59.0517 84.8598 59.6074 85.3928 60.0621C85.2959 59.5064 85.2474 59.0517 85.199 58.6475Z" fill="#333161"/>
<path d="M54.4796 55.7679C54.4312 56.4247 55.0126 56.5763 55.3518 56.8794C55.4971 56.9805 55.5456 57.1825 55.6425 57.3846C55.691 57.4857 55.7879 57.6372 55.8363 57.7888C55.9332 57.9909 55.9817 58.193 56.0786 58.395C56.127 58.5466 56.1755 58.6982 56.2724 58.7487C56.5631 58.9002 56.6116 59.1529 56.6116 59.4055C56.6116 59.5065 56.66 59.557 56.66 59.6581C56.7085 60.5169 56.9507 61.1737 57.8714 61.3758C57.6291 60.719 57.3868 60.0117 57.193 59.4055C57.5322 59.1529 57.7744 59.0013 58.0167 58.7992C58.0652 58.7487 58.1621 58.5466 58.1136 58.4961C57.9683 58.0414 58.3074 57.7888 58.5012 57.4857C59.0342 56.8289 58.792 55.5659 58.1136 55.1112C58.0652 55.0607 57.9682 55.0101 57.9198 54.9596C58.7435 54.3534 59.1796 54.3534 60.0518 54.8586C60.6332 55.2122 61.3115 55.3638 61.7476 55.97C62.2806 56.6773 62.862 57.3846 62.9589 58.395C63.0559 59.0013 63.0074 59.6075 63.0074 60.2138C63.0074 60.3654 63.0074 60.4664 62.9589 60.5674C62.5713 61.2747 62.2321 62.0325 61.4084 62.3357C61.3115 62.3862 61.2146 62.4872 61.1662 62.5883C61.0693 62.9924 60.9724 63.4471 60.827 63.8513C60.6816 64.2555 60.8754 64.6091 61.0693 64.9628C61.5538 64.6091 61.7961 64.1544 62.0868 63.6492C62.329 63.144 62.5713 62.5883 62.8136 62.0326C63.0074 61.5779 63.2012 61.0727 63.395 60.618V60.5674C63.395 59.9107 63.4435 59.2034 63.4435 58.5466C63.4435 58.1424 63.4435 57.7383 63.2981 57.3846C63.1528 56.9805 62.9105 56.5763 62.6198 56.2731C62.1352 55.7679 61.6992 55.1617 61.0208 54.808C60.4878 54.5049 60.3909 53.9997 60.6816 53.545C60.9239 53.0903 61.4084 52.9893 61.9414 53.2924C62.1837 53.444 62.426 53.6461 62.6198 53.8481C62.8136 53.9997 62.9589 54.2018 63.1043 54.3028C63.5888 54.606 63.8796 55.1112 64.1703 55.6164C64.6064 56.3237 64.9455 57.0815 65.0909 57.8898C65.1393 58.0919 65.1393 58.294 65.0909 58.4961C65.0909 58.9002 65.0424 59.3549 64.994 59.7591C64.994 59.8601 64.994 59.9107 64.994 60.0117C64.7517 60.9211 64.6063 61.881 64.2672 62.7904C63.928 63.6492 63.5888 64.5081 62.9589 65.2154C62.4744 65.7711 62.0383 66.3774 61.5538 66.9836C61.4569 67.1352 61.2631 67.2362 61.1177 67.2867C60.5847 67.5393 60.0517 67.893 59.4703 68.0446C59.0342 68.1961 58.5012 68.1456 58.0167 68.1456C57.3868 68.1456 56.8054 67.893 56.2724 67.5393C55.9332 67.3373 55.6425 67.0341 55.3518 66.731C55.1095 66.4279 54.9157 66.0742 54.6734 65.7206C54.9157 65.7711 55.158 65.7711 55.3518 65.7711C55.6425 65.7711 55.9332 65.7711 56.2239 65.7206C56.66 65.6195 56.8538 65.6701 56.9507 66.1248C57.0476 66.5289 57.2899 66.7815 57.6775 66.9331C57.6775 66.1248 58.2105 65.9732 58.8889 65.9227C58.3559 65.2659 58.0167 64.6091 58.5012 63.9524C58.3074 63.6492 58.2105 63.3461 58.0167 63.144C57.8229 62.8914 57.5806 62.6893 57.3384 62.4872C57.0961 62.2852 56.9023 62.1336 56.5147 62.1841C56.3208 62.2346 55.9817 62.0831 55.7394 62.1841C55.6425 62.2346 55.4971 62.2852 55.4487 62.3862C55.2549 62.7398 54.9157 63.043 54.8672 63.4977C54.8672 63.6492 54.5281 63.8513 54.3343 63.8513C54.1404 63.8513 53.8497 63.6997 53.8013 63.4977C53.6559 62.9924 53.5106 62.4367 53.4621 61.9315C53.4137 61.0727 53.4137 60.2643 53.4621 59.4055C53.4621 59.0013 53.5106 58.5971 53.559 58.2435C53.7044 57.6372 53.9466 57.031 54.092 56.3742C54.1404 56.1216 54.1889 55.9195 54.2858 55.6669C54.3827 55.7679 54.4312 55.7679 54.4796 55.7679ZM61.2631 59.2034C61.2146 59.1023 61.2146 58.9002 61.1177 58.7487C60.9724 58.5971 60.7301 58.4961 60.5847 58.3445C60.3425 58.0919 60.1486 58.1424 59.9064 58.3445C59.6157 58.5466 59.4703 58.9508 59.5672 59.3549C59.7126 59.7086 59.9548 59.9612 60.294 60.0622C60.7301 60.1633 61.2146 59.7591 61.2631 59.2034ZM58.259 61.6789C58.8889 61.8305 59.3734 62.1336 59.7126 62.6893C59.5188 61.7294 58.9373 61.3253 58.259 61.6789ZM54.8672 60.82C55.2064 60.719 55.2064 60.5674 54.9157 59.6075C54.9157 59.9612 54.9157 60.3654 54.8672 60.82Z" fill="#333161"/>
</svg>
