<svg width="160" height="130" viewBox="0 0 160 130" fill="none" xmlns="http://www.w3.org/2000/svg">
<path d="M63.4078 65.5251C63.4078 65.5251 58.9501 55.8756 57.2543 54.1579C55.5584 52.4401 56.0429 53.0969 54.3955 55.2693C52.6997 57.3912 50.8584 68.4553 50.8584 68.4553C50.8584 68.4553 46.7399 67.7985 41.1193 73.9116C35.5472 80.0752 32.0101 86.5418 32.4462 93.0085C32.8823 99.4752 36.4678 113.217 40.7802 117.41C45.0925 121.603 52.9419 128.727 62.8748 128.929C72.8078 129.131 92.1891 128.373 99.3117 123.624C106.483 118.875 110.068 112.661 111.473 108.67C112.927 104.679 115.931 93.6653 113.945 89.7247C111.958 85.784 110.262 76.5387 106.192 74.3158C102.122 72.0928 99.3601 70.6782 96.9375 69.1626C94.4664 67.5965 93.3035 67.0913 93.3035 67.0913C93.3035 67.0913 92.3344 59.8667 90.687 57.6438C89.0396 55.4209 88.9912 52.9959 87.9252 53.5516C86.8592 54.1579 79.2036 66.384 79.2036 66.384L63.4078 65.5251Z" fill="#FFF9DF"/>
<path d="M91.1231 80.0238C91.1231 80.0238 90.5416 86.2379 93.4004 88.764C96.2107 91.2395 97.9065 89.2692 99.6024 90.7343C101.298 92.2499 103.576 93.4624 105.804 91.4921C108.082 89.5218 108.905 86.7431 110.311 84.7728C111.716 82.8025 111.716 80.2764 110.311 78.3061C108.905 76.3358 108.033 76.5379 105.223 77.8009C102.413 79.0639 102.946 76.0327 99.554 77.0431C96.2107 78.0535 91.4138 75.8306 91.1231 80.0238Z" fill="#EDE6FF"/>
<path d="M100.426 83.3074C100.426 83.1558 100.378 82.9537 100.426 82.8022C100.475 82.6506 100.62 82.499 100.717 82.4485C100.814 82.398 101.008 82.5496 101.105 82.6506C101.201 82.7516 101.25 82.9032 101.25 83.0548C101.638 84.5199 101.831 85.985 101.928 87.5006C101.977 88.41 102.122 89.2689 102.219 90.1782C102.267 90.4814 102.219 90.835 102.17 91.1381C102.17 91.2392 102.025 91.4413 101.928 91.4413C101.783 91.4413 101.637 91.3402 101.541 91.2392C101.153 90.734 101.153 90.1277 101.056 89.5215C100.911 88.41 100.765 87.248 100.62 86.1365C100.572 85.1766 100.475 84.2673 100.426 83.3074Z" fill="#333161"/>
<path d="M95.92 81.7921C96.0654 83.3077 96.2107 84.7728 96.3076 86.2884C96.3561 87.0968 96.4046 87.8546 96.4046 88.6629C96.4046 88.7134 96.4045 88.8145 96.3561 88.865C96.2592 89.0166 96.1623 89.2187 96.0654 89.2692C95.9685 89.2692 95.7747 89.1176 95.6778 89.0166C95.6293 88.966 95.5808 88.865 95.5808 88.764C95.4355 87.703 95.2417 86.6421 95.1448 85.6317C95.0478 84.8233 94.951 83.9645 94.951 83.1561C94.951 82.4488 94.9994 81.691 95.0963 80.9837C95.1448 80.7816 95.387 80.6806 95.5808 80.4785C95.7262 80.6301 95.9685 80.7816 96.0169 80.9837C96.1138 81.2363 96.0654 81.5395 96.0654 81.7921C96.0169 81.7415 95.9685 81.7415 95.92 81.7921Z" fill="#333161"/>
<path d="M103.915 88.5113C103.672 88.0566 103.382 87.703 103.333 87.3493C103.188 86.4905 103.091 85.5811 102.994 84.7222C102.994 84.5201 103.043 84.2675 103.043 84.0654C102.994 83.2571 103.382 82.6003 103.721 81.9436C103.769 81.8425 104.012 81.691 104.157 81.7415C104.302 81.792 104.448 81.9436 104.496 82.0951C104.545 82.7014 104.593 83.3582 104.593 83.9644C104.593 84.7727 104.545 85.6316 104.496 86.4399C104.448 87.0967 104.399 87.804 103.915 88.5113Z" fill="#333161"/>
<path d="M98.6334 84.2167C98.6818 85.2777 98.7303 86.086 98.7303 86.8438C98.7303 87.5511 98.7303 88.3089 98.6819 89.0162C98.6819 89.2688 98.6334 89.6225 98.2942 89.6225C97.955 89.6225 97.7612 89.3699 97.7612 89.0162C97.7128 88.511 97.7128 88.0563 97.7128 87.5511C97.7128 87.147 97.7128 86.6923 97.6643 86.2881C97.6643 85.6819 97.6643 85.0251 97.6159 84.4188C97.5674 83.7115 97.519 83.0042 97.4221 82.2969C97.3736 81.8423 97.519 81.4886 97.7612 81.4381C98.052 81.3876 98.2458 81.6907 98.2942 82.1959C98.4396 83.0042 98.5365 83.7621 98.6334 84.2167Z" fill="#333161"/>
<path d="M71.3542 89.5225L68.2532 96.9996C68.2532 96.9996 68.7377 107.963 70.3851 109.933C72.0325 111.903 74.4552 112.408 75.4243 109.68C76.3933 106.952 76.1511 99.9803 75.9088 98.4647C75.6665 96.9491 75.6665 93.7157 75.6665 93.7157L71.3542 89.5225Z" fill="white"/>
<path d="M60.7914 79.0634C60.7914 79.0634 56.5275 76.3353 55.2192 79.9223C53.911 83.5093 52.4574 87.5005 58.2233 89.0161C63.9408 90.5317 64.9099 87.0458 64.6676 84.5197C64.3769 82.0442 61.712 78.6088 60.7914 79.0634Z" fill="white"/>
<path d="M86.617 75.3764C86.617 75.3764 82.3046 74.1638 80.6088 77.8519C78.9129 81.5399 79.6397 85.2785 82.7407 86.0363C85.8417 86.7941 90.1541 85.2785 90.8809 82.0451C91.6561 78.8118 92.3829 76.4373 86.617 75.3764Z" fill="white"/>
<path d="M121.503 34.5551C121.503 34.5551 114.235 35.9191 111.28 41.0723C108.324 46.2254 111.958 46.5791 116.222 45.5181C120.486 44.5077 120.486 44.7603 118.354 49.1051C116.222 53.4499 115.544 53.4499 119.517 54.4604C123.49 55.4708 123.781 55.8244 126.106 56.5317C128.432 57.239 120.486 58.9567 125.428 62.0385C130.37 65.1203 134.683 65.1203 141.272 64.7667C147.862 64.413 159.103 62.3416 159.394 57.5421C159.733 52.7426 157.407 55.1171 154.451 54.4604C151.496 53.7531 158.376 50.6713 153.289 48.4484C148.201 46.2254 148.201 46.5791 145.585 43.4468C142.968 40.365 143.598 37.5863 139.625 37.2327C135.652 36.879 144.228 25.2087 136.669 26.5728C129.11 28.0379 123.49 33.8478 121.503 34.5551Z" fill="#FFF7C5"/>
<path d="M26.874 23.1883C26.874 23.1883 34.2874 41.1233 36.5162 46.428C38.7451 51.7327 31.4771 42.7905 26.5349 40.416C21.5926 38.0415 26.3895 44.4071 28.0854 49.8129C29.7812 55.2186 22.9009 51.0759 19.6061 52.7936C16.3112 54.5113 15.6329 55.8754 15.6329 59.6645C15.6329 63.4536 15.6329 62.7463 11.6597 63.4536C7.68655 64.1609 -2.1979 62.0895 0.467025 59.3108C3.0835 56.5827 4.7309 53.4504 3.42266 49.0046C2.11442 44.5587 -3.16696 42.7905 2.74433 40.7696C8.70408 38.6983 5.69998 34.2524 8.70408 31.1201C11.6597 28.0383 13.6463 27.6847 16.3112 26.9774C18.9277 26.2701 14.3247 18.0352 19.6061 18.0352C24.8875 18.0352 26.1957 21.8242 26.874 23.1883Z" fill="#FFF7C5"/>
<path d="M43.9781 27.6334C43.9781 27.6334 37.873 23.036 35.8864 19.1964C33.8514 15.3063 29.4906 11.8203 34.5297 12.5276C39.6173 13.2349 41.6039 11.4667 43.6389 12.5276C45.6739 13.5886 41.9431 5.15154 46.0131 6.16196C50.0832 7.2229 51.7791 7.57655 53.0873 8.28384C54.3955 8.99114 55.4615 4.39372 58.1749 5.45467C60.8883 6.51561 61.2275 9.69843 62.5842 12.8307C63.9408 15.963 63.6016 18.4891 59.5316 18.8427C55.4615 19.1964 55.4615 18.1354 54.444 20.611C53.4265 23.0865 52.0698 21.3183 49.3564 22.3792C46.643 23.3896 46.9822 28.6943 43.9781 27.6334Z" fill="#FFFA67"/>
<path d="M87.8767 6.81919C87.8767 6.81919 81.1417 12.8312 83.8066 14.1953C86.52 15.6099 90.2024 12.427 89.5725 16.3171C88.8942 20.2073 89.9117 22.9859 92.6251 22.9859C95.3385 22.9859 94.6601 26.876 97.0344 27.5833C99.4086 28.2906 97.7127 31.1198 101.104 33.5953C104.496 36.0709 116.997 37.1318 114.962 34.6563C112.927 32.1807 109.826 29.4021 111.183 29.4021C112.539 29.4021 114.574 23.7437 113.218 22.026C111.861 20.3083 109.487 19.9041 107.113 19.9041C104.738 19.9041 109.826 13.2354 108.469 10.7598C107.113 8.2843 105.756 11.1135 103.043 11.8208C100.329 12.5281 103.721 4.4447 102.025 3.03011C100.329 1.61552 98.0034 -3.38606 87.8767 6.81919Z" fill="#FFFA67"/>
<path d="M111.522 103.769C111.328 103.921 111.183 104.072 111.037 104.123C110.892 104.173 110.698 104.224 110.601 104.123C110.504 104.072 110.456 103.82 110.504 103.719C110.795 103.264 111.134 102.809 111.425 102.355C111.57 102.153 111.716 102.001 111.813 101.748C112.152 100.789 112.103 99.7276 112.249 98.7677C112.297 98.313 112.443 97.8584 112.539 97.4037C112.539 97.3026 112.588 97.2016 112.588 97.05C112.588 95.787 112.636 94.524 112.636 93.2609C112.636 92.7052 112.588 92.099 112.539 91.4927C112.443 91.4927 112.346 91.4927 112.249 91.4927C112.152 91.1896 112.055 90.8865 112.055 90.5833C112.006 89.7245 111.91 88.9161 111.619 88.0573C111.28 87.0469 110.94 86.087 110.698 85.0765C110.407 84.0661 109.971 83.1062 109.632 82.1463C109.148 80.8833 108.712 79.5697 107.936 78.4583C107.5 77.852 107.016 77.2458 106.531 76.6395C106.24 76.2859 106.047 75.8312 105.756 75.5281C105.271 75.0229 104.738 74.6187 104.205 74.164C103.576 73.6083 102.897 73.0525 102.267 72.5473C101.734 72.1431 101.153 71.739 100.571 71.3853C100.232 71.1327 99.8447 70.8801 99.5055 70.6275C98.6818 70.1223 97.8096 69.6171 96.9859 69.1119C96.3076 68.6572 95.5323 68.5056 94.7086 68.6067C94.4664 68.6572 94.2241 68.5056 94.1272 68.2025C94.0787 67.8994 94.2725 67.6973 94.4664 67.5963C95.1932 67.1921 95.92 67.3437 96.6468 67.4952C97.8096 67.7983 98.7787 68.5562 99.7962 69.1624C100.184 69.415 100.62 69.6171 101.056 69.8697C101.25 69.9708 101.444 70.1728 101.637 70.3244C102.461 70.9306 103.285 71.4864 104.109 72.0926C104.787 72.5978 105.465 73.1031 106.095 73.6588C106.677 74.164 107.21 74.7197 107.743 75.2755C108.033 75.5786 108.276 75.8817 108.518 76.2354C108.954 76.8921 109.341 77.5489 109.681 78.2057C110.117 78.9635 110.553 79.7718 110.94 80.5802C111.28 81.2875 111.473 81.9948 111.764 82.702C111.958 83.1062 112.055 83.4599 112.152 83.9145C112.249 84.3187 112.539 84.6724 112.685 85.0765C112.83 85.4302 112.927 85.7838 113.024 86.087C113.024 86.1375 113.024 86.2385 113.072 86.2385C113.654 86.5922 113.508 87.2995 113.702 87.8552C113.896 88.4614 113.945 89.1182 114.041 89.775C114.138 90.6338 114.235 91.4927 114.332 92.301C114.332 92.4021 114.381 92.5031 114.381 92.5536C114.429 92.6042 114.478 92.6547 114.526 92.7052C114.574 92.6042 114.623 92.4526 114.671 92.3516C115.253 91.2401 116.27 90.8359 117.385 90.6338C117.918 90.5328 118.354 90.6844 118.693 91.1391C119.178 91.7453 119.71 92.301 120.195 92.9073C120.486 93.2609 120.728 93.2104 121.067 92.8063C121.503 92.3516 121.988 91.9979 122.424 91.5938C122.472 91.5432 122.618 91.4927 122.715 91.4927C123.49 91.4927 124.265 91.3411 124.992 91.6443C125.089 91.6948 125.283 91.6443 125.38 91.5938C125.622 91.2906 125.913 90.9875 126.106 90.6338C126.349 90.1286 126.688 89.8255 127.027 89.9266C127.366 90.0276 127.511 90.5328 127.366 91.0885C127.269 91.3917 127.269 91.6948 127.124 91.9474C126.882 92.3516 126.591 92.8568 126.203 93.0589C125.428 93.463 124.556 93.6651 123.684 93.1094C123.296 92.8568 122.715 93.1094 122.424 93.463C121.988 93.9682 121.649 94.5745 120.97 94.8271C120.728 94.9281 120.486 94.9281 120.243 94.8776C120.05 94.8271 119.807 94.7766 119.614 94.6755C119.42 94.5745 119.274 94.4734 119.129 94.3219C118.887 93.9682 118.741 93.6146 118.548 93.2609C118.208 92.6547 117.772 92.2505 117.191 91.9979C117.046 91.9474 116.803 91.9474 116.658 92.0484C115.931 92.5536 115.204 93.1094 114.671 93.8167C114.235 94.3724 114.332 95.0292 114.381 95.686C114.381 95.9386 114.429 96.1912 114.429 96.3932C114.381 97.1511 114.332 97.9089 114.284 98.6667C114.284 98.8688 114.235 99.0203 114.187 99.2224C114.138 99.5256 114.09 99.7782 114.041 100.081C113.993 100.536 113.945 100.991 113.896 101.496C113.848 101.496 113.945 101.546 113.993 101.546C114.962 101.546 115.689 102.001 116.367 102.658C116.561 102.809 116.658 103.062 116.803 103.214C116.997 103.466 117.191 103.719 117.385 103.971C117.433 104.072 117.53 104.123 117.627 104.224C117.869 104.628 118.112 105.032 118.354 105.386C118.402 105.487 118.645 105.487 118.693 105.437C119.032 105.184 119.274 104.881 119.614 104.628C120.195 104.173 120.728 103.668 121.358 103.315C122.133 102.809 122.908 103.113 123.684 103.466C123.974 103.618 124.265 103.769 124.556 103.921C124.701 104.022 124.798 104.173 124.943 104.275C125.137 104.477 125.331 104.679 125.573 104.78C125.816 104.931 126.058 104.83 126.252 104.578C126.542 104.173 126.833 103.769 127.172 103.416C127.366 103.214 127.705 103.113 127.996 103.062C128.287 103.012 128.529 103.214 128.481 103.567C128.432 103.921 128.384 104.275 128.19 104.527C127.899 105.032 127.56 105.538 127.172 105.942C126.106 107.104 124.992 107.053 123.974 105.992C123.877 105.891 123.781 105.841 123.732 105.79C123.538 105.588 123.296 105.437 123.199 105.184C122.812 104.376 122.133 104.376 121.552 104.83C121.019 105.234 120.631 105.841 120.147 106.295C119.953 106.497 119.759 106.649 119.517 106.801C119.274 106.952 118.984 107.053 118.741 107.205C118.354 107.407 118.015 107.306 117.724 107.053C117.433 106.801 117.191 106.548 116.9 106.245C116.803 106.144 116.755 105.992 116.658 105.841C116.561 105.639 116.464 105.487 116.367 105.285C116.27 105.032 116.173 104.83 116.028 104.578C115.98 104.527 115.98 104.426 115.98 104.376C115.398 103.719 114.914 102.91 114.041 102.557C113.751 102.456 113.605 102.557 113.557 102.86C113.46 103.315 113.363 103.82 113.315 104.275C113.266 104.527 113.315 104.83 113.218 105.083C112.927 105.689 113.024 106.346 112.83 106.952C112.539 107.811 112.2 108.67 111.91 109.529C111.57 110.489 111.28 111.449 110.844 112.358C110.456 113.166 110.359 114.126 109.729 114.833C109.148 115.541 108.566 116.197 108.082 116.955C107.403 118.016 106.434 118.774 105.659 119.683C105.126 120.34 104.399 120.845 103.769 121.452C103.285 121.906 102.849 122.412 102.267 122.715C101.734 123.018 101.25 123.473 100.717 123.725C99.7477 124.23 98.7302 124.635 97.7612 125.089C97.2282 125.342 96.6952 125.746 96.1622 125.999C95.7261 126.201 95.2901 126.403 94.854 126.554C94.321 126.756 93.788 126.958 93.255 127.11C92.7705 127.262 92.3344 127.312 91.8499 127.413C90.9777 127.666 90.1056 127.918 89.2334 128.12C88.7489 128.221 88.2159 128.221 87.6829 128.323C87.1499 128.373 86.6169 128.474 86.1324 128.575C85.7932 128.626 85.4541 128.727 85.1149 128.777C84.6788 128.828 84.2427 128.878 83.8066 128.929C83.6128 128.929 83.3706 128.979 83.1768 128.979C82.7407 128.979 82.3046 128.929 81.82 128.929C80.8994 128.929 80.0273 129.03 79.1067 129.03C78.5252 129.03 77.9438 128.979 77.3624 128.979C77.2655 128.979 77.1201 129.03 77.0232 129.03C76.7325 129.08 76.4417 129.08 76.1995 129.08C75.9088 129.08 75.618 129.131 75.3273 129.131C75.0851 129.131 74.8912 129.181 74.649 129.181C74.3583 129.181 74.0675 129.131 73.7768 129.131C72.8078 129.181 71.8387 129.232 70.8696 129.282C70.2882 129.333 69.7068 129.333 69.1253 129.333C68.5439 129.333 68.0109 129.282 67.4295 129.282C67.2841 129.282 67.1387 129.282 66.9934 129.282C66.4119 129.232 65.8305 129.181 65.2491 129.131C65.1522 129.131 65.1037 129.08 65.0068 129.08C64.3284 129.03 63.6016 128.979 62.9233 128.828C62.4872 128.727 62.0511 128.525 61.5666 128.323C61.2274 128.676 60.7429 128.626 60.2099 128.626C58.8532 128.626 57.545 128.323 56.2852 127.918C54.8316 127.464 53.4265 126.908 52.0698 126.201C51.1976 125.746 50.3254 125.241 49.4533 124.736C48.678 124.281 47.9028 123.826 47.176 123.321C46.3038 122.664 45.4317 121.957 44.5595 121.3C44.0265 120.896 43.542 120.492 42.9121 120.138C42.4276 119.886 42.0399 119.33 41.6523 118.875C41.0224 118.168 40.441 117.41 39.8595 116.652C39.375 115.995 38.842 115.389 38.3575 114.682C37.9699 114.126 37.5338 113.57 37.2431 112.964C37.0008 112.509 36.8554 112.004 36.7101 111.55C36.6616 111.449 36.6616 111.398 36.6132 111.297C36.4194 110.792 36.2255 110.337 36.0317 109.832C35.6926 109.125 35.3534 108.468 35.0142 107.76C34.7235 107.104 34.4812 106.447 34.239 105.841C34.1905 105.689 34.0936 105.538 33.9967 105.335C33.6575 105.942 33.1245 105.942 32.64 105.992C32.107 106.093 31.671 105.841 31.2349 105.538C30.7988 105.234 30.3142 105.032 29.8297 104.78C29.7328 104.729 29.5875 104.83 29.539 104.881C29.3936 105.083 29.2967 105.335 29.2483 105.538C29.1029 106.043 29.0545 106.548 28.8607 107.053C28.3761 108.215 27.6493 108.417 26.6318 107.811C25.905 107.407 25.1782 106.851 24.4999 106.295C23.8215 105.79 22.7556 105.992 22.3679 106.801C22.0288 107.407 21.8349 108.064 21.5442 108.72C21.5442 108.771 21.5442 108.821 21.4958 108.821C21.3504 109.175 21.0112 109.428 20.769 109.327C20.4782 109.226 20.3329 108.821 20.4782 108.468C20.769 107.76 21.1082 107.053 21.3989 106.346C21.4473 106.245 21.4958 106.144 21.5442 106.043C22.0288 104.881 23.6277 104.527 24.4999 105.032C25.0328 105.335 25.6627 105.487 26.1957 105.79C26.5833 105.992 26.9225 106.346 27.3586 106.649C27.6493 105.942 27.9401 105.335 28.1823 104.679C28.57 103.517 29.1514 103.315 30.2658 103.315C30.7019 103.315 31.138 103.668 31.5256 103.87C31.8163 104.022 32.0586 104.224 32.3493 104.325C32.64 104.477 32.8823 104.325 33.0276 104.022C33.0761 103.82 33.173 103.668 33.2699 103.517C33.3184 103.416 33.3668 103.315 33.3668 103.214C33.2699 102.759 33.173 102.355 33.0761 101.9C33.0276 101.647 33.0276 101.395 32.9792 101.142C32.8823 100.485 32.7369 99.8287 32.64 99.1719C32.5915 98.6667 32.5916 98.111 32.5916 97.5552C32.5916 96.8985 32.5431 96.2417 32.4946 95.5849C32.4462 95.5849 32.3977 95.5344 32.3977 95.5849C31.574 95.9386 30.9926 95.3828 30.5081 94.8271C29.9266 94.0693 28.7153 94.4734 28.2792 95.0797C27.8916 95.686 27.3586 96.2417 26.5833 96.2922C26.0988 96.3427 25.8081 96.0901 25.6627 95.6354C25.5658 95.2313 25.372 94.8776 25.2751 94.524C25.1782 94.2208 25.1782 93.9177 25.0813 93.6651C24.9359 93.3115 24.7906 93.0083 24.5968 92.7052C24.3545 92.301 24.0638 91.9474 23.7731 91.6443C23.337 91.1896 22.804 91.6443 22.7071 92.0484C22.7071 92.099 22.6586 92.1495 22.7071 92.2C22.7555 92.3516 22.8524 92.5031 22.804 92.6042C22.6586 92.9073 22.4648 93.2104 22.2226 93.4125C21.8834 93.6651 21.3989 93.362 21.3989 92.8568C21.3989 92.5537 21.4958 92.2505 21.5927 91.9979C21.7865 91.5937 22.0288 91.2401 22.271 90.8865C22.6586 90.3307 23.6277 90.0781 24.2092 90.4318C25.0329 90.937 25.6627 91.6443 25.9535 92.6042C26.0019 92.7557 26.0504 92.8568 26.1473 93.0083C26.5349 93.5641 26.7287 94.1703 26.8741 94.8776C27.2133 94.524 27.5524 94.2208 27.7947 93.9177C28.3277 93.2609 29.2967 92.9073 30.1205 93.1599C30.4596 93.2609 30.8472 93.362 31.1864 93.463C31.4771 93.5641 31.7678 93.7662 32.1555 93.9682C32.3008 93.6146 32.4947 93.2609 32.5431 92.9073C32.6885 91.8464 32.6885 90.7854 32.8338 89.7245C32.9307 88.8656 33.0276 87.9562 33.2214 87.0974C33.4153 86.188 33.7544 85.2786 33.9967 84.3692C34.1421 83.9651 34.2874 83.5104 34.4328 83.1062C34.675 82.5505 34.8689 81.9442 35.1111 81.3885C35.4019 80.7317 35.6926 80.075 36.0317 79.4182C36.5163 78.5593 37.0493 77.7005 37.5338 76.8416C37.8245 76.3869 38.0183 75.8312 38.3575 75.427C38.7936 74.7702 39.3266 74.2145 39.8111 73.6083C40.441 72.7494 41.1678 71.9916 42.0399 71.3853C43.009 70.7286 43.9296 70.0718 45.044 69.6676C46.1585 69.2635 47.2245 68.7077 48.2904 68.2025C48.5811 68.0509 48.9203 67.9499 49.2595 67.8994C49.3564 67.8994 49.5986 67.9499 49.5986 68.0509C49.6471 68.152 49.5502 68.3541 49.4533 68.4046C49.211 68.5562 48.9688 68.7077 48.678 68.8593C47.8059 69.314 46.8853 69.7687 46.0131 70.2739C45.0925 70.7791 44.2203 71.2843 43.3482 71.7895C43.1544 71.8905 42.9605 72.0926 42.8152 72.2442C42.2822 72.7494 41.7008 73.3051 41.1678 73.8609C40.7317 74.3156 40.3441 74.7702 39.908 75.2249C39.7626 75.3765 39.7142 75.5786 39.5688 75.7301C39.2781 76.1343 38.9874 76.5385 38.7451 76.9427C38.3575 77.5994 37.9699 78.2057 37.6307 78.913C37.0977 79.9739 36.5647 81.0349 36.0802 82.1463C35.7895 82.8536 35.5472 83.6114 35.3049 84.3187C35.1111 84.9755 34.8689 85.6323 34.7235 86.289C34.5297 86.9963 34.3843 87.7036 34.239 88.4109C34.1421 88.8656 34.0451 89.3203 33.9482 89.8255C33.8513 90.4823 33.8029 91.1391 33.706 91.8464C33.706 91.9474 33.7544 92.099 33.7544 92.2505C33.8029 93.0083 33.8029 93.7661 33.8513 94.524C33.8998 95.2313 33.9483 95.9386 33.9967 96.5953C34.0936 97.5552 34.1421 98.5151 34.239 99.475C34.3359 100.081 34.4812 100.637 34.6266 101.243C34.772 101.799 34.8689 102.355 35.0142 102.91C35.1596 103.365 35.305 103.82 35.4503 104.275C35.5472 104.527 35.6441 104.83 35.741 105.083C35.9833 105.639 36.2256 106.245 36.4194 106.801C36.5163 107.053 36.6132 107.356 36.7101 107.659C37.0977 108.417 37.4853 109.175 37.8245 109.933C37.873 110.084 38.0183 110.236 37.9699 110.337C37.9214 111.044 38.406 111.499 38.7451 112.055C38.9389 112.358 39.1328 112.712 39.3266 113.015C39.4719 113.267 39.6173 113.57 39.7626 113.823C40.2956 114.732 40.7802 115.642 41.3131 116.501C41.7008 117.107 42.1369 117.713 42.6214 118.218C43.5905 119.128 44.608 120.037 45.6739 120.845C46.5945 121.603 47.6121 122.26 48.5811 122.967C49.211 123.422 49.8894 123.826 50.5677 124.18C51.1976 124.533 51.8275 124.786 52.5058 125.089C53.3295 125.443 54.1048 125.847 54.977 126.1C56.0914 126.453 57.2058 126.756 58.3687 127.06C58.8532 127.211 59.3862 127.312 59.8707 127.413C60.0645 127.464 60.2584 127.413 60.4037 127.464C60.7914 127.514 61.1305 127.565 61.4697 127.716C61.7119 127.817 61.9542 127.767 62.1965 127.716C62.4872 127.666 62.8264 127.666 63.1171 127.666C63.3109 127.666 63.5047 127.666 63.6501 127.666C63.747 127.666 63.8439 127.615 63.9408 127.615C64.9583 127.666 65.9274 127.767 66.9449 127.817C67.4779 127.817 68.0109 127.767 68.5439 127.767C68.9315 127.767 69.3191 127.767 69.7067 127.716C70.2397 127.666 70.8212 127.615 71.3542 127.615C72.1779 127.565 73.0016 127.565 73.8253 127.565C73.9706 127.565 74.0676 127.464 74.2129 127.464C74.5036 127.413 74.7943 127.413 75.0851 127.413C75.3273 127.413 75.5696 127.363 75.8119 127.363C76.1026 127.363 76.4417 127.363 76.7325 127.312C76.9747 127.312 77.217 127.363 77.4593 127.312C78.3314 127.11 79.2036 127.161 80.0757 127.262C80.1726 127.262 80.2211 127.262 80.318 127.262C80.851 127.211 81.384 127.211 81.917 127.161C82.8376 127.06 83.7582 126.958 84.6304 126.857C84.9211 126.807 85.2118 126.807 85.5025 126.756C86.1324 126.655 86.8107 126.605 87.4406 126.453C88.3613 126.251 89.2819 125.999 90.2509 125.746C90.6385 125.645 91.0262 125.645 91.3653 125.544C91.6561 125.493 91.8983 125.342 92.1406 125.241C92.4313 125.14 92.722 125.039 93.0128 124.988C93.8365 124.736 94.6602 124.483 95.4839 124.129C95.9684 123.927 96.4045 123.624 96.8406 123.371C97.3251 123.119 97.8096 122.866 98.3426 122.563C98.7302 122.361 99.1179 122.108 99.5055 121.906C99.5539 121.856 99.6024 121.805 99.6993 121.755C100.232 121.654 100.475 121.25 100.862 120.896C101.25 120.542 101.686 120.29 102.074 119.987C102.51 119.633 102.897 119.229 103.285 118.875C103.576 118.623 103.866 118.37 104.109 118.067C104.642 117.511 105.126 117.006 105.611 116.4C106.144 115.743 106.628 115.086 107.113 114.379C107.403 113.975 107.646 113.52 107.936 113.065C108.179 112.712 108.421 112.408 108.615 112.055C108.809 111.651 108.954 111.246 109.148 110.842C109.196 110.691 109.245 110.59 109.293 110.438C109.584 109.68 109.874 108.922 110.165 108.165C110.311 107.862 110.407 107.558 110.553 107.255C110.747 106.649 110.94 106.043 111.134 105.437C111.134 105.386 111.134 105.285 111.134 105.234C111.183 104.931 111.231 104.628 111.28 104.275C111.425 104.224 111.473 104.022 111.522 103.769Z" fill="#333161"/>
<path d="M97.3736 7.57679C96.6952 7.93043 96.0169 8.28408 95.3385 8.63773C95.1447 8.73877 94.9509 8.78929 94.7571 8.89033C94.5148 8.99138 94.2725 9.14294 94.0303 9.24398C93.9334 9.2945 93.8849 9.39554 93.788 9.39554C93.1097 9.74919 92.3829 10.0523 91.753 10.507C91.0746 10.9617 90.2025 11.1638 89.6695 11.8711C89.2334 12.4268 88.652 12.831 88.119 13.2351C87.8767 13.4372 87.586 13.4372 87.3437 13.2351C87.1015 13.0331 87.0046 12.6794 87.1984 12.4268C87.7798 11.6185 88.2643 10.608 89.3303 10.3049C89.5241 10.2544 89.6695 10.1028 89.8148 9.95127C90.4932 9.39554 91.2684 8.89033 92.0921 8.58721C92.3829 8.48616 92.6251 8.13252 92.9643 8.03148C94.0303 7.67783 94.9509 6.97053 96.0169 6.56636C96.4045 6.4148 96.8406 6.31376 97.1797 6.11168C97.5189 5.90959 97.8581 5.75803 98.2457 5.70751C98.6333 5.65699 98.9241 5.65699 99.1663 6.01063C99.4086 6.36428 99.4086 6.76845 99.3117 7.22314C99.1179 7.82939 98.8756 8.38512 98.6818 8.99137C98.5364 9.44606 98.5364 9.95128 98.4395 10.406C98.3911 10.7091 98.2457 11.0627 98.1488 11.3659C98.1488 11.3659 98.1488 11.3659 98.1488 11.4164C97.9065 12.1237 97.7127 12.8815 97.4705 13.5888C97.422 13.6898 97.422 13.8414 97.3736 13.9424C96.9859 14.9023 96.5983 15.8622 96.2107 16.7716C96.1622 16.8727 96.1622 16.9737 96.1138 17.0242C96.6467 16.8727 97.1798 16.7716 97.7127 16.6201C98.0519 16.519 98.4395 16.4685 98.7302 16.3169C99.99 15.8117 101.298 15.7612 102.607 15.6602C102.946 15.6602 103.333 15.6096 103.672 15.7107C104.593 16.0643 104.787 17.0242 104.302 17.782C103.769 18.6409 103.139 19.4998 102.413 20.2576C101.686 21.0154 101.056 21.8742 100.426 22.6826C100.232 22.9352 99.99 23.1878 99.7478 23.5414C99.8931 23.592 99.99 23.6425 100.087 23.6425C100.426 23.592 100.814 23.4404 101.153 23.3899C101.637 23.3393 102.074 23.3393 102.558 23.3393C103.188 23.2888 103.866 23.1878 104.496 23.1373C105.465 23.0362 106.434 22.9352 107.403 22.8341C107.694 22.8341 108.082 22.8341 108.372 22.9857C108.615 23.0867 108.905 23.2888 109.002 23.5414C109.487 24.4508 109.293 25.4107 108.76 26.219C108.276 26.9263 107.549 27.5326 106.967 28.1894C106.725 28.442 106.483 28.6441 106.192 28.8967C105.756 29.3008 105.32 29.6545 104.884 30.0586C105.514 30.4123 106.047 30.9175 106.725 31.1196C107.597 31.3217 108.13 32.13 108.954 32.3826C109.293 32.4837 109.535 32.8373 109.778 33.0899C110.02 33.3425 110.02 33.6456 109.826 33.8982C109.632 34.2014 109.39 34.3024 109.051 34.2014C108.566 34.0498 108.082 33.9993 107.694 33.5951C107.597 33.4941 107.355 33.4941 107.21 33.393C106.822 33.191 106.483 32.9889 106.144 32.8373C105.804 32.6352 105.417 32.4837 105.078 32.2816C104.448 31.9279 103.818 31.5743 103.236 31.1196C102.897 30.867 102.607 30.5133 102.461 30.1092C102.267 29.6545 102.51 29.0987 102.994 28.8967C103.333 28.7451 103.624 28.5935 103.866 28.2904C104.06 28.0378 104.399 27.8862 104.642 27.6842C105.175 27.28 105.708 26.8253 106.241 26.4717C106.87 26.118 107.113 25.5118 107.403 24.855C106.677 24.6529 105.95 24.7034 105.271 24.855C105.078 24.9055 104.884 24.9055 104.738 24.956C104.109 25.0065 103.43 25.0571 102.8 25.1581C101.977 25.3097 101.153 25.5118 100.281 25.3602C100.232 25.3602 100.135 25.3097 100.087 25.3602C99.5539 25.7138 99.021 25.4612 98.4395 25.3602C97.9066 25.2591 97.3735 24.6024 97.5674 24.0466C97.7612 23.4404 98.0519 22.8847 98.4395 22.3794C98.9241 21.7227 99.5055 21.1164 100.038 20.5102C100.232 20.3081 100.426 20.106 100.62 19.9039C100.668 19.8534 100.717 19.8534 100.717 19.8029C101.298 19.0451 101.831 18.2872 102.413 17.5294C102.413 17.5294 102.413 17.4789 102.461 17.4284C102.316 17.4284 102.122 17.3779 101.977 17.4284C100.717 17.681 99.4571 17.9336 98.1973 18.1862C97.8581 18.2367 97.5674 18.5398 97.2282 18.5904C96.3561 18.7419 95.6292 19.2471 94.9509 19.7524C94.4664 20.106 94.1272 20.106 93.788 19.8534C93.4488 19.6008 93.3519 19.1966 93.5457 18.6409C94.1272 17.2768 94.7086 15.8622 95.2901 14.4982C95.387 14.2961 95.387 14.1445 95.4354 13.9424C95.6292 13.4877 95.8231 13.0331 96.0169 12.5784C96.0653 12.3763 96.1138 12.2247 96.1622 12.0226C96.2107 11.8206 96.3076 11.6185 96.356 11.4164C96.4045 11.2648 96.453 11.1133 96.5014 10.9617C96.6952 10.2544 96.889 9.59763 97.0828 8.89033C97.1797 8.48617 97.2767 8.03148 97.3736 7.62731C97.4705 7.57679 97.422 7.57679 97.3736 7.57679Z" fill="#333161"/>
<path d="M78.9128 65.9289C78.8159 64.9185 79.252 64.0596 79.7849 63.3018C80.221 62.645 80.6571 61.9377 81.0932 61.2809C81.3354 60.9273 81.6746 60.5736 81.9169 60.2705C81.9653 60.1695 82.0622 60.0684 82.1107 60.0179C82.4499 59.5632 82.789 59.058 83.1767 58.6033C83.4674 58.1992 83.8065 57.7445 84.0973 57.3403C84.4849 56.8856 84.921 56.4309 85.3086 55.9762C85.7447 55.4205 86.1323 54.8648 86.4715 54.309C86.8591 53.6523 87.1498 53.4502 87.8766 53.6017C88.458 53.7028 88.9911 53.9554 89.3787 54.5111C89.7663 55.0669 90.2508 55.6226 90.6385 56.1783C90.9292 56.633 91.0745 57.1382 91.3168 57.6434C91.3168 57.6939 91.3168 57.7445 91.3652 57.7445C91.8498 58.1992 91.7529 58.957 92.0436 59.4622C92.625 60.4726 92.6735 61.6346 93.0127 62.645C93.2065 63.1502 93.2065 63.706 93.3518 64.2617C93.4003 64.6153 93.4972 64.9185 93.5941 65.2721C93.5941 65.2721 93.5941 65.2721 93.5941 65.3226C93.691 65.9794 93.7879 66.5856 93.8848 67.2424C93.9333 67.394 93.9333 67.5456 93.9817 67.6971C94.0302 68.1518 93.7879 68.6065 93.4003 68.7075C92.9642 68.8086 92.5281 68.556 92.3828 68.1013C92.2374 67.5961 91.9952 67.0909 92.0436 66.4846C92.0436 65.9289 91.8498 65.3731 91.7044 64.8174C91.5106 64.0091 91.3653 63.2007 91.1715 62.3924C91.123 62.0893 90.9776 61.7862 90.8807 61.5335C90.7354 61.0283 90.59 60.4726 90.3962 59.9674C90.1539 59.3106 89.8148 58.7044 89.524 58.0981C89.3787 57.795 89.2333 57.4919 89.1364 57.1382C88.8941 56.3804 88.4581 55.8247 87.9251 55.2689C87.7313 55.0669 87.5859 55.0669 87.4405 55.2689C87.0529 55.7236 86.7138 56.1783 86.3261 56.633C85.7931 57.3403 85.3086 58.0476 84.7756 58.7044C84.2426 59.4117 83.6127 60.0684 83.0798 60.7252C82.8375 61.0283 82.6437 61.382 82.4499 61.6851C81.9653 62.3924 81.3839 63.0997 80.9478 63.8575C80.6086 64.4132 80.3179 65.0195 80.0756 65.6257C79.8818 66.0804 79.7849 66.4846 79.2035 66.3836C78.9612 66.333 78.719 66.5351 78.4767 66.6362C77.4592 66.8888 76.4901 67.0909 75.4241 66.9393C74.9881 66.8888 74.5035 66.9898 74.019 67.0403C73.5829 67.0403 73.0984 66.9898 72.6623 66.9898C71.8386 66.9898 71.0149 67.0403 70.1912 67.0403C69.2221 67.0403 68.253 66.9393 67.284 66.9393C66.3634 66.9393 65.4428 66.9898 64.4737 67.0403C64.2314 67.0403 63.9892 66.9898 63.7469 67.0403C63.3593 67.0403 62.9717 67.0403 62.584 67.0909C62.0026 67.1919 61.7119 66.9393 61.615 66.1815C61.5665 65.7268 61.3242 65.4237 61.1789 65.0195C60.7913 64.0596 60.4036 63.0997 60.0645 62.0893C59.8222 61.382 59.5799 60.6747 59.3377 60.0179C58.95 59.1085 58.514 58.1992 58.2232 57.2898C58.0294 56.633 57.4964 56.1783 57.2542 55.5721C57.0119 54.8142 56.4789 54.208 55.9459 53.6523C55.6552 53.3491 55.316 53.3997 55.1222 53.8038C54.8315 54.309 54.6377 54.8648 54.2985 55.2689C53.6686 56.1783 53.4748 57.2898 52.9903 58.2497C52.6511 58.9065 52.4573 59.6643 52.2635 60.3716C51.9243 61.4325 51.6336 62.544 51.3429 63.6049C51.2944 63.807 51.246 64.0596 51.1975 64.3122C51.0037 65.2721 50.8099 66.2825 50.6161 67.2424C50.5676 67.6466 50.6645 68.0508 50.713 68.4549C50.7614 68.7581 50.8099 69.1117 50.5192 69.2633C50.3254 69.3643 50.0831 69.0612 49.8893 68.7075C49.3563 67.5961 49.647 66.4846 49.8408 65.3731C50.0346 64.2112 50.2284 63.0997 50.5192 61.9377C50.9068 60.5736 51.3913 59.2096 51.7789 57.8455C52.0212 56.9361 52.4573 56.1278 52.9418 55.3195C53.1356 55.0163 53.1841 54.6627 53.3779 54.3596C53.7655 53.7533 54.1532 53.0965 54.5408 52.5408C55.0253 51.884 56.3336 51.7325 57.0119 52.5913C57.2542 52.8439 57.4964 53.0965 57.6902 53.3997C57.8841 53.6523 57.981 53.9049 58.1748 54.208C58.2232 54.309 58.3201 54.4101 58.417 54.5111C58.7562 54.9153 59.1438 55.3195 59.2408 55.9257C59.2408 55.9762 59.2892 56.0773 59.3377 56.1278C59.9676 56.8351 60.1129 57.7445 60.549 58.6033C60.8882 59.2601 61.1789 59.9169 61.4211 60.6242C61.8088 61.5841 62.0995 62.5945 62.5356 63.5039C62.8263 64.2112 62.8263 65.0195 63.4077 65.5752C63.5046 65.6763 63.65 65.7268 63.7469 65.7268C64.5706 65.6763 65.3459 65.5752 66.1696 65.5247C66.8964 65.4742 67.6716 65.4742 68.3984 65.4742C69.2221 65.4742 70.0943 65.5752 70.918 65.6257C71.8386 65.6763 72.7592 65.6258 73.6798 65.6763C74.0674 65.6763 74.5035 65.6763 74.8911 65.6763C75.7149 65.7268 76.4901 65.7268 77.3138 65.7773C77.8468 65.7268 78.3798 65.8278 78.9128 65.9289Z" fill="#333161"/>
<path d="M68.3499 97.7069C67.9623 98.2626 67.5747 98.8183 67.1871 99.3235C66.8964 99.6772 66.5572 99.9803 66.2665 100.334C66.1211 100.486 66.0242 100.637 65.9273 100.839C65.6366 101.193 65.3943 101.597 65.1036 101.951C64.8128 102.304 64.5221 102.607 64.2314 102.911C64.0376 103.163 63.7469 103.214 63.5046 103.062C63.2139 102.911 63.1654 102.607 63.2624 102.355C63.5046 101.799 63.7953 101.243 64.0861 100.688C64.3768 100.182 64.6675 99.7277 65.0067 99.2225C65.4912 98.5657 65.9758 97.909 66.4603 97.2522C66.7995 96.7975 67.0902 96.3428 67.3809 95.8881C68.0108 94.9282 68.6407 93.9683 69.2706 93.0589C69.319 92.9579 69.4159 92.8569 69.4644 92.7053C69.6582 92.4022 69.7551 91.998 69.9974 91.7454C70.4334 91.2907 70.5788 90.735 70.7726 90.2298C70.8695 90.0277 71.0149 89.8256 71.1602 89.674C71.2087 89.6235 71.3056 89.573 71.3541 89.5225C71.7417 89.0173 72.2262 89.0173 72.7107 89.5225C73.5344 90.3308 74.2612 91.1897 74.988 91.998C75.3272 92.3516 75.6664 92.6548 76.0056 92.9579C76.3447 93.3115 76.6839 93.6652 76.9746 94.0188C77.4591 94.524 77.9437 95.0293 78.4282 95.5345C78.9127 96.0902 79.3488 96.6965 79.8334 97.2522C80.221 97.7069 80.6086 98.1616 80.9963 98.6162C81.3354 98.9699 81.7231 99.3235 82.1107 99.6772C82.256 99.8288 82.4014 100.031 82.4983 100.233C82.6437 100.587 82.4498 101.041 82.0622 101.041C81.8199 101.041 81.4808 101.041 81.3354 100.89C80.6086 100.283 79.9303 99.6267 79.2519 98.9699C79.0097 98.7173 78.719 98.4647 78.4767 98.2121C78.2344 98.01 78.0406 97.7574 77.8468 97.5048C77.5561 97.1511 77.3622 96.7975 77.0715 96.4944C76.7324 96.0902 76.3447 95.686 75.9087 95.3324C75.9087 95.6355 75.9571 95.9386 75.9571 96.2418C76.0056 96.747 76.0056 97.2522 76.054 97.8079C76.1509 98.5152 76.2478 99.2225 76.3447 99.9298C76.3932 100.435 76.3932 100.94 76.4416 101.496C76.4901 102.001 76.5386 102.506 76.5386 103.062C76.5386 103.618 76.5385 104.224 76.4901 104.78C76.4416 105.639 76.4417 106.498 76.3932 107.306C76.3447 107.761 76.2478 108.215 76.1509 108.67C76.054 109.125 75.9087 109.529 75.9087 109.983C75.8118 110.842 75.3757 111.499 74.8911 112.105C74.4551 112.611 73.9221 112.914 73.1468 112.914C72.0809 112.914 71.2571 112.459 70.5303 111.802C70.2396 111.55 69.9974 111.095 69.8035 110.741C69.4159 110.085 68.9798 109.428 68.9798 108.569C68.9798 108.417 68.8345 108.215 68.786 108.064C68.7376 107.912 68.6891 107.811 68.6407 107.66C68.5922 107.356 68.4953 107.053 68.4953 106.7C68.4468 105.891 68.3984 105.133 68.3499 104.325C68.3015 103.921 68.253 103.567 68.253 103.163C68.253 101.85 68.2046 100.536 68.2046 99.172C68.3015 98.7173 68.3499 98.2121 68.3499 97.7069ZM72.0324 91.0381C71.6448 91.6949 71.3056 92.3516 70.918 93.0084C70.7726 93.261 70.5788 93.4631 70.4334 93.7157C70.0943 94.322 69.8036 94.9787 69.5128 95.6355C69.4159 95.8881 69.2221 96.0902 69.2221 96.3428C69.2221 97.3027 69.2706 98.2626 69.319 99.2225C69.319 99.3741 69.319 99.5256 69.3675 99.6772C69.4644 100.738 69.5613 101.799 69.6582 102.86C69.7066 103.315 69.6582 103.719 69.7066 104.174C69.8035 104.931 69.9489 105.689 70.0943 106.396C70.1912 106.902 70.2396 107.457 70.3365 108.013C70.3365 108.114 70.4334 108.215 70.4334 108.316C70.5303 108.518 70.6272 108.72 70.6757 108.923C70.9664 109.933 71.5479 110.691 72.4685 111.196C73.2922 111.651 74.1159 111.398 74.2612 110.287C74.2612 110.186 74.3582 110.034 74.3582 109.933C74.5035 109.377 74.6489 108.822 74.7942 108.266C74.8911 107.862 74.8911 107.407 74.9396 107.003C75.0365 106.295 75.1334 105.588 75.1819 104.83C75.2303 104.325 75.085 103.82 75.1819 103.315C75.2788 102.607 75.2303 101.9 75.085 101.193C74.9881 100.839 74.9881 100.486 74.9396 100.132C74.8911 99.4751 74.8427 98.7678 74.7942 98.111C74.7942 97.8079 74.7942 97.4543 74.7458 97.1511C74.6489 96.2923 74.7458 95.5345 75.1819 94.8272C74.1159 93.5136 73.0499 92.3011 72.0324 91.0381Z" fill="#333161"/>
<path d="M49.3079 17.2773C48.9688 16.5194 48.6781 15.8121 48.3389 15.0543C47.9997 14.347 47.6605 13.6903 47.3698 12.983C47.0791 12.2252 46.8853 11.4168 46.6915 10.6085C46.5946 10.2043 46.6915 9.80015 47.0306 9.49702C47.3698 9.24441 47.7574 9.24442 48.0966 9.39598C48.6296 9.69911 49.1626 10.0528 49.6471 10.4569C50.4224 11.0632 51.1976 11.7705 51.9729 12.3767C52.5059 12.7809 53.1357 13.084 53.7172 13.4882C54.1533 12.9325 54.2986 12.3262 54.444 11.7705C54.6378 11.0127 54.8316 10.2548 55.0254 9.49702C55.0739 9.39598 55.1223 9.29494 55.1223 9.19389C55.2192 8.08243 55.8976 8.03191 56.6244 8.18347C57.3996 8.33504 58.0295 8.68868 58.4171 9.49702C58.6594 10.0528 59.0955 10.5074 59.3862 11.0632C59.6769 11.5684 59.8223 12.1746 60.0646 12.7304C60.113 12.8819 60.2099 12.983 60.3068 13.1345C60.5491 13.4882 60.5491 13.9429 60.2584 14.1955C59.9676 14.4986 59.5316 14.4986 59.2409 14.145C58.9017 13.7913 58.5625 13.4882 58.2718 13.1345C57.9811 12.6798 57.7873 12.1241 57.545 11.6694C57.3027 11.2147 57.012 10.8106 56.7213 10.4064C56.6728 10.4064 56.6244 10.4569 56.6244 10.4569C56.5759 10.6085 56.479 10.7095 56.479 10.8611C56.4306 11.9726 55.9945 12.983 55.6069 14.0439C55.4615 14.3976 55.2192 14.7512 54.977 15.0038C54.2986 15.7111 52.9904 15.4585 52.2636 14.8523C51.779 14.4481 51.2461 14.0944 50.7615 13.6903C50.4224 13.4377 50.1801 13.1345 49.8409 12.8314C49.5987 12.6293 49.308 12.4778 48.9203 12.2252C49.0657 12.5283 49.1626 12.7304 49.2595 12.983C49.308 13.1345 49.4048 13.2356 49.4533 13.3871C49.8409 14.145 50.277 14.9533 50.6646 15.7616C50.81 16.0142 50.9069 16.2668 51.0038 16.57C51.1492 16.9236 51.2945 17.2773 51.3914 17.6814C51.6337 18.4898 51.2945 19.3486 50.3254 19.5002C49.744 19.6012 49.1626 19.6012 48.5811 19.3486C47.9997 19.096 47.3213 19.0455 46.6915 18.8434C46.0131 18.6413 45.3348 18.3887 44.6564 18.0856C43.9781 17.7825 43.2997 17.4288 42.6214 17.1257C41.4101 16.57 40.1987 16.0648 38.9874 15.509C38.939 15.509 38.8905 15.509 38.7936 15.4585C38.8905 16.0142 38.9874 16.4689 39.375 16.8226C39.6657 17.1257 39.908 17.4793 40.1987 17.833C40.6348 18.3382 41.1193 18.8939 41.5554 19.3991C42.5245 20.5611 43.4936 21.7231 44.4626 22.8851C44.5595 22.9861 44.6564 23.0872 44.7533 23.1377C45.044 23.3903 45.141 23.744 44.9472 24.0471C44.7533 24.3502 44.3172 24.4512 44.0265 24.1986C43.7843 23.9966 43.542 23.7439 43.2997 23.4408C42.7183 22.7841 42.1853 22.0768 41.6039 21.42C40.9255 20.6622 40.1987 19.9549 39.5204 19.1971C39.1328 18.7929 38.7451 18.4392 38.406 18.0351C38.1152 17.6814 37.9214 17.1762 37.6792 16.772C37.2915 16.1658 37.0977 15.5595 37.1946 14.8523C37.1946 14.5996 37.2915 14.2965 37.4369 14.1955C37.8245 13.9429 38.3575 13.7913 38.8421 13.9429C39.5204 14.145 40.1987 14.347 40.8771 14.6502C41.5554 14.9028 42.2338 15.2564 42.9121 15.5595C43.3482 15.7616 43.7843 15.9132 44.2204 16.0648C44.6564 16.2163 45.0925 16.3679 45.4801 16.5194C46.3038 16.9236 47.176 17.0752 48.0966 17.2267C48.5327 17.2773 48.9688 17.3783 49.4049 17.4793C49.2595 17.3783 49.2595 17.3278 49.3079 17.2773Z" fill="#333161"/>
<path d="M91.9953 81.085C91.85 81.7922 91.7046 82.4995 91.4623 83.1563C91.3654 83.51 91.1232 83.8131 90.9294 84.1162C90.784 84.3183 90.6386 84.5709 90.4933 84.773C90.0087 85.4298 89.3789 85.8339 88.5551 85.935C88.3613 85.935 88.1675 86.0865 88.0222 86.1876C87.7799 86.3391 87.5861 86.5917 87.3438 86.7433C86.9562 86.9959 86.5686 87.2485 86.1809 87.4001C85.6479 87.5516 85.0665 87.7032 84.5335 87.6527C83.7583 87.6527 82.9346 87.5011 82.1593 87.3496C81.917 87.299 81.7232 87.1475 81.481 87.0464C80.6573 86.5917 79.9305 85.9855 79.3975 85.1771C79.0098 84.6214 78.5738 84.0657 78.4769 83.4089C78.38 82.8027 78.2831 82.1964 78.2831 81.5396C78.2831 80.6303 78.4284 79.8219 78.6222 78.9631C78.7676 78.4073 78.9614 77.9021 79.3006 77.4474C79.6398 76.9927 79.9305 76.4875 80.415 76.1844C81.4325 75.6287 82.45 75.2245 83.6129 75.174C83.7583 75.174 83.9036 75.174 84.049 75.1235C84.9696 74.6688 85.7933 75.0224 86.5686 75.4266C86.9562 75.6287 87.3438 76.0328 87.6345 76.3865C87.8768 76.6896 88.1191 76.8412 88.4582 76.7907C89.2819 76.6391 89.8634 77.2454 90.4448 77.7C90.9294 78.0537 91.2685 78.4579 91.4623 79.0641C91.7046 79.7209 91.9953 80.4282 91.753 81.186C91.9469 81.0849 91.9469 81.085 91.9953 81.085ZM83.2253 77.5485C82.983 77.7506 82.7892 77.9526 82.5954 78.1042C81.9171 78.6094 81.3841 79.3167 81.0933 80.0745C80.8026 80.7313 80.5604 81.4891 80.6573 82.2469C80.7057 82.6511 80.7057 83.0553 80.7057 83.4594C80.7057 84.0152 81.2387 84.6719 81.7232 84.773C82.547 84.874 83.3707 85.0256 84.1459 85.0256C84.8243 85.0256 85.5026 85.0256 86.084 84.5204C86.4232 84.2173 86.8593 83.9646 87.1985 83.6615C87.7314 83.1563 88.2644 82.6006 88.3129 81.6912C88.3129 81.287 88.2644 80.9334 88.216 80.5797C88.1191 80.024 88.0222 79.4683 87.7799 79.0136C87.3923 78.4073 86.9077 77.8516 86.4232 77.3464C86.2778 77.1948 86.084 77.0433 85.8902 76.8917C85.4057 76.4875 84.8243 76.5381 84.2913 76.3865C84.049 76.336 83.8067 76.336 83.5645 76.3865C83.1284 76.4875 82.7407 76.6896 82.3047 76.7401C81.5779 76.8917 81.0449 77.3464 80.5604 77.9021C80.415 78.0537 80.3181 78.3063 80.2212 78.5084C80.2696 78.5084 80.2696 78.5589 80.3181 78.5589C80.415 78.4579 80.4635 78.3568 80.5604 78.2558C80.7542 78.0032 80.948 77.7506 81.1902 77.5485C81.9655 76.8917 82.6438 76.8917 83.2253 77.5485ZM88.7005 77.7506C89.9603 79.5693 90.2025 81.4891 89.5727 83.611C89.8149 83.2574 89.9603 82.8027 90.2026 82.4995C90.5902 81.9943 90.5417 81.3376 90.5902 80.7818C90.6386 80.4787 90.6386 80.125 90.4933 79.8724C90.1541 78.9631 89.5727 78.2558 88.7005 77.7506Z" fill="#333161"/>
<path d="M57.545 77.6497C58.0295 77.5487 58.514 77.4477 58.9986 77.3466C59.1439 77.3466 59.2893 77.2961 59.3862 77.3466C59.8707 77.4477 60.3553 77.4982 60.8883 77.4477C61.2274 77.3971 61.615 77.6497 61.9058 77.8518C62.4388 78.2055 62.9233 78.6096 63.3594 79.0138C63.6985 79.3169 64.0862 79.6706 64.3284 80.0748C64.9099 80.8831 65.5398 81.6914 65.5398 82.8534C65.5398 83.2071 65.5882 83.6112 65.6367 83.9649C65.7336 84.6722 65.4913 85.2784 65.3459 85.9352C65.2975 86.2383 65.0552 86.5414 64.9099 86.8446C64.6676 87.1982 64.4738 87.6024 64.1831 87.855C63.7954 88.2086 63.3109 88.5118 62.8748 88.8149C62.1965 89.2696 61.3728 89.3201 60.5975 89.3706C60.0645 89.4211 59.4347 89.4211 58.9501 89.2696C58.3687 89.0675 57.7872 88.7644 57.3511 88.3602C57.012 88.0571 56.6728 88.0066 56.3336 88.0066C55.1708 88.1076 54.444 87.5013 53.911 86.4909C53.4264 85.5815 53.0388 84.5711 53.0388 83.5102C53.0388 82.8534 52.9419 82.1966 53.0388 81.5399C53.1357 80.9336 53.4264 80.3274 53.6687 79.7716C53.9594 79.0138 54.444 78.4076 55.1223 77.9529C55.3646 77.8013 55.5099 77.5487 55.7522 77.3971C56.1883 77.094 56.6244 76.9425 57.1574 76.993C57.6903 77.0435 57.7872 77.1951 57.545 77.6497C57.2543 77.7508 56.9151 77.8518 56.6728 78.0034C56.1883 78.357 55.7522 78.7612 55.3646 79.2159C54.9285 79.7211 54.5409 80.2768 54.3955 81.0347C54.2017 82.1966 54.1532 83.3586 54.3955 84.5206C54.6862 85.8847 55.413 86.8951 56.4306 87.7034C56.479 87.7034 56.5275 87.7034 56.5275 87.7034C56.3337 87.3498 56.1398 86.9456 55.946 86.592C55.5099 85.7836 54.977 84.9753 54.8316 84.0154C54.7347 83.5607 54.6378 83.106 54.5893 82.6513C54.5409 81.6914 54.7347 80.7821 55.1708 79.9737C55.5584 79.2664 56.0914 78.7107 56.6728 78.2055C56.9635 78.0034 57.2543 77.8518 57.545 77.6497ZM61.8089 79.7211C61.7604 79.6706 61.712 79.6201 61.6635 79.5695C61.3728 79.418 61.0821 79.2159 60.7913 79.0643C60.6944 79.0138 60.5975 79.0138 60.5006 79.0138C59.8223 78.9128 59.1924 79.1149 58.611 79.418C57.5934 79.8727 56.9151 80.7315 56.5275 81.6914C56.1883 82.6008 56.0914 83.6618 56.6244 84.6217C56.6728 84.7227 56.7213 84.8237 56.7213 84.9248C56.9635 85.7331 57.545 86.2888 58.1264 86.7941C58.7563 87.3498 59.5316 87.7034 60.4037 87.4003C60.8883 87.2487 61.3728 87.0467 61.8089 86.7435C62.3418 86.3394 62.681 85.7836 62.9717 85.1269C63.1656 84.6722 63.1171 84.2175 63.214 83.7628C63.4078 83.005 63.0202 82.4492 62.5841 81.8935C62.0996 81.2873 61.5666 80.7315 61.0821 80.1253C60.9851 80.0242 60.9367 79.8221 60.8398 79.519C61.2759 79.6201 61.5181 79.6706 61.8089 79.7211Z" fill="#333161"/>
<path d="M153.337 48.549C152.901 48.7006 152.513 48.8522 152.077 49.0037C151.205 49.3068 150.381 49.6605 149.509 49.8121C148.395 50.0647 147.28 50.2162 146.117 50.3678C145.633 50.4688 145.148 50.5699 144.664 50.6709C143.889 50.8225 143.113 50.9235 142.338 51.0246C141.418 51.1761 140.497 51.3782 139.576 51.5298C138.413 51.7319 137.202 51.8834 136.039 52.0855C135.506 52.1865 134.973 52.2876 134.44 52.3886C134.053 52.4391 133.617 52.4897 133.229 52.5402C132.647 52.6412 132.018 52.7928 131.436 52.8938C131.194 52.9444 130.952 52.9444 130.758 52.9949C130.031 53.0959 129.256 53.197 128.529 53.298C128.384 53.298 128.287 53.3485 128.141 53.3485C127.802 53.399 127.511 53.4496 127.172 53.5001C126.882 53.5506 126.591 53.6011 126.349 53.6516C126.058 53.7022 125.816 53.7527 125.525 53.8032C125.137 53.8537 124.798 53.9043 124.41 53.9043C123.587 53.9548 122.715 54.0053 121.891 54.0558C121.697 54.0558 121.503 54.0558 121.309 54.0558C120.922 54.0558 120.728 53.8537 120.728 53.5506C120.728 53.2475 120.97 53.0454 121.358 52.9949C122.521 52.8938 123.635 52.7928 124.798 52.6412C124.992 52.6412 125.137 52.5402 125.283 52.4897C125.573 52.4391 125.912 52.3886 126.203 52.3381C126.445 52.2876 126.688 52.2371 126.93 52.1865C127.705 52.035 128.529 51.8834 129.304 51.7318C129.837 51.6308 130.322 51.5298 130.806 51.3782C130.952 51.3277 131.145 51.3277 131.339 51.2772C131.533 51.2266 131.727 51.2266 131.921 51.1761C132.018 51.1761 132.066 51.1256 132.115 51.1256C132.551 51.0751 132.987 51.0751 133.423 50.974C133.762 50.9235 134.101 50.8225 134.489 50.772C135.312 50.6204 136.185 50.5193 137.008 50.3678C137.977 50.2162 138.898 50.0647 139.867 49.8626C140.933 49.711 141.951 49.5089 143.016 49.3574C143.937 49.2058 144.858 49.1553 145.73 49.0542C146.166 49.0037 146.65 48.8522 147.087 48.8016C147.523 48.7511 148.007 48.7511 148.443 48.6501C148.685 48.5995 148.928 48.4985 149.17 48.4985C150.139 48.448 151.108 48.4985 152.077 48.448C152.465 48.448 152.853 48.3975 153.192 48.3975C153.337 48.4985 153.337 48.4985 153.337 48.549Z" fill="#333161"/>
<path d="M36.7584 47.2873C36.5646 47.1863 36.3223 47.1357 36.1285 46.9842C35.644 46.58 35.2079 46.1253 34.7718 45.6706C34.4811 45.3675 34.1419 45.0139 33.8512 44.6602C33.512 44.256 33.2213 43.8519 32.9306 43.3972C32.4461 42.6899 31.9616 42.0331 31.477 41.3258C31.1863 40.9217 30.944 40.5175 30.6533 40.1133C30.4595 39.8607 30.3142 39.6081 30.1203 39.3555C29.975 39.1534 29.9265 38.9008 29.8296 38.6987C29.7812 38.5977 29.6843 38.4461 29.6358 38.3451C29.2966 37.8399 28.9574 37.3347 28.6183 36.8294C28.4245 36.5263 28.2306 36.2737 28.0368 35.9706C27.5523 35.2128 27.0678 34.455 26.5832 33.6971C26.2441 33.1414 25.9049 32.5857 25.5657 32.03C25.0327 31.1206 24.4513 30.2617 23.9668 29.3523C23.5307 28.544 23.0946 27.7357 22.707 26.9273C22.3193 26.1695 21.8833 25.4622 21.5441 24.7044C21.108 23.7445 20.7204 22.7341 20.2843 21.7237C20.2359 21.6226 20.2359 21.5216 20.2359 21.4711C20.2843 21.3195 20.3328 21.0669 20.4781 21.0164C20.575 20.9658 20.8658 21.0669 20.9627 21.1679C21.2534 21.5721 21.4472 22.0268 21.6895 22.4815C22.0771 23.2393 22.4647 23.9466 22.9008 24.7044C23.4822 25.7148 24.0637 26.7252 24.6451 27.7357C24.8874 28.1398 25.1781 28.544 25.4204 28.9482C26.0018 29.8575 26.5348 30.7669 27.1162 31.6258C27.7461 32.5857 28.4245 33.4951 29.0544 34.455C29.7327 35.4654 30.3142 36.5263 30.9925 37.5367C31.1379 37.7894 31.3801 37.9409 31.5739 38.143C31.8162 38.4966 32.01 38.8503 32.2523 39.2039C32.8822 40.2144 33.5121 41.2248 34.142 42.2857C34.6749 43.1446 35.2079 44.0034 35.7409 44.8118C36.0801 45.317 36.3708 45.8222 36.6615 46.3274C36.8069 46.58 36.8553 46.8326 36.9522 47.0852C36.8069 47.2368 36.7584 47.2368 36.7584 47.2873Z" fill="#333161"/>
<path d="M77.217 37.2833C75.9088 37.2833 74.9882 35.7172 75.4727 34.5047C75.5212 34.3026 75.5696 34.151 75.6181 33.9489C75.715 33.4942 75.8604 33.0901 76.1995 32.7364C76.4903 32.4333 76.6841 32.0291 76.8779 31.625C77.314 30.8166 77.7985 30.0588 78.1377 29.2505C78.3315 28.7958 78.3315 28.24 78.3315 27.7348C78.283 26.6739 78.2346 26.6234 77.1686 26.7244C76.4903 26.7749 75.9573 27.0781 75.3274 27.2801C75.2305 27.2801 75.182 27.3812 75.1336 27.4317C74.8428 27.9369 74.4552 28.2906 74.2614 28.8968C74.116 29.301 73.7769 29.7052 73.4862 30.0588C73.147 30.4125 72.5171 30.0588 72.4686 29.5536C72.4686 28.5937 72.8078 27.7348 73.3893 27.0275C73.7284 26.6234 74.213 26.2697 74.6006 25.9161C74.8428 25.6635 75.0367 25.3603 75.3274 25.2088C75.8604 24.8046 76.4903 24.552 77.1686 24.6025C77.3624 24.6025 77.5078 24.552 77.7016 24.6025C78.1861 24.6531 78.5737 24.8551 78.8645 25.2088C79.2036 25.613 79.5913 25.9666 79.8335 26.3708C80.0758 26.7749 80.2212 27.2801 80.2696 27.7348C80.3181 28.1895 80.2212 28.6947 80.1727 29.1999C80.1243 29.402 80.0273 29.5536 79.9304 29.7052C79.882 29.8062 79.7851 29.9072 79.7851 30.0083C79.5428 30.9682 79.0583 31.827 78.4768 32.6354C78.1377 33.0901 77.9439 33.5953 77.6531 34.1005C77.6047 34.2015 77.5562 34.3026 77.5078 34.3531C77.0717 34.9593 77.0717 35.5151 77.4593 36.1719C77.6047 36.4245 77.75 36.6265 77.8954 36.8791C78.0408 37.0812 77.9439 37.2328 77.75 37.2833C77.5562 37.2833 77.3624 37.2328 77.217 37.2833Z" fill="#FF6D22"/>
<path d="M11.0783 34.4033C11.1752 34.4538 11.3206 34.5044 11.466 34.6054C12.0959 35.1106 12.7257 35.6158 13.3556 36.0705C13.6948 36.3231 13.9855 36.5252 14.3247 36.7778C14.7608 37.1315 15.1484 37.4851 15.536 37.7882C16.0206 38.1419 16.5051 38.4955 16.9896 38.8492C17.6195 39.3544 18.201 39.8596 18.8308 40.3648C19.2185 40.6679 19.5577 40.9711 19.9453 41.2742C20.1876 41.4763 20.4298 41.7289 20.6721 41.931C20.769 42.032 20.8659 42.0825 20.9628 42.1836C21.4473 42.5877 21.9803 43.0424 22.4648 43.4466C22.6102 43.5476 22.7556 43.6992 22.9009 43.8002C23.4339 44.356 24.0154 44.9117 24.4999 45.4674C25.3236 46.3768 26.1473 47.2862 26.9225 48.2461C27.3102 48.7008 27.6493 49.2565 28.037 49.7112C28.8122 50.5195 29.2968 51.53 29.9267 52.4393C30.072 52.6919 30.1689 52.9951 30.2658 53.2477C30.2658 53.2982 30.2658 53.4498 30.2174 53.5003C30.1689 53.5508 30.0235 53.5003 29.9751 53.4498C29.2967 52.793 28.6184 52.1867 27.9885 51.53C27.5524 51.1258 27.1648 50.6711 26.7772 50.2164C26.0504 49.4081 25.372 48.5997 24.6452 47.7409C24.4514 47.5388 24.2576 47.3367 24.0154 47.1851C23.9669 47.1346 23.87 47.0841 23.8216 47.0336C23.0948 46.2758 22.368 45.5179 21.6412 44.7601C21.3504 44.5075 21.0597 44.2549 20.769 44.0023C20.6236 43.8508 20.4783 43.6487 20.3329 43.4971C19.6546 42.8403 18.9278 42.2341 18.201 41.5773C17.6195 41.0721 16.9896 40.6679 16.4082 40.1627C15.9721 39.8091 15.633 39.4049 15.2453 39.0513C15.1484 38.9502 15.0031 38.8492 14.9061 38.7481C14.2278 38.1924 13.5494 37.6367 12.8711 37.0304C12.2412 36.4747 11.6598 35.919 11.0783 35.3632C10.933 35.2117 10.7876 35.0601 10.6907 34.858C10.5453 34.7064 10.7392 34.4033 11.0783 34.4033Z" fill="#333161"/>
<path d="M153.822 56.6836C153.822 56.7846 153.822 56.7846 153.822 56.7846C152.804 57.2898 151.98 58.1487 150.818 58.5529C149.945 58.856 149.073 59.1086 148.249 59.4117C147.474 59.6643 146.651 59.7654 145.875 59.9675C144.955 60.1695 144.034 60.4221 143.113 60.5737C142.338 60.7253 141.514 60.8263 140.691 60.9274C140.594 60.9274 140.497 60.9274 140.4 60.9779C139.77 61.1294 139.189 61.3315 138.559 61.4831C138.123 61.5841 137.687 61.6347 137.299 61.6852C137.008 61.7357 136.718 61.7862 136.427 61.8367C135.991 61.9378 135.555 61.9883 135.167 62.0893C134.537 62.1904 133.859 62.2914 133.229 62.3925C133.181 62.3925 133.132 62.3925 133.084 62.3925C132.308 62.5946 131.485 62.7966 130.709 62.9482C130.322 62.9987 129.934 62.9482 129.498 62.9482C129.207 62.8977 129.062 62.6956 129.014 62.3925C128.965 62.0893 129.11 61.8367 129.401 61.7862C130.08 61.6347 130.709 61.4831 131.388 61.3315C132.018 61.18 132.696 61.0789 133.374 60.9274C133.907 60.8263 134.44 60.7758 134.973 60.6242C136.039 60.4222 137.057 60.1695 138.123 59.9169C138.462 59.8159 138.85 59.8159 139.237 59.7654C140.255 59.5633 141.224 59.4117 142.241 59.1591C142.823 59.0581 143.404 58.856 143.986 58.755C144.567 58.6539 145.197 58.5529 145.778 58.4518C146.747 58.2497 147.716 58.0982 148.686 57.8961C149.752 57.6435 150.866 57.3909 151.932 57.1383C152.029 57.1383 152.077 57.0878 152.174 57.0878C152.659 57.1383 153.24 57.0372 153.822 56.6836Z" fill="#333161"/>
<path d="M138.898 42.8404C138.123 43.1941 137.396 43.7498 136.475 43.8508C136.039 43.9013 135.555 44.1034 135.119 44.2045C134.682 44.3055 134.246 44.4066 133.81 44.5076C132.599 44.8613 131.339 45.1644 130.128 45.518C129.256 45.7706 128.384 46.0232 127.463 46.3264C127.172 46.4274 126.882 46.579 126.591 46.68C125.816 46.9831 125.089 47.2357 124.313 47.5389C123.635 47.7915 123.005 48.0946 122.375 48.3977C121.212 48.9535 120.05 49.5597 118.838 50.1154C118.548 50.267 118.305 50.2165 118.111 49.9134C117.966 49.6607 118.015 49.3576 118.305 49.105C119.323 48.2967 120.389 47.5894 121.6 47.0337C122.472 46.6295 123.393 46.2253 124.265 45.8212C124.362 45.7706 124.459 45.7706 124.556 45.7201C125.186 45.518 125.767 45.2654 126.397 45.0633C127.366 44.7602 128.335 44.4571 129.353 44.2045C130.128 44.0024 130.952 43.7498 131.727 43.5982C132.405 43.4467 133.084 43.2951 133.762 43.1435C134.343 42.992 134.973 42.8909 135.555 42.7394C136.718 42.5373 137.784 42.4868 138.898 42.8404Z" fill="#333161"/>
<path d="M17.8133 60.5232C16.3113 60.6243 14.9061 60.1696 13.5494 59.5128C12.0958 58.8055 10.5938 58.0477 9.14018 57.3404C8.17112 56.8352 7.20205 56.3805 6.23299 55.8753C5.55464 55.5216 4.87631 55.168 4.24642 54.7638C3.71343 54.4607 3.18045 54.1576 2.64747 53.8039C2.30829 53.6018 2.06601 53.2987 1.72684 53.0461C1.33922 52.6925 0.95159 52.3388 0.515511 51.9852C0.418604 51.8841 0.273245 51.7831 0.273245 51.6315C0.224791 51.4294 0.224809 51.1768 0.321716 51.0758C0.418622 50.9242 0.70933 50.8737 0.85469 50.9242C1.14541 51.0253 1.38768 51.2273 1.6784 51.4294C2.4052 51.8841 3.08353 52.3893 3.81033 52.7935C4.44022 53.1471 5.07012 53.5008 5.70001 53.8039C6.13609 54.0565 6.62062 54.2586 7.0567 54.4607C7.68659 54.7638 8.26803 55.0669 8.89792 55.3701C9.67317 55.7742 10.4969 56.1784 11.2721 56.5826C11.7567 56.8352 12.2412 57.0878 12.7257 57.3404C14.1309 58.0477 15.536 58.7045 16.9412 59.4118C17.2803 59.5633 17.6195 59.7654 17.9102 59.9675C18.0071 60.018 18.104 60.2201 18.0556 60.3211C18.0071 60.4222 17.8618 60.5232 17.7649 60.6243C17.8133 60.5737 17.8133 60.5232 17.8133 60.5232Z" fill="#333161"/>
<path d="M16.1659 54.4609C16.1659 54.4104 16.1659 54.3598 16.1175 54.3598C15.536 54.0567 14.9061 53.7536 14.3247 53.501C13.7917 53.2484 13.3072 53.0968 12.7742 52.8442C12.2412 52.6421 11.7082 52.3895 11.1752 52.1369C10.8845 51.9854 10.5938 51.8338 10.2546 51.6822C9.43092 51.2781 8.60721 50.8234 7.73505 50.4192C7.05671 50.0656 6.37835 49.7624 5.74845 49.4088C4.39176 48.651 3.08353 47.8931 1.72684 47.1353C1.62993 47.0848 1.48457 46.9838 1.38766 46.8827C1.19385 46.7312 1.09695 46.5291 1.24231 46.327C1.38767 46.0744 1.5815 46.0744 1.77531 46.1754C2.16294 46.3775 2.59902 46.5796 2.98664 46.7817C3.71344 47.1353 4.44024 47.5395 5.16704 47.8931C5.94229 48.2468 6.71754 48.651 7.49279 49.0046C8.07423 49.2572 8.65565 49.4593 9.23709 49.7119C9.77008 49.9645 10.3031 50.2171 10.836 50.4192C11.2237 50.6213 11.6113 50.7728 12.0474 50.9749C12.6773 51.2781 13.3072 51.5307 13.9371 51.8338C14.5185 52.0864 15.0515 52.3895 15.6329 52.6421C16.0206 52.7937 16.4082 52.8947 16.7958 53.0968C17.3773 53.3999 17.9587 53.7536 18.4917 54.1072C18.637 54.1578 18.7339 54.3093 18.8308 54.4104C19.0246 54.663 19.1216 54.9661 18.8793 55.2187C18.637 55.4713 18.3948 55.5723 18.0556 55.4208C17.3772 54.9661 16.7473 54.7135 16.1659 54.4609Z" fill="#333161"/>
<path d="M64.7645 26.8251C64.7645 27.5324 64.716 28.1892 64.716 28.8965C64.716 29.5027 64.8129 30.109 64.8614 30.7658C64.8614 30.8163 64.8614 30.8163 64.8614 30.8668C65.2006 31.5236 65.0552 32.3319 65.249 33.0392C65.249 33.1403 65.2975 33.2413 65.2975 33.2918C65.3459 34.3022 65.3459 35.2621 65.3944 36.2726C65.3944 36.4241 65.4428 36.5757 65.4913 36.6767C65.6367 37.1819 65.4428 37.6366 65.1037 37.9398C64.9583 38.0913 64.6676 38.1418 64.4738 38.0913C64.0861 38.0408 63.6985 37.4346 63.6501 37.0304C63.6016 36.1715 63.6016 35.3632 63.5532 34.5043C63.4563 33.696 63.3109 32.9382 63.214 32.1298C63.214 31.9783 63.1655 31.8267 63.1655 31.6752C63.3109 31.0689 63.0686 30.5637 62.9717 30.008C62.8264 29.1491 62.7294 28.2397 62.9233 27.3809C63.0202 26.9262 63.1655 26.4715 63.3109 26.0168C63.4078 25.6632 63.6501 25.4611 64.0377 25.5116C64.3769 25.5621 64.5222 25.8147 64.5707 26.1684C64.6676 26.3199 64.7161 26.5725 64.7645 26.8251Z" fill="#FF6D22"/>
<path d="M129.353 35.1613C128.287 35.8181 127.172 36.5254 126.106 37.1822C124.847 37.94 123.635 38.6473 122.327 39.3546C121.649 39.7082 120.922 40.0114 120.244 40.4155C119.614 40.7692 119.032 41.1228 118.402 41.4765C117.627 41.8806 116.852 42.2343 116.125 42.5879C115.495 42.891 114.914 43.2447 114.284 43.5478C113.46 43.952 112.636 44.3562 111.764 44.7603C111.473 44.9119 111.183 45.0129 110.892 45.114C110.747 45.1645 110.601 45.0635 110.456 45.0129C110.504 44.8614 110.553 44.6593 110.65 44.6088C111.328 44.1036 112.055 43.5478 112.782 43.0931C113.654 42.5879 114.623 42.1838 115.495 41.6785C116.222 41.2744 116.9 40.8197 117.627 40.466C118.257 40.1629 118.887 39.8598 119.468 39.5567C120.05 39.2535 120.631 38.8999 121.213 38.5462C122.036 38.0915 122.86 37.6874 123.684 37.2832C124.943 36.677 126.252 36.1212 127.56 35.5655C128.093 35.3634 128.674 35.2118 129.256 35.0098C129.304 35.0603 129.353 35.1108 129.353 35.1613Z" fill="#333161"/>
<path d="M70.8212 86.2891C71.4996 86.2891 72.081 86.2891 72.614 86.3396C73.05 86.3396 73.4861 86.3901 73.8738 86.4406C74.3098 86.5417 74.5036 87.1479 74.1645 87.5016C74.0191 87.6531 73.8253 87.7542 73.6315 87.8047C72.8078 88.0068 71.9841 88.2594 71.1119 88.3099C70.6274 88.3099 70.046 88.1078 69.6099 87.8047C69.1254 87.5016 69.2222 86.8953 69.7068 86.6427C70.0944 86.4406 70.5305 86.3901 70.8212 86.2891Z" fill="#333161"/>
<path d="M66.1697 44.5586C65.9759 44.9123 65.8305 45.2659 65.5882 45.5185C65.2975 45.8722 64.7645 45.7711 64.4738 45.4175C63.9408 44.7102 63.6017 43.9018 63.6501 42.9925C63.6501 42.5883 63.9408 42.2347 64.3285 42.1336C64.7646 42.0326 65.3944 42.2852 65.5398 42.6893C65.8305 43.2956 65.9759 43.9018 66.1697 44.5586Z" fill="#FF6D22"/>
<path d="M77.2654 43.6485C76.3932 43.598 76.0056 43.0928 76.1994 42.1834C76.2478 42.0824 76.2478 41.9308 76.2478 41.8298C76.1509 41.274 76.4417 40.9204 76.8293 40.6173C77.3138 40.2636 77.9922 40.6173 78.186 41.3245C78.3798 41.9813 78.2344 42.6381 78.0891 43.2443C77.9922 43.598 77.6045 43.699 77.2654 43.6485Z" fill="#FF6D22"/>
<path d="M75.618 118.925C74.7943 119.279 74.0191 119.532 73.1469 119.279C72.4686 119.077 71.7903 118.976 71.3057 118.42C71.0635 118.117 70.8212 117.763 70.5789 117.41C70.4336 117.157 70.5305 116.652 70.7727 116.551C71.0634 116.399 71.3057 116.601 71.4511 116.804C72.1779 117.763 73.1469 118.218 74.2129 118.471C74.6005 118.572 74.9882 118.673 75.4242 118.723C75.4242 118.774 75.4727 118.824 75.618 118.925Z" fill="#333161"/>
</svg>
