<svg width="98" height="77" viewBox="0 0 98 77" fill="none" xmlns="http://www.w3.org/2000/svg">
<path d="M37.299 13.3468C37.299 13.3468 32.599 3.59626 30.6609 2.0301C28.7227 0.463952 29.4495 1.57541 27.2207 5.31397C24.9918 9.05253 23.4413 16.2265 23.4413 16.2265C23.4413 16.2265 14.1383 19.5609 12.394 23.7036C10.6497 27.8463 6.09508 35.9802 6.96724 44.5688C7.8394 53.1574 12.1517 64.0194 19.9527 69.6778C27.7537 75.3361 37.1052 77.1549 49.4607 75.9929C61.8163 74.8309 73.1059 71.2439 78.0966 67.859C83.0873 64.4741 88.1264 52.1975 88.2233 47.0443C88.3203 41.8912 86.5759 30.3219 84.3955 27.3917C82.2151 24.4614 78.242 21.6323 76.2069 19.6619C74.1719 17.6916 70.974 14.913 67.9214 14.9635C67.9214 14.9635 66.7585 6.37491 65.0627 4.9098C63.3184 3.44469 62.2524 1.42385 61.6225 1.87854C60.9926 2.33323 52.804 13.4984 52.804 13.4984L37.299 13.3468Z" fill="#FFF9DF"/>
<path d="M86.6728 44.417C85.5099 44.518 84.4439 44.619 83.378 44.7201C82.845 44.7706 82.4089 44.5685 82.3604 44.2149C82.312 43.8612 82.6027 43.5076 83.1357 43.4065C84.0563 43.2045 84.9769 43.0529 85.8975 42.8508C85.9944 42.8508 86.1398 42.8003 86.2367 42.8003C86.8181 42.8003 86.7697 42.8003 86.7697 42.194C86.7212 41.2847 86.7212 40.3248 86.6728 39.4154C86.6243 38.8091 86.5274 38.1524 86.479 37.5461C86.3821 36.9399 86.3336 36.2831 86.2367 35.6768C86.2367 35.5758 86.1883 35.4242 86.1398 35.3232C85.9944 34.818 85.8491 34.3128 85.6553 33.757C85.5099 33.2518 85.2676 32.7971 85.1223 32.2919C84.9285 31.5846 84.5893 30.8773 84.2986 30.17C83.9109 29.1596 83.4749 28.0987 83.0388 27.0883C82.7481 26.4315 82.3604 25.7747 81.9728 25.1685C81.5367 24.5117 81.0038 23.9559 80.5192 23.3497C80.18 22.9455 79.9378 22.4403 79.5502 22.0867C79.0172 21.5815 78.3873 21.1773 77.8058 20.7226C77.2729 20.3184 76.7883 19.8637 76.3038 19.4596C75.7708 19.0554 75.1409 18.7018 74.5595 18.2976C74.2203 18.045 73.8327 17.8429 73.4935 17.5903C72.3791 16.8325 71.2646 16.1757 70.0049 15.721C69.6172 15.5695 69.1812 15.62 68.7935 15.6705C68.5028 15.6705 68.2121 15.6705 68.1152 15.3168C68.0183 15.0642 68.2121 14.7611 68.5997 14.6095C69.7141 14.1549 70.7317 14.458 71.7492 14.9632C72.5729 15.3674 73.3966 15.8221 74.1719 16.3273C74.7048 16.6304 75.1894 16.9335 75.6739 17.2872C76.7399 17.9945 77.8543 18.7018 78.8234 19.4596C79.5986 20.0658 80.2285 20.8236 80.9553 21.4299C81.5367 21.8846 82.0697 22.3898 82.5058 23.0466C82.9419 23.7033 83.3295 24.3096 83.7171 24.9664C84.1532 25.7242 84.5893 26.482 84.9769 27.2398C85.413 28.0987 85.7522 28.9575 86.0913 29.8164C86.1398 29.9679 86.1398 30.1195 86.1883 30.2711C86.2367 30.3721 86.2367 30.5237 86.2852 30.5742C86.7212 31.1805 86.9635 31.9383 87.1573 32.6456C87.3027 33.1003 87.3996 33.5549 87.5449 33.9591C87.5449 34.0096 87.5934 34.0602 87.5934 34.1612C87.7872 35.0706 88.0295 36.0305 88.1748 36.9399C88.3202 38.0513 88.4171 39.2133 88.4656 40.3248C88.4656 40.931 88.3687 41.5373 88.3202 42.194C88.7078 42.194 89.047 42.194 89.3377 42.1435C89.8223 42.0425 90.3068 41.8909 90.8398 41.7899C91.2759 41.7393 91.7119 41.7393 92.148 41.6888C92.2449 41.6888 92.3418 41.6888 92.4387 41.6383C93.1171 41.2847 93.8439 41.3352 94.5707 41.2847C95.0552 41.2341 95.4913 41.1331 95.9758 41.1331C96.4603 41.1331 96.9933 41.1331 97.381 41.5373C97.5748 41.7393 97.6232 41.992 97.381 42.093C97.0418 42.2951 96.7026 42.4466 96.315 42.5477C95.5397 42.6992 94.7645 42.8508 93.9892 42.9519C93.3109 43.0529 92.5841 43.0024 91.9542 43.2045C91.1305 43.4571 90.2583 43.4065 89.4346 43.5581C89.0954 43.6086 88.7563 43.7602 88.3687 43.8612C88.3687 44.4675 88.3687 45.0737 88.3687 45.7305C88.3687 46.0842 88.2717 46.3873 88.2233 46.7409C88.1264 47.2967 88.0295 47.8524 87.9326 48.4081C87.8357 49.1659 87.8357 49.9238 87.7872 50.6816C87.7872 50.7826 87.7388 50.9342 87.6903 51.0352C87.4965 51.3383 87.6419 51.4899 87.9326 51.591C88.4171 51.692 88.9016 51.793 89.3862 51.9446C89.4831 51.9446 89.58 51.9951 89.6284 51.9951C90.6944 52.3488 91.7604 52.6519 92.8263 53.0055C93.0686 53.1066 93.2624 53.2076 93.5047 53.3087C94.1346 53.6118 94.8129 53.8644 95.3944 54.1675C95.9274 54.4201 96.4119 54.7233 96.7995 55.2285C96.5088 55.6326 96.0727 55.5316 95.7335 55.5316C95.1521 55.4811 94.6191 55.279 94.0377 55.1274C93.5047 55.0264 92.9717 54.9253 92.4872 54.7738C91.615 54.4706 90.7429 54.117 89.8707 53.8139C89.1439 53.5613 88.4171 53.3592 87.6419 53.1571C87.545 53.1571 87.448 53.1571 87.3511 53.1571C87.2542 53.7128 87.1573 54.218 87.0604 54.7233C86.9635 55.1779 86.8182 55.6326 86.6728 56.0368C86.6243 56.2389 86.5274 56.4915 86.479 56.6936C86.3821 57.0472 86.2852 57.4009 86.1398 57.704C85.7037 58.6639 85.3161 59.5733 84.8316 60.4826C84.6377 60.8868 84.2986 61.2405 84.0563 61.6446C83.7656 62.0488 83.5233 62.554 83.2326 62.9582C82.8934 63.4634 82.4574 63.8676 82.0697 64.3223C81.779 64.6759 81.4883 65.0295 81.1976 65.3327C80.8584 65.7368 80.4708 66.0905 80.1316 66.4441C79.8893 66.6967 79.6471 66.9493 79.4048 67.2019C79.0656 67.5556 78.678 67.9092 78.2904 68.2124C77.6605 68.7176 77.2244 69.4754 76.3522 69.627C76.3038 69.627 76.2553 69.6775 76.2069 69.728C75.4801 70.6374 74.3657 70.9405 73.3966 71.3952C72.6698 71.7488 71.943 72.153 71.2162 72.5572C70.6832 72.8098 70.1987 73.1129 69.6657 73.3655C69.1812 73.5676 68.6482 73.7697 68.1152 73.9718C67.9698 74.0223 67.8245 74.0223 67.6307 74.0728C67.0977 74.2244 66.5647 74.3759 66.0802 74.5275C65.7894 74.6285 65.4987 74.7801 65.208 74.8306C64.4812 74.9822 63.7059 75.1843 62.9307 75.2853C62.5915 75.3358 62.3008 75.3358 61.9616 75.3864C61.574 75.4369 61.1864 75.5379 60.7503 75.639C60.4596 75.6895 60.1688 75.74 59.9266 75.7905C59.4905 75.841 59.0544 75.8916 58.6183 75.9926C58.4245 76.0431 58.1823 76.0431 57.9885 76.0431C57.5524 76.0431 57.1163 75.9926 56.6318 76.0431C55.7112 76.0937 54.839 76.1442 53.9184 76.1947C53.3369 76.1947 52.7555 76.1442 52.1741 76.1442C52.0772 76.1442 51.9318 76.1947 51.8349 76.1947C51.5442 76.2452 51.2535 76.2452 51.0112 76.2957C50.7205 76.3463 50.4297 76.3463 50.139 76.3968C49.8968 76.3968 49.703 76.4473 49.4607 76.4473C49.17 76.4473 48.8792 76.3968 48.5885 76.4473C47.6195 76.4978 46.6504 76.5989 45.6813 76.6494C45.0999 76.6999 44.5185 76.7504 43.937 76.7504C43.3556 76.7504 42.8226 76.7504 42.2411 76.6999C42.0958 76.6999 41.9504 76.6999 41.8051 76.6999C41.2236 76.6494 40.6422 76.5989 40.0607 76.5483C39.9638 76.5483 39.9154 76.4978 39.8185 76.4978C39.1401 76.4473 38.4133 76.3968 37.735 76.2957C37.2989 76.2452 36.8628 75.9926 36.3783 75.841C36.0391 76.1947 35.5546 76.1442 35.0216 76.1947C33.6649 76.2452 32.3567 75.9421 31.0485 75.5884C29.5949 75.1843 28.1413 74.6285 26.7846 73.9718C25.864 73.5171 25.0402 73.0624 24.1681 72.5572C23.3928 72.1025 22.6176 71.6983 21.8908 71.1931C20.9702 70.5363 20.0496 69.829 19.1289 69.1217C18.1114 68.3134 17.1424 67.404 16.1733 66.5452C15.6888 66.0905 15.2042 65.5348 14.7682 64.979C13.9929 64.0191 13.1692 63.0592 12.4424 62.0993C12.0548 61.5941 11.8125 60.9879 11.4733 60.4321C11.3764 60.2806 11.2795 60.1795 11.2311 60.028C10.8434 59.2196 10.4558 58.4113 10.0682 57.6535C10.0197 57.5524 9.97128 57.4514 9.87438 57.2998C9.48675 57.5524 9.19603 57.8556 8.85686 58.0576C8.32387 58.3608 7.79089 58.6639 7.2579 58.967C6.82182 59.2196 6.33729 59.1691 5.85276 59.0681C5.51359 58.967 5.46513 58.8155 5.7074 58.5628C5.99812 58.3102 6.38574 58.0576 6.72492 57.8556C6.77337 57.805 6.82182 57.805 6.87028 57.7545C7.64553 57.1988 8.42078 56.643 9.14758 56.0368C9.19603 55.9863 9.29294 55.8347 9.29294 55.7842C8.90531 54.5212 8.46923 53.3087 8.13006 52.0456C7.8878 51.1868 7.74244 50.3279 7.59708 49.4691C7.54862 49.267 7.45171 49.1659 7.2579 49.1659C6.91873 49.2165 6.57956 49.267 6.24038 49.2165C5.17441 49.1659 4.05999 49.2165 2.99402 49.0649C2.17031 48.9639 1.39506 48.6607 0.619807 48.3576C0.377541 48.2566 0.18373 47.9534 0.0383698 47.7008C-0.10699 47.3977 0.18373 47.0441 0.522902 47.0946C0.716715 47.1451 0.910528 47.1451 1.05589 47.2461C1.92805 47.9029 2.94556 47.7514 3.91463 47.9029C4.83524 48.004 5.75585 48.004 6.67646 48.004C6.91873 48.004 7.161 47.9534 7.40326 47.9029C7.35481 47.4987 7.30635 47.0946 7.2579 46.7409C7.20945 46.2862 7.11255 45.8316 7.06409 45.3769C7.06409 45.3263 7.06409 45.3263 7.06409 45.2758C6.96719 44.2654 6.87028 43.3055 6.82183 42.2951C6.77337 41.5373 6.87028 40.7794 6.87028 40.0216C6.91873 39.2133 6.96718 38.3544 7.01564 37.5461C7.06409 37.0409 7.161 36.4852 7.2579 35.9799C7.30635 35.5253 7.35481 35.1211 7.50017 34.6664C7.79089 33.656 8.08161 32.6961 8.37233 31.7362C8.42078 31.5846 8.42078 31.3825 8.46923 31.231C8.7115 30.6247 8.90531 30.069 9.14758 29.4627C9.4383 28.806 9.72902 28.0987 10.0197 27.4419C10.4558 26.583 10.9888 25.7242 11.4733 24.8653C11.7641 24.3601 12.0063 23.8044 12.3455 23.2992C12.7331 22.7434 13.2177 22.2382 13.6053 21.6825C14.2352 20.7731 15.0104 19.9143 15.931 19.308C16.8516 18.6512 17.7723 17.9945 18.8867 17.5398C20.0011 17.1356 21.0186 16.5294 22.0846 16.0241C22.4238 15.8726 22.7629 15.7715 23.0537 15.6705C23.1506 15.6705 23.3444 15.721 23.3928 15.8221C23.4413 15.9231 23.3444 16.1757 23.2475 16.2262C22.7629 16.5294 22.23 16.782 21.7454 17.0851C21.1155 17.4387 20.4856 17.7924 19.9042 18.146C19.032 18.6512 18.1114 19.207 17.2393 19.7122C17.0455 19.8132 16.8516 20.0153 16.7063 20.1669C16.1733 20.7226 15.6403 21.2278 15.1073 21.7835C14.6713 22.2382 14.2836 22.6929 13.896 23.1981C13.7991 23.3497 13.7022 23.5518 13.6053 23.7033C13.3146 24.158 13.0238 24.5622 12.7331 25.0169C12.3455 25.6737 11.9579 26.2799 11.6672 26.9367C11.1342 27.9976 10.6496 29.1091 10.1651 30.17C9.87438 30.8773 9.63211 31.6351 9.38985 32.3424C9.19603 32.9992 9.00222 33.656 8.85686 34.3128C8.7115 35.02 8.56614 35.7273 8.42078 36.4852C8.32387 36.9398 8.22697 37.344 8.17851 37.7987C8.08161 38.6576 8.03316 39.5164 8.03316 40.3248C7.9847 41.0321 7.9847 41.7899 7.9847 42.4972C7.9847 43.0529 8.08161 43.6086 8.13006 44.2149C8.13006 44.2654 8.17851 44.3159 8.17851 44.417C8.27542 45.3263 8.32387 46.2862 8.42078 47.1956C8.42078 47.3977 8.51769 47.6503 8.51769 47.8524C9.97129 47.6503 11.4249 47.4482 12.83 47.9029C12.83 47.9534 12.83 48.004 12.83 48.0545C11.4733 48.3576 10.1166 48.7113 8.7115 49.0144C9.14758 51.0352 9.53521 53.2076 10.4558 55.279C11.861 53.9654 13.5568 53.4097 15.1558 52.6014V52.6519C14.429 53.4097 13.6537 54.218 12.8785 54.9759C12.2486 55.5316 11.5702 56.0368 10.8919 56.6431C11.1826 57.2493 11.4733 57.9061 11.7641 58.5628C11.861 58.8155 12.0063 59.0681 12.1517 59.3207C12.3939 59.8259 12.6362 60.2806 12.9754 60.7353C13.5084 61.4931 14.0414 62.2004 14.5743 62.9582C15.0589 63.615 15.5434 64.2212 16.1248 64.7769C16.8032 65.4842 17.4815 66.141 18.2083 66.7978C18.8382 67.404 19.5166 67.9598 20.2434 68.465C21.0671 69.1217 21.9392 69.728 22.8599 70.2837C23.732 70.8395 24.6526 71.4457 25.5732 71.9509C26.2031 72.3046 26.8815 72.5572 27.5114 72.8098C28.3351 73.1634 29.1103 73.5171 29.934 73.7697C31.0969 74.1233 32.2598 74.4265 33.4227 74.7296C33.9072 74.8811 34.3917 74.9822 34.9247 75.0832C35.1185 75.1338 35.3123 75.0832 35.4577 75.0832C35.7969 75.1338 36.1845 75.1338 36.5237 75.2853C36.8144 75.3864 37.0082 75.3864 37.2989 75.2853C37.5896 75.1843 37.8804 75.2348 38.1711 75.1843C38.3649 75.1843 38.6072 75.1843 38.801 75.1843C38.8979 75.1843 38.9463 75.1338 39.0432 75.1338C40.0608 75.1843 41.0783 75.2348 42.0958 75.2853C42.6288 75.2853 43.1618 75.2348 43.6947 75.1843C44.0824 75.1843 44.47 75.1338 44.8576 75.1338C45.3906 75.0832 45.9236 75.0327 46.4566 74.9822C47.2803 74.9317 48.104 74.9317 48.9277 74.8811C49.0731 74.8811 49.17 74.7801 49.3153 74.7801C49.606 74.7296 49.8968 74.7296 50.1875 74.6791C50.4298 74.6791 50.672 74.6285 50.9143 74.578C51.205 74.578 51.4957 74.5275 51.8349 74.5275C52.0772 74.5275 52.3194 74.578 52.5617 74.477C53.4338 74.2244 54.306 74.3254 55.1782 74.3759C55.2751 74.3759 55.3235 74.3759 55.4204 74.3759C56.0019 74.3254 56.5833 74.3254 57.1163 74.2244C58.0369 74.0223 59.006 74.2244 59.9266 73.8707C60.1204 73.8202 60.3142 73.7697 60.508 73.7697C61.2348 73.8202 61.9132 73.6181 62.64 73.416C63.5121 73.1634 64.4327 72.9108 65.3049 72.7087C65.6925 72.6077 66.0802 72.6077 66.4193 72.5067C66.71 72.4056 67.0008 72.254 67.2915 72.153C67.5822 72.052 67.9214 71.9509 68.2121 71.8499C69.0358 71.5468 69.8595 71.2942 70.6348 70.991C71.1193 70.7889 71.5554 70.4353 72.0399 70.1322C72.476 69.8796 72.9121 69.627 73.3966 69.3743C73.8327 69.1217 74.2203 68.8691 74.6564 68.6165C74.7048 68.566 74.7533 68.5155 74.8017 68.5155C75.4316 68.4145 75.7224 67.8082 76.1584 67.4546C76.4976 67.2019 76.8368 66.9999 77.1275 66.7473C77.5636 66.3936 77.9512 65.9894 78.3388 65.5853C78.6295 65.2822 78.9203 65.0295 79.211 64.7264C79.6955 64.1707 80.2285 63.6655 80.6646 63.0592C81.1491 62.453 81.5852 61.8467 81.9728 61.1899C82.6512 60.129 83.378 59.1186 84.0079 58.0576C84.2501 57.6029 84.2986 57.0472 84.5408 56.5925C84.88 55.9358 84.9285 55.2285 85.1223 54.5212C85.2676 53.9654 85.413 53.4097 85.6068 52.854C85.6553 52.6519 85.6553 52.5003 85.413 52.3993C85.1707 52.2477 84.9769 51.9951 85.1223 51.7425C85.2192 51.5404 85.413 51.3383 85.6068 51.2373C85.8491 51.1363 85.946 51.0352 85.8975 50.7826C85.8491 50.6311 85.8491 50.4795 85.8975 50.3279C86.2367 49.368 86.2367 48.4081 86.3821 47.4482C86.479 46.9935 86.4305 46.4883 86.4305 45.9831C86.4305 45.8316 86.479 45.6295 86.479 45.4779C86.479 45.2758 86.5759 44.8716 86.6728 44.417Z" fill="#333161"/>
<path d="M52.804 13.448C52.7071 12.4376 53.0463 11.6292 53.5793 10.8714C54.0153 10.2146 54.403 9.55786 54.839 8.90109C55.1298 8.49692 55.4689 8.09275 55.7597 7.68858C56.1957 7.08233 56.6318 6.42556 57.1163 5.8193C57.4555 5.36461 57.7462 4.90992 58.0854 4.50575C58.5699 3.8995 59.0545 3.29325 59.539 2.687C59.8782 2.23231 60.1204 1.7271 60.4112 1.32293C60.5565 1.12085 60.7988 0.969283 61.041 0.969283C61.8648 0.868241 62.5916 1.12085 63.1245 1.82814C63.5606 2.38387 64.0452 2.88908 64.4328 3.49534C64.7235 3.95002 64.9173 4.45523 65.1111 4.90992C65.1111 4.96044 65.1111 5.01096 65.1596 5.01096C65.5472 5.41513 65.6441 5.97086 65.7895 6.52659C65.9833 7.08233 66.274 7.63806 66.4194 8.19379C66.6616 9.05265 66.807 9.91151 67.0493 10.7704C67.1946 11.2756 67.34 11.8313 67.4369 12.3365C67.4369 12.387 67.4853 12.4376 67.4853 12.4881C67.6307 13.1449 67.7276 13.8016 67.873 14.4584C67.9214 14.61 67.9214 14.8121 67.9699 14.9636C68.0668 15.4183 67.7761 15.873 67.3884 15.974C66.9524 16.0751 66.5163 15.873 66.4194 15.4183C66.274 14.9131 66.0317 14.4079 66.0317 13.8016C66.0317 13.2459 65.7895 12.6902 65.6926 12.1344C65.4988 11.3261 65.3049 10.5178 65.1111 9.70942C65.0142 9.40629 64.9173 9.15369 64.8204 8.85056C64.6266 8.29483 64.5297 7.7391 64.2874 7.23389C64.0452 6.62764 63.706 6.07191 63.4153 5.46566C63.2699 5.16253 63.0761 4.80888 62.9792 4.50575C62.7369 3.74794 62.2524 3.19221 61.7194 2.687C61.5256 2.53544 61.3802 2.53544 61.2349 2.73752C60.8472 3.29325 60.4112 3.79846 60.0235 4.3542C59.6844 4.80889 59.3936 5.26357 59.0545 5.66774C58.473 6.42555 57.8916 7.18337 57.3102 7.94118C56.4864 9.10317 55.6143 10.2652 54.839 11.5282C54.403 12.185 54.2091 12.9933 53.87 13.7006C53.8215 13.8016 53.7246 14.0037 53.5793 14.0037C52.9494 14.2058 52.3679 14.4079 51.738 14.5089C51.0112 14.61 50.236 14.6605 49.4607 14.711C49.1216 14.7615 48.7824 14.7615 48.4432 14.7615C47.6195 14.7615 46.7473 14.812 45.9236 14.812C45.003 14.812 44.0824 14.812 43.1618 14.812C42.7742 14.812 42.3865 14.8626 41.9989 14.8626C41.0783 14.8626 40.2062 14.8626 39.2855 14.8626C38.3649 14.9131 37.4443 14.9636 36.5237 15.0647C35.9907 15.1152 35.7 14.9131 35.6031 14.1553C35.5546 13.7511 35.3124 13.3975 35.167 13.0438C34.7309 12.0839 34.3918 11.0735 34.0041 10.1136C33.7134 9.4063 33.5196 8.74952 33.2289 8.04223C32.8413 7.13285 32.3567 6.27399 32.066 5.31409C31.8237 4.65732 31.3392 4.25315 31.0969 3.59638C30.8062 2.83856 30.2732 2.28283 29.7403 1.7271C29.4495 1.42397 29.1104 1.47449 28.9165 1.82814C28.6258 2.33335 28.432 2.88908 28.1413 3.34377C27.7052 4.00054 27.5114 4.70784 27.2691 5.41513C26.8815 6.47607 26.4939 7.48649 26.2032 8.54744C25.864 9.60838 25.5733 10.7198 25.331 11.8313C25.0887 13.0438 24.8949 14.2563 24.7011 15.5193C24.6527 15.873 24.7496 16.2772 24.798 16.6308C24.798 16.6813 24.8465 16.7824 24.8465 16.8329C24.8465 17.0855 24.8949 17.3886 24.6042 17.4897C24.265 17.5907 24.1197 17.2876 24.0228 17.035C23.5867 16.2266 23.5867 15.3678 23.732 14.4584C23.7805 14.1048 23.829 13.8016 23.8774 13.448C23.9259 13.0438 23.9743 12.6396 24.0712 12.286C24.3135 11.1745 24.6042 10.0126 24.8465 8.90109C25.0403 8.14327 25.2341 7.33493 25.4764 6.57712C25.8155 5.66774 26.2032 4.75836 26.5423 3.84898C26.7846 3.29325 27.0269 2.73752 27.2691 2.18179C27.4145 1.92918 27.5599 1.67658 27.7052 1.42397C27.8506 1.17137 28.0928 0.918763 28.2382 0.666158C28.7227 -0.0411365 30.031 -0.243224 30.7578 0.615634C31 0.868239 31.2423 1.12084 31.4361 1.37345C31.6299 1.62605 31.7753 1.87866 31.9207 2.13126C31.9691 2.23231 32.066 2.33335 32.1629 2.43439C32.5505 2.83856 32.9382 3.24273 32.9866 3.84898C32.9866 3.89951 32.9866 4.00055 33.0351 4.05107C33.665 4.75836 33.8588 5.71826 34.2949 6.57712C34.634 7.23389 34.9247 7.84014 35.2155 8.54744C35.6031 9.50734 35.9423 10.5178 36.3783 11.4777C36.6691 12.1344 36.7175 12.9428 37.2505 13.4985C37.3474 13.5995 37.4928 13.6501 37.5897 13.6501C38.4134 13.549 39.1886 13.448 40.0123 13.3975C40.7391 13.3469 41.5144 13.2964 42.2412 13.2964C43.0649 13.2964 43.8886 13.3469 44.7123 13.3975C45.5845 13.3975 46.4566 13.3975 47.3772 13.3975C47.8133 13.3975 48.2978 13.3469 48.7339 13.3469C49.5576 13.3469 50.3813 13.3469 51.205 13.3975C51.738 13.2459 52.271 13.3469 52.804 13.448Z" fill="#333161"/>
<path d="M47.2319 50.0258C46.6989 50.6826 46.2144 51.3393 45.6329 51.8951C45.0515 52.5013 44.3731 52.956 43.5979 53.2591C42.8711 53.5623 42.1443 53.7644 41.4175 53.7138C40.3031 53.6633 39.1886 53.7643 38.1711 53.0571C37.6866 52.7034 37.0567 52.5013 36.5722 52.0972C35.9907 51.6425 35.4093 51.2383 35.0701 50.531C34.8763 50.1774 34.634 49.8237 34.7794 49.4195C34.8278 49.2175 34.9732 49.0154 35.1186 48.9648C35.3124 48.8638 35.5062 49.0154 35.6031 49.268C35.8454 49.8742 36.233 50.3289 36.766 50.632C37.735 51.2888 38.801 51.7435 39.9639 51.9456C40.6907 52.0466 41.369 52.0972 42.0958 51.9456C42.8226 51.794 43.4525 51.3899 44.034 51.0362C44.2762 50.8847 44.47 50.6826 44.6638 50.531C45.0515 50.2279 45.4391 49.9248 45.5845 49.4195C45.5845 49.369 45.6329 49.3185 45.6329 49.268C46.2144 48.5102 46.3113 47.6513 46.2628 46.7419C46.2144 46.1862 46.4566 45.782 46.8927 45.681C47.3288 45.5799 47.7164 45.8325 47.9102 46.3883C48.0071 46.6914 48.0556 47.0451 48.0071 47.3482C47.9587 47.8029 48.0071 48.207 48.2978 48.5607C48.6855 49.0154 48.9762 49.5206 49.3638 49.9248C49.6061 50.2279 49.9453 50.43 50.2844 50.632C50.8659 50.9857 51.4473 51.2888 52.1257 51.4909C52.3195 51.5414 52.5133 51.5919 52.7071 51.5414C53.6277 51.4404 54.5968 51.3899 55.4689 51.1373C56.1473 50.9352 56.8256 50.531 57.4555 50.1268C57.8916 49.8742 58.2308 49.369 58.5699 49.0154C59.1514 48.4596 59.539 47.8029 59.9751 47.1461C60.072 46.9945 60.1204 46.843 60.1689 46.6914C60.3142 46.2367 60.6534 45.9336 61.041 45.9841C61.4771 46.0346 61.7194 46.4388 61.7678 46.944C61.8648 48.106 61.2349 48.9143 60.5081 49.6216C60.3627 49.7732 60.2658 49.9248 60.1204 50.0763C60.0235 50.1774 59.9751 50.3289 59.8782 50.3794C58.7637 51.1373 57.7947 52.0972 56.5349 52.6529C55.7112 53.0571 54.8875 53.5117 53.9184 53.4612C53.6762 53.4612 53.4339 53.4612 53.1916 53.4107C52.5617 53.3602 51.9318 53.2591 51.3019 53.1581C51.205 53.1581 51.0597 53.1076 50.9628 53.0571C50.5267 52.9055 50.0906 52.7539 49.7514 52.5518C49.3154 52.2992 48.9762 51.9456 48.5886 51.6425C48.3947 51.4909 48.2494 51.2888 48.104 51.0867C47.9102 50.8341 47.7164 50.632 47.5226 50.3794C47.4741 50.3794 47.3772 50.2279 47.2319 50.0258Z" fill="#333161"/>
<path d="M54.4998 36.6875C54.5968 36.0812 54.5968 35.4244 54.7421 34.8182C54.839 34.4645 55.0328 34.1614 55.2266 33.8583C55.4689 33.5046 55.7596 33.252 56.0019 32.8984C56.6318 31.9385 57.7462 31.888 58.473 32.6963C58.5699 32.7973 58.7153 32.8479 58.8122 32.8479C59.2483 32.9489 59.6843 33.0499 59.8782 33.5046C59.9266 33.6057 60.0235 33.7572 60.1689 33.8078C60.7019 34.0098 60.9441 34.515 61.041 34.9697C61.1864 35.576 61.1864 36.1822 61.0895 36.7885C60.9441 37.9 60.2658 38.6578 59.3452 39.2135C58.9575 39.4661 58.6184 39.6682 58.1338 39.6177C58.0854 39.6177 58.0369 39.6682 57.94 39.6682C57.2617 40.0724 56.0988 39.9713 55.5658 39.3651C54.8875 38.6072 54.4514 37.7484 54.5483 36.6875C54.5483 36.6875 54.5483 36.6875 54.4998 36.6875ZM59.6843 36.1822C59.7328 36.1822 59.7813 36.1822 59.8297 36.1317C59.7328 35.7781 59.6359 35.4749 59.539 35.1213C59.4905 35.1213 59.4905 35.1213 59.4421 35.1718C59.4905 35.5255 59.5874 35.8286 59.6843 36.1822Z" fill="#333161"/>
<path d="M37.6381 36.8897C37.5411 37.2939 37.5896 37.7991 37.3473 38.1022C36.8628 38.86 36.6205 39.7694 36.136 40.5272C35.8453 40.9819 34.8278 41.4871 34.2463 41.3861C33.5195 41.285 32.9381 40.9314 32.7443 40.123C32.7443 40.022 32.6958 39.9715 32.6474 39.8704C32.0659 38.9105 31.969 37.8496 31.969 36.7381C31.969 35.9803 32.1144 35.2225 32.2113 34.4647C32.3082 33.8079 32.8896 33.1006 33.568 33.0501C33.7618 33.0501 33.9556 32.9996 34.1494 33.0501C34.537 33.1511 34.9247 33.1006 35.3123 32.9996C35.8937 32.848 36.3783 33.3027 36.669 33.7069C37.3473 34.7173 37.6381 35.7782 37.6381 36.8897Z" fill="#333161"/>
<path d="M46.0204 41.2852C46.8926 41.3357 47.6678 41.8914 48.007 42.6997C48.0555 42.7503 48.1039 42.8513 48.1039 42.9018C48.4916 43.5586 48.3462 44.0638 47.6679 44.3669C46.5534 44.9732 45.439 44.7206 44.3246 44.3669C43.7916 44.2154 43.5978 43.7102 43.404 43.2555C43.2586 42.9524 43.4524 42.5482 43.7916 42.3966C43.9854 42.2956 44.2277 42.1945 44.4699 42.144C44.8091 42.043 45.1483 42.043 45.3421 41.5883C45.4875 41.3862 45.7782 41.3357 46.0204 41.2852Z" fill="#333161"/>
</svg>
