<svg width="220" height="170" viewBox="0 0 220 170" fill="none" xmlns="http://www.w3.org/2000/svg">
<path fill-rule="evenodd" clip-rule="evenodd" d="M143.964 167.637C144.089 168.259 144.205 168.84 144.402 169.085C145.276 170.14 147.038 169.159 147.399 168.958C147.439 168.936 147.462 168.924 147.465 168.924L148.058 128.449C153.471 127.358 161.806 125.994 169.926 124.665C178.235 123.306 186.319 121.983 190.819 121.027C191.251 120.945 191.696 121.149 192.104 121.336C192.461 121.5 192.79 121.65 193.057 121.587C193.597 121.448 193.959 120.909 194.215 120.529C194.346 120.333 194.45 120.179 194.535 120.143L195.957 116.793C196.095 116.511 196.506 115.372 197.141 113.614C198.866 108.837 202.244 99.484 206.273 90.2827C209.536 82.8778 212.307 76.1049 214.072 71.6747C214.731 69.9719 215.666 68.7861 216.458 67.781C217.116 66.9455 217.676 66.2348 217.898 65.4559C218.057 64.9206 218.271 64.3426 218.48 63.7802C218.861 62.7539 219.222 61.7794 219.195 61.2109C219.174 60.6711 218.39 60.1825 217.667 59.7323C217.173 59.4244 216.707 59.1344 216.535 58.8585C216.518 58.833 216.395 58.638 216.177 58.2929C212.883 53.0639 187.879 13.3798 181.132 7.00788L178.382 5.93266C177.919 5.93807 177.199 5.92652 176.222 5.89801C175.782 5.88516 175.369 6.10338 174.918 6.3423C174.565 6.52935 174.188 6.72909 173.754 6.84057C162.146 6.56187 138.746 5.77456 114.796 4.92823C81.6222 3.16907 46.7559 0.823322 38.7141 0.282282C37.6752 0.212392 37.084 0.172617 37.0019 0.168111L34.0531 1.28274C33.851 1.47923 33.661 1.84449 33.1104 2.90271C31.7458 5.52577 28.1662 12.4065 16.6975 31.5282C9.80027 43.0015 3.07455 54.3901 1.48405 57.0833C1.26372 57.4564 1.14194 57.6626 1.13189 57.6791L0.0600186 58.9569L0.983304 61.8035C1.04584 61.9353 7.64195 75.2974 14.3552 88.6508C24.1954 108.124 27.1816 116.114 28.4168 119.418C28.9438 120.828 29.152 121.385 29.4378 121.618C30.2643 122.311 31.1708 122.567 32.8481 122.874C35.6257 123.383 41.6184 123.818 49.1012 124.361C56.8307 124.922 66.1502 125.599 75.1582 126.591L75.4152 126.608C81.9223 127.329 88.4748 128 94.4033 128.607C104.393 129.63 112.611 130.471 115.856 131.066C115.87 131.068 116.185 131.284 116.499 131.499C116.813 131.715 117.128 131.93 117.142 131.933C117.923 132.918 120.058 135.707 122.847 139.349C129.019 147.412 138.392 159.654 143.363 165.766C143.665 166.144 143.82 166.918 143.964 167.637Z" fill="#E8380D"/>
</svg>
